<svg width="31" height="24" viewBox="0 0 31 24" fill="none" xmlns="http://www.w3.org/2000/svg">
<path opacity="0.45" d="M13.0607 13.0607C13.6464 12.4749 13.6464 11.5251 13.0607 10.9393L3.51472 1.3934C2.92893 0.807611 1.97919 0.807611 1.3934 1.3934C0.807611 1.97919 0.807611 2.92893 1.3934 3.51472L9.87868 12L1.3934 20.4853C0.807611 21.0711 0.807611 22.0208 1.3934 22.6066C1.97919 23.1924 2.92893 23.1924 3.51472 22.6066L13.0607 13.0607ZM11 13.5H12V10.5H11V13.5Z" fill="#00D3FF"/>
<path d="M30.0607 13.0607C30.6464 12.4749 30.6464 11.5251 30.0607 10.9393L20.5147 1.3934C19.9289 0.807611 18.9792 0.807611 18.3934 1.3934C17.8076 1.97919 17.8076 2.92893 18.3934 3.51472L26.8787 12L18.3934 20.4853C17.8076 21.0711 17.8076 22.0208 18.3934 22.6066C18.9792 23.1924 19.9289 23.1924 20.5147 22.6066L30.0607 13.0607ZM28 13.5H29V10.5H28V13.5Z" fill="#00D3FF"/>
</svg>
