<svg width="18" height="18" viewBox="0 0 18 18" fill="none" xmlns="http://www.w3.org/2000/svg">
<path d="M1.22913 12.0937C0.722865 12.0937 0.312459 12.5041 0.312459 13.0104C0.312459 13.5167 0.722865 13.9271 1.22913 13.9271V12.0937ZM3.63538 6.59374H2.71871H3.63538ZM14.8645 6.59374H15.7812H14.8645ZM10.6378 16.2188L11.4307 16.6787C11.5952 16.3952 11.5958 16.0453 11.4321 15.7613C11.2685 15.4772 10.9656 15.3021 10.6378 15.3021V16.2188ZM7.86259 16.2188V15.3021C7.53477 15.3021 7.23189 15.4772 7.06827 15.7613C6.90465 16.0453 6.90518 16.3952 7.06968 16.6787L7.86259 16.2188ZM17.2708 12.0937H1.22913V13.9271H17.2708V12.0937ZM1.22913 13.9271C3.06432 13.9271 4.55204 12.4394 4.55204 10.6042H2.71871C2.71871 11.4268 2.0518 12.0937 1.22913 12.0937V13.9271ZM4.55204 10.6042V6.59374H2.71871V10.6042H4.55204ZM4.55204 6.59374C4.55204 3.99915 6.65537 1.89582 9.24996 1.89582V0.0624898C5.64285 0.0624898 2.71871 2.98663 2.71871 6.59374H4.55204ZM9.24996 1.89582C11.8445 1.89582 13.9479 3.99915 13.9479 6.59374H15.7812C15.7812 2.98663 12.8571 0.0624898 9.24996 0.0624898V1.89582ZM13.9479 6.59374V10.6042H15.7812V6.59374H13.9479ZM13.9479 10.6042C13.9479 12.4394 15.4356 13.9271 17.2708 13.9271V12.0937C16.4481 12.0937 15.7812 11.4268 15.7812 10.6042H13.9479ZM9.84489 15.7588C9.72189 15.9709 9.49532 16.1014 9.2502 16.1014V17.9347C10.149 17.9347 10.9797 17.4562 11.4307 16.6787L9.84489 15.7588ZM9.2502 16.1014C9.00508 16.1014 8.7785 15.9709 8.65551 15.7588L7.06968 16.6787C7.52065 17.4562 8.35144 17.9347 9.2502 17.9347V16.1014ZM7.86259 17.1355H10.6378V15.3021H7.86259V17.1355Z" fill="#34365F"/>
</svg>
