<svg width="19" height="18" viewBox="0 0 19 18" fill="none" xmlns="http://www.w3.org/2000/svg">
<path fill-rule="evenodd" clip-rule="evenodd" d="M18.3914 7.99437L1.63033 0.104162C1.439 0.0148901 1.22659 -0.0179892 1.01754 0.00935926C0.80849 0.0367077 0.611364 0.123268 0.448946 0.258818C0.286528 0.394367 0.165407 0.573463 0.0996197 0.775484C0.0338323 0.977505 0.0260851 1.19414 0.0771815 1.40044L1.19459 5.90913C1.2672 6.1991 1.45101 6.44811 1.70562 6.60136C1.96023 6.75462 2.26474 6.79954 2.5522 6.7263C2.83967 6.65306 3.08651 6.46771 3.23844 6.21087C3.39037 5.95404 3.4349 5.6468 3.36229 5.35682L2.81478 3.10248L15.2851 8.975L2.91537 14.8025L4.24509 10.1022H7.86548C8.16183 10.1022 8.44604 9.98347 8.65559 9.77209C8.86514 9.5607 8.98289 9.27395 8.98289 8.975C8.98289 8.67606 8.86514 8.38944 8.65559 8.17806C8.44604 7.96667 8.16183 7.84783 7.86548 7.84783H3.39585C3.14505 7.83848 2.8984 7.91459 2.6957 8.06385C2.49299 8.21312 2.34603 8.42684 2.27844 8.67064L0.0436266 16.5609C-0.0159082 16.7694 -0.0144776 16.991 0.0477186 17.1987C0.109915 17.4065 0.230234 17.5916 0.394249 17.7321C0.558264 17.8725 0.758998 17.9623 0.972322 17.9905C1.18565 18.0186 1.4025 17.9841 1.59684 17.891L18.358 10.0008C18.5499 9.90974 18.7123 9.76546 18.826 9.58482C18.9396 9.40418 19 9.19462 19 8.98065C19 8.76667 18.9396 8.55711 18.826 8.37647C18.7123 8.19583 18.5499 8.05168 18.358 7.96066L18.3914 7.99437Z" fill="url(#paint0_linear)"/>
<defs>
<linearGradient id="paint0_linear" x1="0.678571" y1="9.25714" x2="18.1857" y2="9.25714" gradientUnits="userSpaceOnUse">
<stop stop-color="#0085FF"/>
<stop offset="1" stop-color="#00D3FF"/>
</linearGradient>
</defs>
</svg>
