<svg width="90" height="87" viewBox="0 0 90 87" fill="none" xmlns="http://www.w3.org/2000/svg">
<path d="M34.0908 38.909H43.1817C44.1858 38.909 44.9999 38.095 44.9999 37.0909C44.9999 36.0867 44.1858 35.2727 43.1817 35.2727H34.0908C33.0866 35.2727 32.2726 36.0867 32.2726 37.0909C32.2726 38.095 33.0866 38.909 34.0908 38.909Z" fill="#22243C"/>
<path d="M54.0908 42.5455H34.0908C33.0866 42.5455 32.2726 43.3595 32.2726 44.3637C32.2726 45.3678 33.0866 46.1818 34.0908 46.1818H54.0908C55.0949 46.1818 55.9089 45.3678 55.9089 44.3637C55.9089 43.3595 55.0949 42.5455 54.0908 42.5455Z" fill="#22243C"/>
<path fill-rule="evenodd" clip-rule="evenodd" d="M30.4545 28H59.5455C62.5579 28 65 30.4421 65 33.4545V49.8182C65 52.8306 62.5579 55.2727 59.5455 55.2727H45.9091L41.7273 60.8364C41.2122 61.5231 40.4039 61.9273 39.5455 61.9273C38.687 61.9273 37.8787 61.5231 37.3636 60.8364L33.1818 55.2727H30.4545C27.4421 55.2727 25 52.8306 25 49.8182V33.4545C25 30.4421 27.4421 28 30.4545 28ZM59.5454 51.6363C60.5495 51.6363 61.3636 50.8223 61.3636 49.8181V33.4545C61.3636 32.4503 60.5495 31.6363 59.5454 31.6363H30.4545C29.4503 31.6363 28.6363 32.4503 28.6363 33.4545V49.8181C28.6363 50.8223 29.4503 51.6363 30.4545 51.6363H34.9999L39.5454 57.6908L44.0908 51.6363H59.5454Z" fill="#22243C"/>
<g filter="url(#filter0_f)">
<path fill-rule="evenodd" clip-rule="evenodd" d="M37.7273 35H52.2727C53.779 35 55 36.221 55 37.7273V45.9091C55 47.4153 53.779 48.6364 52.2727 48.6364H45.4545L43.3636 51.4182C43.1061 51.7616 42.7019 51.9636 42.2727 51.9636C41.8435 51.9636 41.4393 51.7616 41.1818 51.4182L39.0909 48.6364H37.7273C36.221 48.6364 35 47.4153 35 45.9091V37.7273C35 36.221 36.221 35 37.7273 35ZM52.2726 46.8182C52.7747 46.8182 53.1817 46.4112 53.1817 45.9091V37.7273C53.1817 37.2252 52.7747 36.8182 52.2726 36.8182H37.7271C37.225 36.8182 36.818 37.2252 36.818 37.7273V45.9091C36.818 46.4112 37.225 46.8182 37.7271 46.8182H39.9999L42.2726 49.8455L44.5453 46.8182H52.2726Z" fill="url(#paint0_linear)"/>
<path d="M39.5455 40.4545H44.091C44.593 40.4545 45.0001 40.0475 45.0001 39.5454C45.0001 39.0434 44.593 38.6364 44.091 38.6364H39.5455C39.0434 38.6364 38.6364 39.0434 38.6364 39.5454C38.6364 40.0475 39.0434 40.4545 39.5455 40.4545Z" fill="url(#paint1_linear)"/>
<path d="M49.5455 42.2727H39.5455C39.0434 42.2727 38.6364 42.6797 38.6364 43.1818C38.6364 43.6839 39.0434 44.0909 39.5455 44.0909H49.5455C50.0476 44.0909 50.4546 43.6839 50.4546 43.1818C50.4546 42.6797 50.0476 42.2727 49.5455 42.2727Z" fill="url(#paint2_linear)"/>
</g>
<g filter="url(#filter1_f)">
<path fill-rule="evenodd" clip-rule="evenodd" d="M37.7273 35H52.2727C53.779 35 55 36.221 55 37.7273V45.9091C55 47.4153 53.779 48.6364 52.2727 48.6364H45.4545L43.3636 51.4182C43.1061 51.7616 42.7019 51.9636 42.2727 51.9636C41.8435 51.9636 41.4393 51.7616 41.1818 51.4182L39.0909 48.6364H37.7273C36.221 48.6364 35 47.4153 35 45.9091V37.7273C35 36.221 36.221 35 37.7273 35ZM52.2726 46.8182C52.7747 46.8182 53.1817 46.4112 53.1817 45.9091V37.7273C53.1817 37.2252 52.7747 36.8182 52.2726 36.8182H37.7271C37.225 36.8182 36.818 37.2252 36.818 37.7273V45.9091C36.818 46.4112 37.225 46.8182 37.7271 46.8182H39.9999L42.2726 49.8455L44.5453 46.8182H52.2726Z" fill="url(#paint3_linear)"/>
<path d="M39.5455 40.4545H44.091C44.593 40.4545 45.0001 40.0475 45.0001 39.5454C45.0001 39.0434 44.593 38.6364 44.091 38.6364H39.5455C39.0434 38.6364 38.6364 39.0434 38.6364 39.5454C38.6364 40.0475 39.0434 40.4545 39.5455 40.4545Z" fill="url(#paint4_linear)"/>
<path d="M49.5455 42.2727H39.5455C39.0434 42.2727 38.6364 42.6797 38.6364 43.1818C38.6364 43.6839 39.0434 44.0909 39.5455 44.0909H49.5455C50.0476 44.0909 50.4546 43.6839 50.4546 43.1818C50.4546 42.6797 50.0476 42.2727 49.5455 42.2727Z" fill="url(#paint5_linear)"/>
</g>
<path fill-rule="evenodd" clip-rule="evenodd" d="M37.7273 35H52.2727C53.779 35 55 36.221 55 37.7273V45.9091C55 47.4153 53.779 48.6364 52.2727 48.6364H45.4545L43.3636 51.4182C43.1061 51.7616 42.7019 51.9636 42.2727 51.9636C41.8435 51.9636 41.4393 51.7616 41.1818 51.4182L39.0909 48.6364H37.7273C36.221 48.6364 35 47.4153 35 45.9091V37.7273C35 36.221 36.221 35 37.7273 35ZM52.2726 46.8182C52.7747 46.8182 53.1817 46.4112 53.1817 45.9091V37.7273C53.1817 37.2252 52.7747 36.8182 52.2726 36.8182H37.7271C37.225 36.8182 36.818 37.2252 36.818 37.7273V45.9091C36.818 46.4112 37.225 46.8182 37.7271 46.8182H39.9999L42.2726 49.8455L44.5453 46.8182H52.2726Z" fill="url(#paint6_linear)"/>
<path d="M39.5455 40.4545H44.091C44.593 40.4545 45.0001 40.0475 45.0001 39.5454C45.0001 39.0434 44.593 38.6364 44.091 38.6364H39.5455C39.0434 38.6364 38.6364 39.0434 38.6364 39.5454C38.6364 40.0475 39.0434 40.4545 39.5455 40.4545Z" fill="url(#paint7_linear)"/>
<path d="M49.5455 42.2727H39.5455C39.0434 42.2727 38.6364 42.6797 38.6364 43.1818C38.6364 43.6839 39.0434 44.0909 39.5455 44.0909H49.5455C50.0476 44.0909 50.4546 43.6839 50.4546 43.1818C50.4546 42.6797 50.0476 42.2727 49.5455 42.2727Z" fill="url(#paint8_linear)"/>
<defs>
<filter id="filter0_f" x="0" y="0" width="90" height="86.9636" filterUnits="userSpaceOnUse" color-interpolation-filters="sRGB">
<feFlood flood-opacity="0" result="BackgroundImageFix"/>
<feBlend mode="normal" in="SourceGraphic" in2="BackgroundImageFix" result="shape"/>
<feGaussianBlur stdDeviation="17.5" result="effect1_foregroundBlur"/>
</filter>
<filter id="filter1_f" x="0" y="0" width="90" height="86.9636" filterUnits="userSpaceOnUse" color-interpolation-filters="sRGB">
<feFlood flood-opacity="0" result="BackgroundImageFix"/>
<feBlend mode="normal" in="SourceGraphic" in2="BackgroundImageFix" result="shape"/>
<feGaussianBlur stdDeviation="17.5" result="effect1_foregroundBlur"/>
</filter>
<linearGradient id="paint0_linear" x1="35.7143" y1="43.7242" x2="54.1429" y2="43.7242" gradientUnits="userSpaceOnUse">
<stop stop-color="#0085FF"/>
<stop offset="1" stop-color="#00D3FF"/>
</linearGradient>
<linearGradient id="paint1_linear" x1="38.8637" y1="39.5714" x2="44.7273" y2="39.5714" gradientUnits="userSpaceOnUse">
<stop stop-color="#0085FF"/>
<stop offset="1" stop-color="#00D3FF"/>
</linearGradient>
<linearGradient id="paint2_linear" x1="39.0585" y1="43.2078" x2="49.9481" y2="43.2078" gradientUnits="userSpaceOnUse">
<stop stop-color="#0085FF"/>
<stop offset="1" stop-color="#00D3FF"/>
</linearGradient>
<linearGradient id="paint3_linear" x1="35.7143" y1="43.7242" x2="54.1429" y2="43.7242" gradientUnits="userSpaceOnUse">
<stop stop-color="#0085FF"/>
<stop offset="1" stop-color="#00D3FF"/>
</linearGradient>
<linearGradient id="paint4_linear" x1="38.8637" y1="39.5714" x2="44.7273" y2="39.5714" gradientUnits="userSpaceOnUse">
<stop stop-color="#0085FF"/>
<stop offset="1" stop-color="#00D3FF"/>
</linearGradient>
<linearGradient id="paint5_linear" x1="39.0585" y1="43.2078" x2="49.9481" y2="43.2078" gradientUnits="userSpaceOnUse">
<stop stop-color="#0085FF"/>
<stop offset="1" stop-color="#00D3FF"/>
</linearGradient>
<linearGradient id="paint6_linear" x1="35.7143" y1="43.7242" x2="54.1429" y2="43.7242" gradientUnits="userSpaceOnUse">
<stop stop-color="#0085FF"/>
<stop offset="1" stop-color="#00D3FF"/>
</linearGradient>
<linearGradient id="paint7_linear" x1="38.8637" y1="39.5714" x2="44.7273" y2="39.5714" gradientUnits="userSpaceOnUse">
<stop stop-color="#0085FF"/>
<stop offset="1" stop-color="#00D3FF"/>
</linearGradient>
<linearGradient id="paint8_linear" x1="39.0585" y1="43.2078" x2="49.9481" y2="43.2078" gradientUnits="userSpaceOnUse">
<stop stop-color="#0085FF"/>
<stop offset="1" stop-color="#00D3FF"/>
</linearGradient>
</defs>
</svg>
