<svg width="25" height="25" viewBox="0 0 25 25" fill="none" xmlns="http://www.w3.org/2000/svg">
<path d="M12.5 25C19.4036 25 25 19.4036 25 12.5C25 5.59644 19.4036 0 12.5 0C5.59644 0 0 5.59644 0 12.5C0 19.4036 5.59644 25 12.5 25Z" fill="#FFE14D"/>
<path d="M25 12.5C25 5.60747 19.3925 0 12.5 0V25C19.3925 25 25 19.3925 25 12.5Z" fill="#FFBB33"/>
<path d="M12.5 22.0215C7.25 22.0215 2.97852 17.75 2.97852 12.5C2.97852 7.25 7.25 2.97852 12.5 2.97852C17.75 2.97852 22.0215 7.25 22.0215 12.5C22.0215 17.75 17.75 22.0215 12.5 22.0215Z" fill="#FFBB33"/>
<path d="M22.0215 12.5C22.0215 7.25 17.75 2.97852 12.5 2.97852V22.0215C17.75 22.0215 22.0215 17.75 22.0215 12.5Z" fill="#E68A2E"/>
</svg>
