<svg width="33" height="28" viewBox="0 0 33 28" fill="none" xmlns="http://www.w3.org/2000/svg">
<g filter="url(#filter0_d)">
<path d="M18.7071 10.7071C19.0976 10.3166 19.0976 9.68342 18.7071 9.29289L12.3431 2.92893C11.9526 2.53841 11.3195 2.53841 10.9289 2.92893C10.5384 3.31946 10.5384 3.95262 10.9289 4.34315L16.5858 10L10.9289 15.6569C10.5384 16.0474 10.5384 16.6805 10.9289 17.0711C11.3195 17.4616 11.9526 17.4616 12.3431 17.0711L18.7071 10.7071ZM17 11H18V9H17V11Z" fill="#00D3FF"/>
<path d="M10.5303 10.5303C10.8232 10.2374 10.8232 9.76256 10.5303 9.46967L5.75736 4.6967C5.46447 4.40381 4.98959 4.40381 4.6967 4.6967C4.40381 4.98959 4.40381 5.46447 4.6967 5.75736L8.93934 10L4.6967 14.2426C4.40381 14.5355 4.40381 15.0104 4.6967 15.3033C4.98959 15.5962 5.46447 15.5962 5.75736 15.3033L10.5303 10.5303ZM9 10.75H10V9.25H9V10.75Z" fill="#00D3FF"/>
<path d="M27.8839 10.8839C28.372 10.3957 28.372 9.60427 27.8839 9.11612L19.9289 1.16117C19.4408 0.67301 18.6493 0.67301 18.1612 1.16117C17.673 1.64932 17.673 2.44078 18.1612 2.92893L25.2322 10L18.1612 17.0711C17.673 17.5592 17.673 18.3507 18.1612 18.8388C18.6493 19.327 19.4408 19.327 19.9289 18.8388L27.8839 10.8839ZM26 11.25H27V8.75H26V11.25Z" fill="#00D3FF"/>
</g>
<defs>
<filter id="filter0_d" x="0.477028" y="0.795044" width="31.773" height="26.4099" filterUnits="userSpaceOnUse" color-interpolation-filters="sRGB">
<feFlood flood-opacity="0" result="BackgroundImageFix"/>
<feColorMatrix in="SourceAlpha" type="matrix" values="0 0 0 0 0 0 0 0 0 0 0 0 0 0 0 0 0 0 127 0"/>
<feOffset dy="4"/>
<feGaussianBlur stdDeviation="2"/>
<feColorMatrix type="matrix" values="0 0 0 0 0 0 0 0 0 0 0 0 0 0 0 0 0 0 0.25 0"/>
<feBlend mode="normal" in2="BackgroundImageFix" result="effect1_dropShadow"/>
<feBlend mode="normal" in="SourceGraphic" in2="effect1_dropShadow" result="shape"/>
</filter>
</defs>
</svg>
