<svg width="474" height="310" viewBox="0 0 474 310" fill="none" xmlns="http://www.w3.org/2000/svg">
<g opacity="0.35">
<rect x="78.9281" y="237.928" width="1.14388" height="13.7266" rx="0.571942" fill="#302545"/>
<rect x="78.9281" y="257.374" width="1.14388" height="13.7266" rx="0.571942" fill="#302545"/>
<rect x="78.9281" y="276.82" width="1.14388" height="13.7266" rx="0.571942" fill="#302545"/>
<rect x="78.9281" y="296.266" width="1.14388" height="13.7266" rx="0.571942" fill="#302545"/>
<rect x="154.424" y="235.64" width="1.14388" height="13.7266" rx="0.571942" transform="rotate(90 154.424 235.64)" fill="#302545"/>
<rect x="134.978" y="235.64" width="1.14388" height="13.7266" rx="0.571942" transform="rotate(90 134.978 235.64)" fill="#302545"/>
<rect x="115.532" y="235.64" width="1.14388" height="13.7266" rx="0.571942" transform="rotate(90 115.532 235.64)" fill="#302545"/>
<rect x="96.0863" y="235.64" width="1.14388" height="13.7266" rx="0.571942" transform="rotate(90 96.0863 235.64)" fill="#302545"/>
<rect x="76.6403" y="235.64" width="1.14388" height="13.7266" rx="0.571942" transform="rotate(90 76.6403 235.64)" fill="#302545"/>
<rect x="57.1942" y="235.64" width="1.14388" height="13.7266" rx="0.571942" transform="rotate(90 57.1942 235.64)" fill="#302545"/>
<rect x="37.7482" y="235.64" width="1.14388" height="13.7266" rx="0.571942" transform="rotate(90 37.7482 235.64)" fill="#302545"/>
<rect x="18.3022" y="235.64" width="1.14388" height="13.7266" rx="0.571942" transform="rotate(90 18.3022 235.64)" fill="#302545"/>
<rect x="80.0719" y="232.209" width="1.14388" height="13.7266" rx="0.571942" transform="rotate(-180 80.0719 232.209)" fill="#302545"/>
<rect x="80.0719" y="212.763" width="1.14388" height="13.7266" rx="0.571942" transform="rotate(-180 80.0719 212.763)" fill="#302545"/>
<rect x="80.0719" y="193.317" width="1.14388" height="13.7266" rx="0.571942" transform="rotate(-180 80.0719 193.317)" fill="#302545"/>
<rect x="80.0719" y="173.871" width="1.14388" height="13.7266" rx="0.571942" transform="rotate(-180 80.0719 173.871)" fill="#302545"/>
<rect x="1.14389" y="309.993" width="1.14388" height="13.7266" rx="0.571942" transform="rotate(-180 1.14389 309.993)" fill="#302545"/>
<rect x="1.14389" y="290.547" width="1.14388" height="13.7266" rx="0.571942" transform="rotate(-180 1.14389 290.547)" fill="#302545"/>
<rect x="1.14389" y="271.101" width="1.14388" height="13.7266" rx="0.571942" transform="rotate(-180 1.14389 271.101)" fill="#302545"/>
<rect x="1.14389" y="251.655" width="1.14388" height="13.7266" rx="0.571942" transform="rotate(-180 1.14389 251.655)" fill="#302545"/>
<rect x="1.14389" y="232.209" width="1.14388" height="13.7266" rx="0.571942" transform="rotate(-180 1.14389 232.209)" fill="#302545"/>
<rect x="1.14389" y="212.763" width="1.14388" height="13.7266" rx="0.571942" transform="rotate(-180 1.14389 212.763)" fill="#302545"/>
<rect x="1.14389" y="193.317" width="1.14388" height="13.7266" rx="0.571942" transform="rotate(-180 1.14389 193.317)" fill="#302545"/>
<rect x="1.14389" y="173.871" width="1.14388" height="13.7266" rx="0.571942" transform="rotate(-180 1.14389 173.871)" fill="#302545"/>
<rect x="157.856" y="309.993" width="1.14388" height="13.7266" rx="0.571942" transform="rotate(-180 157.856 309.993)" fill="#302545"/>
<rect x="157.856" y="290.547" width="1.14388" height="13.7266" rx="0.571942" transform="rotate(-180 157.856 290.547)" fill="#302545"/>
<rect x="157.856" y="271.101" width="1.14388" height="13.7266" rx="0.571942" transform="rotate(-180 157.856 271.101)" fill="#302545"/>
<rect x="157.856" y="251.655" width="1.14388" height="13.7266" rx="0.571942" transform="rotate(-180 157.856 251.655)" fill="#302545"/>
<rect x="159" y="232.209" width="1.14388" height="13.7266" rx="0.571942" transform="rotate(-180 159 232.209)" fill="#302545"/>
<rect x="159" y="212.763" width="1.14388" height="13.7266" rx="0.571942" transform="rotate(-180 159 212.763)" fill="#302545"/>
<rect x="159" y="193.317" width="1.14388" height="13.7266" rx="0.571942" transform="rotate(-180 159 193.317)" fill="#302545"/>
<rect x="159" y="173.871" width="1.14388" height="13.7266" rx="0.571942" transform="rotate(-180 159 173.871)" fill="#302545"/>
<rect x="78.9281" y="157.856" width="1.14388" height="13.7266" rx="0.571942" fill="#302545"/>
<rect x="78.9281" y="177.302" width="1.14388" height="13.7266" rx="0.571942" fill="#302545"/>
<rect x="78.9281" y="196.748" width="1.14388" height="13.7266" rx="0.571942" fill="#302545"/>
<rect x="78.9281" y="216.194" width="1.14388" height="13.7266" rx="0.571942" fill="#302545"/>
<rect x="154.424" y="155.568" width="1.14388" height="13.7266" rx="0.571942" transform="rotate(90 154.424 155.568)" fill="#302545"/>
<rect x="134.978" y="155.568" width="1.14388" height="13.7266" rx="0.571942" transform="rotate(90 134.978 155.568)" fill="#302545"/>
<rect x="115.532" y="155.568" width="1.14388" height="13.7266" rx="0.571942" transform="rotate(90 115.532 155.568)" fill="#302545"/>
<rect x="96.0863" y="155.568" width="1.14388" height="13.7266" rx="0.571942" transform="rotate(90 96.0863 155.568)" fill="#302545"/>
<rect x="76.6403" y="155.568" width="1.14388" height="13.7266" rx="0.571942" transform="rotate(90 76.6403 155.568)" fill="#302545"/>
<rect x="57.1942" y="155.568" width="1.14388" height="13.7266" rx="0.571942" transform="rotate(90 57.1942 155.568)" fill="#302545"/>
<rect x="37.7482" y="155.568" width="1.14388" height="13.7266" rx="0.571942" transform="rotate(90 37.7482 155.568)" fill="#302545"/>
<rect x="18.3022" y="155.568" width="1.14388" height="13.7266" rx="0.571942" transform="rotate(90 18.3022 155.568)" fill="#302545"/>
<rect x="80.0719" y="152.137" width="1.14388" height="13.7266" rx="0.571942" transform="rotate(-180 80.0719 152.137)" fill="#302545"/>
<rect x="80.0719" y="132.691" width="1.14388" height="13.7266" rx="0.571942" transform="rotate(-180 80.0719 132.691)" fill="#302545"/>
<rect x="80.0719" y="113.245" width="1.14388" height="13.7266" rx="0.571942" transform="rotate(-180 80.0719 113.245)" fill="#302545"/>
<rect x="80.0719" y="93.7986" width="1.14388" height="13.7266" rx="0.571942" transform="rotate(-180 80.0719 93.7986)" fill="#302545"/>
<rect x="1.14389" y="229.921" width="1.14388" height="13.7266" rx="0.571942" transform="rotate(-180 1.14389 229.921)" fill="#302545"/>
<rect x="1.14389" y="210.475" width="1.14388" height="13.7266" rx="0.571942" transform="rotate(-180 1.14389 210.475)" fill="#302545"/>
<rect x="1.14389" y="191.029" width="1.14388" height="13.7266" rx="0.571942" transform="rotate(-180 1.14389 191.029)" fill="#302545"/>
<rect x="1.14389" y="171.583" width="1.14388" height="13.7266" rx="0.571942" transform="rotate(-180 1.14389 171.583)" fill="#302545"/>
<rect x="1.14389" y="152.137" width="1.14388" height="13.7266" rx="0.571942" transform="rotate(-180 1.14389 152.137)" fill="#302545"/>
<rect x="1.14389" y="132.691" width="1.14388" height="13.7266" rx="0.571942" transform="rotate(-180 1.14389 132.691)" fill="#302545"/>
<rect x="1.14389" y="113.245" width="1.14388" height="13.7266" rx="0.571942" transform="rotate(-180 1.14389 113.245)" fill="#302545"/>
<rect x="1.14389" y="93.7986" width="1.14388" height="13.7266" rx="0.571942" transform="rotate(-180 1.14389 93.7986)" fill="#302545"/>
<rect x="157.856" y="229.921" width="1.14388" height="13.7266" rx="0.571942" transform="rotate(-180 157.856 229.921)" fill="#302545"/>
<rect x="157.856" y="210.475" width="1.14388" height="13.7266" rx="0.571942" transform="rotate(-180 157.856 210.475)" fill="#302545"/>
<rect x="157.856" y="191.029" width="1.14388" height="13.7266" rx="0.571942" transform="rotate(-180 157.856 191.029)" fill="#302545"/>
<rect x="157.856" y="171.583" width="1.14388" height="13.7266" rx="0.571942" transform="rotate(-180 157.856 171.583)" fill="#302545"/>
<rect x="159" y="152.137" width="1.14388" height="13.7266" rx="0.571942" transform="rotate(-180 159 152.137)" fill="#302545"/>
<rect x="159" y="132.691" width="1.14388" height="13.7266" rx="0.571942" transform="rotate(-180 159 132.691)" fill="#302545"/>
<rect x="159" y="113.245" width="1.14388" height="13.7266" rx="0.571942" transform="rotate(-180 159 113.245)" fill="#302545"/>
<rect x="159" y="93.7986" width="1.14388" height="13.7266" rx="0.571942" transform="rotate(-180 159 93.7986)" fill="#302545"/>
<rect x="78.9281" y="77.7841" width="1.14388" height="13.7266" rx="0.571942" fill="#302545"/>
<rect x="78.9281" y="97.2302" width="1.14388" height="13.7266" rx="0.571942" fill="#302545"/>
<rect x="78.9281" y="116.676" width="1.14388" height="13.7266" rx="0.571942" fill="#302545"/>
<rect x="78.9281" y="136.122" width="1.14388" height="13.7266" rx="0.571942" fill="#302545"/>
<rect x="154.424" y="75.4964" width="1.14388" height="13.7266" rx="0.571942" transform="rotate(90 154.424 75.4964)" fill="#302545"/>
<rect x="134.978" y="75.4964" width="1.14388" height="13.7266" rx="0.571942" transform="rotate(90 134.978 75.4964)" fill="#302545"/>
<rect x="115.532" y="75.4964" width="1.14388" height="13.7266" rx="0.571942" transform="rotate(90 115.532 75.4964)" fill="#302545"/>
<rect x="96.0863" y="75.4964" width="1.14388" height="13.7266" rx="0.571942" transform="rotate(90 96.0863 75.4964)" fill="#302545"/>
<rect x="76.6403" y="75.4964" width="1.14388" height="13.7266" rx="0.571942" transform="rotate(90 76.6403 75.4964)" fill="#302545"/>
<rect x="57.1942" y="75.4964" width="1.14388" height="13.7266" rx="0.571942" transform="rotate(90 57.1942 75.4964)" fill="#302545"/>
<rect x="37.7482" y="75.4964" width="1.14388" height="13.7266" rx="0.571942" transform="rotate(90 37.7482 75.4964)" fill="#302545"/>
<rect x="18.3022" y="75.4964" width="1.14388" height="13.7266" rx="0.571942" transform="rotate(90 18.3022 75.4964)" fill="#302545"/>
<rect x="80.0719" y="72.0647" width="1.14388" height="13.7266" rx="0.571942" transform="rotate(-180 80.0719 72.0647)" fill="#302545"/>
<rect x="80.0719" y="52.6187" width="1.14388" height="13.7266" rx="0.571942" transform="rotate(-180 80.0719 52.6187)" fill="#302545"/>
<rect x="80.0719" y="33.1727" width="1.14388" height="13.7266" rx="0.571942" transform="rotate(-180 80.0719 33.1727)" fill="#302545"/>
<rect x="80.0719" y="13.7266" width="1.14388" height="13.7266" rx="0.571942" transform="rotate(-180 80.0719 13.7266)" fill="#302545"/>
<rect x="1.14388" y="149.849" width="1.14388" height="13.7266" rx="0.571942" transform="rotate(-180 1.14388 149.849)" fill="#302545"/>
<rect x="1.14388" y="130.403" width="1.14388" height="13.7266" rx="0.571942" transform="rotate(-180 1.14388 130.403)" fill="#302545"/>
<rect x="1.14388" y="110.957" width="1.14388" height="13.7266" rx="0.571942" transform="rotate(-180 1.14388 110.957)" fill="#302545"/>
<rect x="1.14388" y="91.5108" width="1.14388" height="13.7266" rx="0.571942" transform="rotate(-180 1.14388 91.5108)" fill="#302545"/>
<rect x="1.14388" y="72.0647" width="1.14388" height="13.7266" rx="0.571942" transform="rotate(-180 1.14388 72.0647)" fill="#302545"/>
<rect x="1.14388" y="52.6187" width="1.14388" height="13.7266" rx="0.571942" transform="rotate(-180 1.14388 52.6187)" fill="#302545"/>
<rect x="1.14388" y="33.1727" width="1.14388" height="13.7266" rx="0.571942" transform="rotate(-180 1.14388 33.1727)" fill="#302545"/>
<rect x="1.14388" y="13.7266" width="1.14388" height="13.7266" rx="0.571942" transform="rotate(-180 1.14388 13.7266)" fill="#302545"/>
<rect x="157.856" y="149.849" width="1.14388" height="13.7266" rx="0.571942" transform="rotate(-180 157.856 149.849)" fill="#302545"/>
<rect x="157.856" y="130.403" width="1.14388" height="13.7266" rx="0.571942" transform="rotate(-180 157.856 130.403)" fill="#302545"/>
<rect x="157.856" y="110.957" width="1.14388" height="13.7266" rx="0.571942" transform="rotate(-180 157.856 110.957)" fill="#302545"/>
<rect x="157.856" y="91.5108" width="1.14388" height="13.7266" rx="0.571942" transform="rotate(-180 157.856 91.5108)" fill="#302545"/>
<rect x="159" y="72.0647" width="1.14388" height="13.7266" rx="0.571942" transform="rotate(-180 159 72.0647)" fill="#302545"/>
<rect x="159" y="52.6187" width="1.14388" height="13.7266" rx="0.571942" transform="rotate(-180 159 52.6187)" fill="#302545"/>
<rect x="159" y="33.1727" width="1.14388" height="13.7266" rx="0.571942" transform="rotate(-180 159 33.1727)" fill="#302545"/>
<rect x="159" y="13.7266" width="1.14388" height="13.7266" rx="0.571942" transform="rotate(-180 159 13.7266)" fill="#302545"/>
<rect x="235.928" y="237.928" width="1.14388" height="13.7266" rx="0.571942" fill="#302545"/>
<rect x="235.928" y="257.374" width="1.14388" height="13.7266" rx="0.571942" fill="#302545"/>
<rect x="235.928" y="276.82" width="1.14388" height="13.7266" rx="0.571942" fill="#302545"/>
<rect x="235.928" y="296.266" width="1.14388" height="13.7266" rx="0.571942" fill="#302545"/>
<rect x="311.424" y="235.64" width="1.14388" height="13.7266" rx="0.571942" transform="rotate(90 311.424 235.64)" fill="#302545"/>
<rect x="291.978" y="235.64" width="1.14388" height="13.7266" rx="0.571942" transform="rotate(90 291.978 235.64)" fill="#302545"/>
<rect x="272.532" y="235.64" width="1.14388" height="13.7266" rx="0.571942" transform="rotate(90 272.532 235.64)" fill="#302545"/>
<rect x="253.086" y="235.64" width="1.14388" height="13.7266" rx="0.571942" transform="rotate(90 253.086 235.64)" fill="#302545"/>
<rect x="233.64" y="235.64" width="1.14388" height="13.7266" rx="0.571942" transform="rotate(90 233.64 235.64)" fill="#302545"/>
<rect x="214.194" y="235.64" width="1.14388" height="13.7266" rx="0.571942" transform="rotate(90 214.194 235.64)" fill="#302545"/>
<rect x="194.748" y="235.64" width="1.14388" height="13.7266" rx="0.571942" transform="rotate(90 194.748 235.64)" fill="#302545"/>
<rect x="175.302" y="235.64" width="1.14388" height="13.7266" rx="0.571942" transform="rotate(90 175.302 235.64)" fill="#302545"/>
<rect x="237.072" y="232.209" width="1.14388" height="13.7266" rx="0.571942" transform="rotate(-180 237.072 232.209)" fill="#302545"/>
<rect x="237.072" y="212.763" width="1.14388" height="13.7266" rx="0.571942" transform="rotate(-180 237.072 212.763)" fill="#302545"/>
<rect x="237.072" y="193.317" width="1.14388" height="13.7266" rx="0.571942" transform="rotate(-180 237.072 193.317)" fill="#302545"/>
<rect x="237.072" y="173.871" width="1.14388" height="13.7266" rx="0.571942" transform="rotate(-180 237.072 173.871)" fill="#302545"/>
<rect x="158.144" y="309.993" width="1.14388" height="13.7266" rx="0.571942" transform="rotate(-180 158.144 309.993)" fill="#302545"/>
<rect x="158.144" y="290.547" width="1.14388" height="13.7266" rx="0.571942" transform="rotate(-180 158.144 290.547)" fill="#302545"/>
<rect x="158.144" y="271.101" width="1.14388" height="13.7266" rx="0.571942" transform="rotate(-180 158.144 271.101)" fill="#302545"/>
<rect x="158.144" y="251.655" width="1.14388" height="13.7266" rx="0.571942" transform="rotate(-180 158.144 251.655)" fill="#302545"/>
<rect x="158.144" y="232.209" width="1.14388" height="13.7266" rx="0.571942" transform="rotate(-180 158.144 232.209)" fill="#302545"/>
<rect x="158.144" y="212.763" width="1.14388" height="13.7266" rx="0.571942" transform="rotate(-180 158.144 212.763)" fill="#302545"/>
<rect x="158.144" y="193.317" width="1.14388" height="13.7266" rx="0.571942" transform="rotate(-180 158.144 193.317)" fill="#302545"/>
<rect x="158.144" y="173.871" width="1.14388" height="13.7266" rx="0.571942" transform="rotate(-180 158.144 173.871)" fill="#302545"/>
<rect x="314.856" y="309.993" width="1.14388" height="13.7266" rx="0.571942" transform="rotate(-180 314.856 309.993)" fill="#302545"/>
<rect x="314.856" y="290.547" width="1.14388" height="13.7266" rx="0.571942" transform="rotate(-180 314.856 290.547)" fill="#302545"/>
<rect x="314.856" y="271.101" width="1.14388" height="13.7266" rx="0.571942" transform="rotate(-180 314.856 271.101)" fill="#302545"/>
<rect x="314.856" y="251.655" width="1.14388" height="13.7266" rx="0.571942" transform="rotate(-180 314.856 251.655)" fill="#302545"/>
<rect x="316" y="232.209" width="1.14388" height="13.7266" rx="0.571942" transform="rotate(-180 316 232.209)" fill="#302545"/>
<rect x="316" y="212.763" width="1.14388" height="13.7266" rx="0.571942" transform="rotate(-180 316 212.763)" fill="#302545"/>
<rect x="316" y="193.317" width="1.14388" height="13.7266" rx="0.571942" transform="rotate(-180 316 193.317)" fill="#302545"/>
<rect x="316" y="173.871" width="1.14388" height="13.7266" rx="0.571942" transform="rotate(-180 316 173.871)" fill="#302545"/>
<rect x="235.928" y="157.856" width="1.14388" height="13.7266" rx="0.571942" fill="#302545"/>
<rect x="235.928" y="177.302" width="1.14388" height="13.7266" rx="0.571942" fill="#302545"/>
<rect x="235.928" y="196.748" width="1.14388" height="13.7266" rx="0.571942" fill="#302545"/>
<rect x="235.928" y="216.194" width="1.14388" height="13.7266" rx="0.571942" fill="#302545"/>
<rect x="311.424" y="155.568" width="1.14388" height="13.7266" rx="0.571942" transform="rotate(90 311.424 155.568)" fill="#302545"/>
<rect x="291.978" y="155.568" width="1.14388" height="13.7266" rx="0.571942" transform="rotate(90 291.978 155.568)" fill="#302545"/>
<rect x="272.532" y="155.568" width="1.14388" height="13.7266" rx="0.571942" transform="rotate(90 272.532 155.568)" fill="#302545"/>
<rect x="253.086" y="155.568" width="1.14388" height="13.7266" rx="0.571942" transform="rotate(90 253.086 155.568)" fill="#302545"/>
<rect x="233.64" y="155.568" width="1.14388" height="13.7266" rx="0.571942" transform="rotate(90 233.64 155.568)" fill="#302545"/>
<rect x="214.194" y="155.568" width="1.14388" height="13.7266" rx="0.571942" transform="rotate(90 214.194 155.568)" fill="#302545"/>
<rect x="194.748" y="155.568" width="1.14388" height="13.7266" rx="0.571942" transform="rotate(90 194.748 155.568)" fill="#302545"/>
<rect x="175.302" y="155.568" width="1.14388" height="13.7266" rx="0.571942" transform="rotate(90 175.302 155.568)" fill="#302545"/>
<rect x="237.072" y="152.137" width="1.14388" height="13.7266" rx="0.571942" transform="rotate(-180 237.072 152.137)" fill="#302545"/>
<rect x="237.072" y="132.691" width="1.14388" height="13.7266" rx="0.571942" transform="rotate(-180 237.072 132.691)" fill="#302545"/>
<rect x="237.072" y="113.245" width="1.14388" height="13.7266" rx="0.571942" transform="rotate(-180 237.072 113.245)" fill="#302545"/>
<rect x="237.072" y="93.7986" width="1.14388" height="13.7266" rx="0.571942" transform="rotate(-180 237.072 93.7986)" fill="#302545"/>
<rect x="158.144" y="229.921" width="1.14388" height="13.7266" rx="0.571942" transform="rotate(-180 158.144 229.921)" fill="#302545"/>
<rect x="158.144" y="210.475" width="1.14388" height="13.7266" rx="0.571942" transform="rotate(-180 158.144 210.475)" fill="#302545"/>
<rect x="158.144" y="191.029" width="1.14388" height="13.7266" rx="0.571942" transform="rotate(-180 158.144 191.029)" fill="#302545"/>
<rect x="158.144" y="171.583" width="1.14388" height="13.7266" rx="0.571942" transform="rotate(-180 158.144 171.583)" fill="#302545"/>
<rect x="158.144" y="152.137" width="1.14388" height="13.7266" rx="0.571942" transform="rotate(-180 158.144 152.137)" fill="#302545"/>
<rect x="158.144" y="132.691" width="1.14388" height="13.7266" rx="0.571942" transform="rotate(-180 158.144 132.691)" fill="#302545"/>
<rect x="158.144" y="113.245" width="1.14388" height="13.7266" rx="0.571942" transform="rotate(-180 158.144 113.245)" fill="#302545"/>
<rect x="158.144" y="93.7986" width="1.14388" height="13.7266" rx="0.571942" transform="rotate(-180 158.144 93.7986)" fill="#302545"/>
<rect x="314.856" y="229.921" width="1.14388" height="13.7266" rx="0.571942" transform="rotate(-180 314.856 229.921)" fill="#302545"/>
<rect x="314.856" y="210.475" width="1.14388" height="13.7266" rx="0.571942" transform="rotate(-180 314.856 210.475)" fill="#302545"/>
<rect x="314.856" y="191.029" width="1.14388" height="13.7266" rx="0.571942" transform="rotate(-180 314.856 191.029)" fill="#302545"/>
<rect x="314.856" y="171.583" width="1.14388" height="13.7266" rx="0.571942" transform="rotate(-180 314.856 171.583)" fill="#302545"/>
<rect x="316" y="152.137" width="1.14388" height="13.7266" rx="0.571942" transform="rotate(-180 316 152.137)" fill="#302545"/>
<rect x="316" y="132.691" width="1.14388" height="13.7266" rx="0.571942" transform="rotate(-180 316 132.691)" fill="#302545"/>
<rect x="316" y="113.245" width="1.14388" height="13.7266" rx="0.571942" transform="rotate(-180 316 113.245)" fill="#302545"/>
<rect x="316" y="93.7986" width="1.14388" height="13.7266" rx="0.571942" transform="rotate(-180 316 93.7986)" fill="#302545"/>
<rect x="235.928" y="77.7841" width="1.14388" height="13.7266" rx="0.571942" fill="#302545"/>
<rect x="235.928" y="97.2302" width="1.14388" height="13.7266" rx="0.571942" fill="#302545"/>
<rect x="235.928" y="116.676" width="1.14388" height="13.7266" rx="0.571942" fill="#302545"/>
<rect x="235.928" y="136.122" width="1.14388" height="13.7266" rx="0.571942" fill="#302545"/>
<rect x="311.424" y="75.4964" width="1.14388" height="13.7266" rx="0.571942" transform="rotate(90 311.424 75.4964)" fill="#302545"/>
<rect x="291.978" y="75.4964" width="1.14388" height="13.7266" rx="0.571942" transform="rotate(90 291.978 75.4964)" fill="#302545"/>
<rect x="272.532" y="75.4964" width="1.14388" height="13.7266" rx="0.571942" transform="rotate(90 272.532 75.4964)" fill="#302545"/>
<rect x="253.086" y="75.4964" width="1.14388" height="13.7266" rx="0.571942" transform="rotate(90 253.086 75.4964)" fill="#302545"/>
<rect x="233.64" y="75.4964" width="1.14388" height="13.7266" rx="0.571942" transform="rotate(90 233.64 75.4964)" fill="#302545"/>
<rect x="214.194" y="75.4964" width="1.14388" height="13.7266" rx="0.571942" transform="rotate(90 214.194 75.4964)" fill="#302545"/>
<rect x="194.748" y="75.4964" width="1.14388" height="13.7266" rx="0.571942" transform="rotate(90 194.748 75.4964)" fill="#302545"/>
<rect x="175.302" y="75.4964" width="1.14388" height="13.7266" rx="0.571942" transform="rotate(90 175.302 75.4964)" fill="#302545"/>
<rect x="237.072" y="72.0647" width="1.14388" height="13.7266" rx="0.571942" transform="rotate(-180 237.072 72.0647)" fill="#302545"/>
<rect x="237.072" y="52.6187" width="1.14388" height="13.7266" rx="0.571942" transform="rotate(-180 237.072 52.6187)" fill="#302545"/>
<rect x="237.072" y="33.1727" width="1.14388" height="13.7266" rx="0.571942" transform="rotate(-180 237.072 33.1727)" fill="#302545"/>
<rect x="237.072" y="13.7266" width="1.14388" height="13.7266" rx="0.571942" transform="rotate(-180 237.072 13.7266)" fill="#302545"/>
<rect x="158.144" y="149.849" width="1.14388" height="13.7266" rx="0.571942" transform="rotate(-180 158.144 149.849)" fill="#302545"/>
<rect x="158.144" y="130.403" width="1.14388" height="13.7266" rx="0.571942" transform="rotate(-180 158.144 130.403)" fill="#302545"/>
<rect x="158.144" y="110.957" width="1.14388" height="13.7266" rx="0.571942" transform="rotate(-180 158.144 110.957)" fill="#302545"/>
<rect x="158.144" y="91.5108" width="1.14388" height="13.7266" rx="0.571942" transform="rotate(-180 158.144 91.5108)" fill="#302545"/>
<rect x="158.144" y="72.0647" width="1.14388" height="13.7266" rx="0.571942" transform="rotate(-180 158.144 72.0647)" fill="#302545"/>
<rect x="158.144" y="52.6187" width="1.14388" height="13.7266" rx="0.571942" transform="rotate(-180 158.144 52.6187)" fill="#302545"/>
<rect x="158.144" y="33.1727" width="1.14388" height="13.7266" rx="0.571942" transform="rotate(-180 158.144 33.1727)" fill="#302545"/>
<rect x="158.144" y="13.7266" width="1.14388" height="13.7266" rx="0.571942" transform="rotate(-180 158.144 13.7266)" fill="#302545"/>
<rect x="314.856" y="149.849" width="1.14388" height="13.7266" rx="0.571942" transform="rotate(-180 314.856 149.849)" fill="#302545"/>
<rect x="314.856" y="130.403" width="1.14388" height="13.7266" rx="0.571942" transform="rotate(-180 314.856 130.403)" fill="#302545"/>
<rect x="314.856" y="110.957" width="1.14388" height="13.7266" rx="0.571942" transform="rotate(-180 314.856 110.957)" fill="#302545"/>
<rect x="314.856" y="91.5108" width="1.14388" height="13.7266" rx="0.571942" transform="rotate(-180 314.856 91.5108)" fill="#302545"/>
<rect x="316" y="72.0647" width="1.14388" height="13.7266" rx="0.571942" transform="rotate(-180 316 72.0647)" fill="#302545"/>
<rect x="316" y="52.6187" width="1.14388" height="13.7266" rx="0.571942" transform="rotate(-180 316 52.6187)" fill="#302545"/>
<rect x="316" y="33.1727" width="1.14388" height="13.7266" rx="0.571942" transform="rotate(-180 316 33.1727)" fill="#302545"/>
<rect x="316" y="13.7266" width="1.14388" height="13.7266" rx="0.571942" transform="rotate(-180 316 13.7266)" fill="#302545"/>
<rect x="393.928" y="237.928" width="1.14388" height="13.7266" rx="0.571942" fill="#302545"/>
<rect x="393.928" y="257.374" width="1.14388" height="13.7266" rx="0.571942" fill="#302545"/>
<rect x="393.928" y="276.82" width="1.14388" height="13.7266" rx="0.571942" fill="#302545"/>
<rect x="393.928" y="296.266" width="1.14388" height="13.7266" rx="0.571942" fill="#302545"/>
<rect x="469.424" y="235.64" width="1.14388" height="13.7266" rx="0.571942" transform="rotate(90 469.424 235.64)" fill="#302545"/>
<rect x="449.978" y="235.64" width="1.14388" height="13.7266" rx="0.571942" transform="rotate(90 449.978 235.64)" fill="#302545"/>
<rect x="430.532" y="235.64" width="1.14388" height="13.7266" rx="0.571942" transform="rotate(90 430.532 235.64)" fill="#302545"/>
<rect x="411.086" y="235.64" width="1.14388" height="13.7266" rx="0.571942" transform="rotate(90 411.086 235.64)" fill="#302545"/>
<rect x="391.64" y="235.64" width="1.14388" height="13.7266" rx="0.571942" transform="rotate(90 391.64 235.64)" fill="#302545"/>
<rect x="372.194" y="235.64" width="1.14388" height="13.7266" rx="0.571942" transform="rotate(90 372.194 235.64)" fill="#302545"/>
<rect x="352.748" y="235.64" width="1.14388" height="13.7266" rx="0.571942" transform="rotate(90 352.748 235.64)" fill="#302545"/>
<rect x="333.302" y="235.64" width="1.14388" height="13.7266" rx="0.571942" transform="rotate(90 333.302 235.64)" fill="#302545"/>
<rect x="395.072" y="232.209" width="1.14388" height="13.7266" rx="0.571942" transform="rotate(-180 395.072 232.209)" fill="#302545"/>
<rect x="395.072" y="212.763" width="1.14388" height="13.7266" rx="0.571942" transform="rotate(-180 395.072 212.763)" fill="#302545"/>
<rect x="395.072" y="193.317" width="1.14388" height="13.7266" rx="0.571942" transform="rotate(-180 395.072 193.317)" fill="#302545"/>
<rect x="395.072" y="173.871" width="1.14388" height="13.7266" rx="0.571942" transform="rotate(-180 395.072 173.871)" fill="#302545"/>
<rect x="316.144" y="309.993" width="1.14388" height="13.7266" rx="0.571942" transform="rotate(-180 316.144 309.993)" fill="#302545"/>
<rect x="316.144" y="290.547" width="1.14388" height="13.7266" rx="0.571942" transform="rotate(-180 316.144 290.547)" fill="#302545"/>
<rect x="316.144" y="271.101" width="1.14388" height="13.7266" rx="0.571942" transform="rotate(-180 316.144 271.101)" fill="#302545"/>
<rect x="316.144" y="251.655" width="1.14388" height="13.7266" rx="0.571942" transform="rotate(-180 316.144 251.655)" fill="#302545"/>
<rect x="316.144" y="232.209" width="1.14388" height="13.7266" rx="0.571942" transform="rotate(-180 316.144 232.209)" fill="#302545"/>
<rect x="316.144" y="212.763" width="1.14388" height="13.7266" rx="0.571942" transform="rotate(-180 316.144 212.763)" fill="#302545"/>
<rect x="316.144" y="193.317" width="1.14388" height="13.7266" rx="0.571942" transform="rotate(-180 316.144 193.317)" fill="#302545"/>
<rect x="316.144" y="173.871" width="1.14388" height="13.7266" rx="0.571942" transform="rotate(-180 316.144 173.871)" fill="#302545"/>
<rect x="472.856" y="309.993" width="1.14388" height="13.7266" rx="0.571942" transform="rotate(-180 472.856 309.993)" fill="#302545"/>
<rect x="472.856" y="290.547" width="1.14388" height="13.7266" rx="0.571942" transform="rotate(-180 472.856 290.547)" fill="#302545"/>
<rect x="472.856" y="271.101" width="1.14388" height="13.7266" rx="0.571942" transform="rotate(-180 472.856 271.101)" fill="#302545"/>
<rect x="472.856" y="251.655" width="1.14388" height="13.7266" rx="0.571942" transform="rotate(-180 472.856 251.655)" fill="#302545"/>
<rect x="474" y="232.209" width="1.14388" height="13.7266" rx="0.571942" transform="rotate(-180 474 232.209)" fill="#302545"/>
<rect x="474" y="212.763" width="1.14388" height="13.7266" rx="0.571942" transform="rotate(-180 474 212.763)" fill="#302545"/>
<rect x="474" y="193.317" width="1.14388" height="13.7266" rx="0.571942" transform="rotate(-180 474 193.317)" fill="#302545"/>
<rect x="474" y="173.871" width="1.14388" height="13.7266" rx="0.571942" transform="rotate(-180 474 173.871)" fill="#302545"/>
<rect x="393.928" y="157.856" width="1.14388" height="13.7266" rx="0.571942" fill="#302545"/>
<rect x="393.928" y="177.302" width="1.14388" height="13.7266" rx="0.571942" fill="#302545"/>
<rect x="393.928" y="196.748" width="1.14388" height="13.7266" rx="0.571942" fill="#302545"/>
<rect x="393.928" y="216.194" width="1.14388" height="13.7266" rx="0.571942" fill="#302545"/>
<rect x="469.424" y="155.568" width="1.14388" height="13.7266" rx="0.571942" transform="rotate(90 469.424 155.568)" fill="#302545"/>
<rect x="449.978" y="155.568" width="1.14388" height="13.7266" rx="0.571942" transform="rotate(90 449.978 155.568)" fill="#302545"/>
<rect x="430.532" y="155.568" width="1.14388" height="13.7266" rx="0.571942" transform="rotate(90 430.532 155.568)" fill="#302545"/>
<rect x="411.086" y="155.568" width="1.14388" height="13.7266" rx="0.571942" transform="rotate(90 411.086 155.568)" fill="#302545"/>
<rect x="391.64" y="155.568" width="1.14388" height="13.7266" rx="0.571942" transform="rotate(90 391.64 155.568)" fill="#302545"/>
<rect x="372.194" y="155.568" width="1.14388" height="13.7266" rx="0.571942" transform="rotate(90 372.194 155.568)" fill="#302545"/>
<rect x="352.748" y="155.568" width="1.14388" height="13.7266" rx="0.571942" transform="rotate(90 352.748 155.568)" fill="#302545"/>
<rect x="333.302" y="155.568" width="1.14388" height="13.7266" rx="0.571942" transform="rotate(90 333.302 155.568)" fill="#302545"/>
<rect x="395.072" y="152.137" width="1.14388" height="13.7266" rx="0.571942" transform="rotate(-180 395.072 152.137)" fill="#302545"/>
<rect x="395.072" y="132.691" width="1.14388" height="13.7266" rx="0.571942" transform="rotate(-180 395.072 132.691)" fill="#302545"/>
<rect x="395.072" y="113.245" width="1.14388" height="13.7266" rx="0.571942" transform="rotate(-180 395.072 113.245)" fill="#302545"/>
<rect x="395.072" y="93.7986" width="1.14388" height="13.7266" rx="0.571942" transform="rotate(-180 395.072 93.7986)" fill="#302545"/>
<rect x="316.144" y="229.921" width="1.14388" height="13.7266" rx="0.571942" transform="rotate(-180 316.144 229.921)" fill="#302545"/>
<rect x="316.144" y="210.475" width="1.14388" height="13.7266" rx="0.571942" transform="rotate(-180 316.144 210.475)" fill="#302545"/>
<rect x="316.144" y="191.029" width="1.14388" height="13.7266" rx="0.571942" transform="rotate(-180 316.144 191.029)" fill="#302545"/>
<rect x="316.144" y="171.583" width="1.14388" height="13.7266" rx="0.571942" transform="rotate(-180 316.144 171.583)" fill="#302545"/>
<rect x="316.144" y="152.137" width="1.14388" height="13.7266" rx="0.571942" transform="rotate(-180 316.144 152.137)" fill="#302545"/>
<rect x="316.144" y="132.691" width="1.14388" height="13.7266" rx="0.571942" transform="rotate(-180 316.144 132.691)" fill="#302545"/>
<rect x="316.144" y="113.245" width="1.14388" height="13.7266" rx="0.571942" transform="rotate(-180 316.144 113.245)" fill="#302545"/>
<rect x="316.144" y="93.7986" width="1.14388" height="13.7266" rx="0.571942" transform="rotate(-180 316.144 93.7986)" fill="#302545"/>
<rect x="472.856" y="229.921" width="1.14388" height="13.7266" rx="0.571942" transform="rotate(-180 472.856 229.921)" fill="#302545"/>
<rect x="472.856" y="210.475" width="1.14388" height="13.7266" rx="0.571942" transform="rotate(-180 472.856 210.475)" fill="#302545"/>
<rect x="472.856" y="191.029" width="1.14388" height="13.7266" rx="0.571942" transform="rotate(-180 472.856 191.029)" fill="#302545"/>
<rect x="472.856" y="171.583" width="1.14388" height="13.7266" rx="0.571942" transform="rotate(-180 472.856 171.583)" fill="#302545"/>
<rect x="474" y="152.137" width="1.14388" height="13.7266" rx="0.571942" transform="rotate(-180 474 152.137)" fill="#302545"/>
<rect x="474" y="132.691" width="1.14388" height="13.7266" rx="0.571942" transform="rotate(-180 474 132.691)" fill="#302545"/>
<rect x="474" y="113.245" width="1.14388" height="13.7266" rx="0.571942" transform="rotate(-180 474 113.245)" fill="#302545"/>
<rect x="474" y="93.7986" width="1.14388" height="13.7266" rx="0.571942" transform="rotate(-180 474 93.7986)" fill="#302545"/>
<rect x="393.928" y="77.7841" width="1.14388" height="13.7266" rx="0.571942" fill="#302545"/>
<rect x="393.928" y="97.2302" width="1.14388" height="13.7266" rx="0.571942" fill="#302545"/>
<rect x="393.928" y="116.676" width="1.14388" height="13.7266" rx="0.571942" fill="#302545"/>
<rect x="393.928" y="136.122" width="1.14388" height="13.7266" rx="0.571942" fill="#302545"/>
<rect x="469.424" y="75.4964" width="1.14388" height="13.7266" rx="0.571942" transform="rotate(90 469.424 75.4964)" fill="#302545"/>
<rect x="449.978" y="75.4964" width="1.14388" height="13.7266" rx="0.571942" transform="rotate(90 449.978 75.4964)" fill="#302545"/>
<rect x="430.532" y="75.4964" width="1.14388" height="13.7266" rx="0.571942" transform="rotate(90 430.532 75.4964)" fill="#302545"/>
<rect x="411.086" y="75.4964" width="1.14388" height="13.7266" rx="0.571942" transform="rotate(90 411.086 75.4964)" fill="#302545"/>
<rect x="391.64" y="75.4964" width="1.14388" height="13.7266" rx="0.571942" transform="rotate(90 391.64 75.4964)" fill="#302545"/>
<rect x="372.194" y="75.4964" width="1.14388" height="13.7266" rx="0.571942" transform="rotate(90 372.194 75.4964)" fill="#302545"/>
<rect x="352.748" y="75.4964" width="1.14388" height="13.7266" rx="0.571942" transform="rotate(90 352.748 75.4964)" fill="#302545"/>
<rect x="333.302" y="75.4964" width="1.14388" height="13.7266" rx="0.571942" transform="rotate(90 333.302 75.4964)" fill="#302545"/>
<rect x="395.072" y="72.0647" width="1.14388" height="13.7266" rx="0.571942" transform="rotate(-180 395.072 72.0647)" fill="#302545"/>
<rect x="395.072" y="52.6187" width="1.14388" height="13.7266" rx="0.571942" transform="rotate(-180 395.072 52.6187)" fill="#302545"/>
<rect x="395.072" y="33.1727" width="1.14388" height="13.7266" rx="0.571942" transform="rotate(-180 395.072 33.1727)" fill="#302545"/>
<rect x="395.072" y="13.7266" width="1.14388" height="13.7266" rx="0.571942" transform="rotate(-180 395.072 13.7266)" fill="#302545"/>
<rect x="316.144" y="149.849" width="1.14388" height="13.7266" rx="0.571942" transform="rotate(-180 316.144 149.849)" fill="#302545"/>
<rect x="316.144" y="130.403" width="1.14388" height="13.7266" rx="0.571942" transform="rotate(-180 316.144 130.403)" fill="#302545"/>
<rect x="316.144" y="110.957" width="1.14388" height="13.7266" rx="0.571942" transform="rotate(-180 316.144 110.957)" fill="#302545"/>
<rect x="316.144" y="91.5108" width="1.14388" height="13.7266" rx="0.571942" transform="rotate(-180 316.144 91.5108)" fill="#302545"/>
<rect x="316.144" y="72.0647" width="1.14388" height="13.7266" rx="0.571942" transform="rotate(-180 316.144 72.0647)" fill="#302545"/>
<rect x="316.144" y="52.6187" width="1.14388" height="13.7266" rx="0.571942" transform="rotate(-180 316.144 52.6187)" fill="#302545"/>
<rect x="316.144" y="33.1727" width="1.14388" height="13.7266" rx="0.571942" transform="rotate(-180 316.144 33.1727)" fill="#302545"/>
<rect x="316.144" y="13.7266" width="1.14388" height="13.7266" rx="0.571942" transform="rotate(-180 316.144 13.7266)" fill="#302545"/>
<rect x="472.856" y="149.849" width="1.14388" height="13.7266" rx="0.571942" transform="rotate(-180 472.856 149.849)" fill="#302545"/>
<rect x="472.856" y="130.403" width="1.14388" height="13.7266" rx="0.571942" transform="rotate(-180 472.856 130.403)" fill="#302545"/>
<rect x="472.856" y="110.957" width="1.14388" height="13.7266" rx="0.571942" transform="rotate(-180 472.856 110.957)" fill="#302545"/>
<rect x="472.856" y="91.5108" width="1.14388" height="13.7266" rx="0.571942" transform="rotate(-180 472.856 91.5108)" fill="#302545"/>
<rect x="474" y="72.0647" width="1.14388" height="13.7266" rx="0.571942" transform="rotate(-180 474 72.0647)" fill="#302545"/>
<rect x="474" y="52.6187" width="1.14388" height="13.7266" rx="0.571942" transform="rotate(-180 474 52.6187)" fill="#302545"/>
<rect x="474" y="33.1727" width="1.14388" height="13.7266" rx="0.571942" transform="rotate(-180 474 33.1727)" fill="#302545"/>
<rect x="474" y="13.7266" width="1.14388" height="13.7266" rx="0.571942" transform="rotate(-180 474 13.7266)" fill="#302545"/>
</g>
</svg>
