<svg width="74" height="57" viewBox="0 0 74 57" fill="none" xmlns="http://www.w3.org/2000/svg">
<g opacity="0.1">
<circle cx="1.58541" cy="2.30001" r="1.32857" fill="white"/>
<circle cx="19.2993" cy="2.30001" r="1.32857" fill="white"/>
<circle cx="37.0141" cy="2.30001" r="1.32857" fill="white"/>
<circle cx="54.728" cy="2.30001" r="1.32857" fill="white"/>
<circle cx="72.4428" cy="2.30001" r="1.32857" fill="white"/>
<circle cx="1.58541" cy="20.0142" r="1.32857" fill="white"/>
<circle cx="19.2993" cy="20.0142" r="1.32857" fill="white"/>
<circle cx="37.0141" cy="20.0142" r="1.32857" fill="white"/>
<circle cx="54.728" cy="20.0142" r="1.32857" fill="white"/>
<circle cx="72.4428" cy="20.0142" r="1.32857" fill="white"/>
<circle cx="1.58541" cy="37.7286" r="1.32857" fill="white"/>
<circle cx="19.2993" cy="37.7286" r="1.32857" fill="white"/>
<circle cx="37.0141" cy="37.7286" r="1.32857" fill="white"/>
<circle cx="54.728" cy="37.7286" r="1.32857" fill="white"/>
<circle cx="72.4428" cy="37.7286" r="1.32857" fill="white"/>
<circle cx="1.58541" cy="55.4428" r="1.32857" fill="white"/>
<circle cx="19.2993" cy="55.4428" r="1.32857" fill="white"/>
<circle cx="37.0141" cy="55.4428" r="1.32857" fill="white"/>
<circle cx="54.728" cy="55.4428" r="1.32857" fill="white"/>
<circle cx="72.4428" cy="55.4428" r="1.32857" fill="white"/>
</g>
</svg>
