<svg width="18" height="12" viewBox="0 0 18 12" fill="none" xmlns="http://www.w3.org/2000/svg">
<path fill-rule="evenodd" clip-rule="evenodd" d="M2.45455 0H15.5455C16.9011 0 18 1.09894 18 2.45455V9C18 10.3556 16.9011 11.4545 15.5455 11.4545H2.45455C1.09894 11.4545 0 10.3556 0 9V2.45455C0 1.09894 1.09894 0 2.45455 0ZM4.83523 9.8182H13.1643C13.4499 8.1842 14.7294 6.90471 16.3634 6.61911V4.83547C14.7294 4.54987 13.4499 3.27038 13.1643 1.63638H4.83523C4.54963 3.27038 3.27014 4.54987 1.63614 4.83547V6.61911C3.27014 6.90471 4.54963 8.1842 4.83523 9.8182ZM15.5456 1.63638C15.9974 1.63638 16.3637 2.00269 16.3637 2.45456V3.16638C15.6344 2.93696 15.0632 2.36571 14.8337 1.63638H15.5456ZM1.63614 3.16638C2.36547 2.93696 2.93672 2.36571 3.16614 1.63638H2.45432C2.00245 1.63638 1.63614 2.00269 1.63614 2.45456V3.16638ZM2.45432 9.81819C2.00245 9.81819 1.63614 9.45188 1.63614 9.00001V8.28819C2.36547 8.51761 2.93672 9.08886 3.16614 9.81819H2.45432ZM16.3637 8.28819C15.6344 8.51761 15.0632 9.08886 14.8337 9.81819H15.5456C15.9974 9.81819 16.3637 9.45188 16.3637 9.00001V8.28819Z" fill="white"/>
<path fill-rule="evenodd" clip-rule="evenodd" d="M6.82324 5.49817C6.82324 4.14256 7.92218 3.04362 9.27779 3.04362C10.6334 3.04362 11.7323 4.14256 11.7323 5.49817C11.7323 6.85378 10.6334 7.95272 9.27779 7.95272C7.92218 7.95272 6.82324 6.85378 6.82324 5.49817ZM8.4603 5.49817C8.4603 5.95004 8.82661 6.31635 9.27848 6.31635C9.73035 6.31635 10.0967 5.95004 10.0967 5.49817C10.0967 5.0463 9.73035 4.67999 9.27848 4.67999C8.82661 4.67999 8.4603 5.0463 8.4603 5.49817Z" fill="white"/>
</svg>
