<svg width="14" height="14" viewBox="0 0 14 14" fill="none" xmlns="http://www.w3.org/2000/svg">
<path fill-rule="evenodd" clip-rule="evenodd" d="M0 2.1C0 0.940202 0.940202 0 2.1 0H4.9C6.0598 0 7 0.940202 7 2.1V9.1C7 10.2598 6.0598 11.2 4.9 11.2H2.1C0.940202 11.2 0 10.2598 0 9.1V2.1ZM2.09987 1.4C1.71327 1.4 1.39987 1.7134 1.39987 2.1V9.1C1.39987 9.4866 1.71327 9.8 2.09987 9.8H4.89987C5.28647 9.8 5.59987 9.4866 5.59987 9.1V2.1C5.59987 1.7134 5.28647 1.4 4.89987 1.4H2.09987Z" fill="white"/>
<path fill-rule="evenodd" clip-rule="evenodd" d="M0 13.3C0 12.9134 0.313401 12.6 0.7 12.6H13.3C13.6866 12.6 14 12.9134 14 13.3C14 13.6866 13.6866 14 13.3 14H0.7C0.313401 14 0 13.6866 0 13.3Z" fill="white"/>
<path fill-rule="evenodd" clip-rule="evenodd" d="M8.3999 1.4C8.3999 1.01341 8.7133 0.700005 9.0999 0.700005H13.2999C13.6865 0.700005 13.9999 1.01341 13.9999 1.4C13.9999 1.7866 13.6865 2.1 13.2999 2.1H9.0999C8.7133 2.1 8.3999 1.7866 8.3999 1.4Z" fill="white"/>
<path fill-rule="evenodd" clip-rule="evenodd" d="M8.3999 4.2C8.3999 3.8134 8.7133 3.5 9.0999 3.5H11.8999C12.2865 3.5 12.5999 3.8134 12.5999 4.2C12.5999 4.5866 12.2865 4.9 11.8999 4.9H9.0999C8.7133 4.9 8.3999 4.5866 8.3999 4.2Z" fill="white"/>
<path fill-rule="evenodd" clip-rule="evenodd" d="M8.3999 7C8.3999 6.6134 8.7133 6.3 9.0999 6.3H11.8999C12.2865 6.3 12.5999 6.6134 12.5999 7C12.5999 7.3866 12.2865 7.7 11.8999 7.7H9.0999C8.7133 7.7 8.3999 7.3866 8.3999 7Z" fill="white"/>
<path fill-rule="evenodd" clip-rule="evenodd" d="M8.3999 9.79999C8.3999 9.41339 8.7133 9.09999 9.0999 9.09999H11.8999C12.2865 9.09999 12.5999 9.41339 12.5999 9.79999C12.5999 10.1866 12.2865 10.5 11.8999 10.5H9.0999C8.7133 10.5 8.3999 10.1866 8.3999 9.79999Z" fill="white"/>
</svg>
