<svg width="16" height="14" viewBox="0 0 16 14" fill="none" xmlns="http://www.w3.org/2000/svg">
<path fill-rule="evenodd" clip-rule="evenodd" d="M4.31613 8.00739L8.00701 11.6983L11.6979 8.00739L13.7943 5.91097C14.8135 4.89176 14.8135 3.23929 13.7943 2.22008C12.7751 1.20087 11.1226 1.20087 10.1034 2.22008L8.00701 4.33127L5.91059 2.23485C4.89138 1.21564 3.23891 1.21564 2.2197 2.23485C1.20049 3.25406 1.20049 4.90652 2.2197 5.92573L4.31613 8.00739ZM9.04083 1.194C10.6328 -0.398002 13.214 -0.398002 14.806 1.194C16.398 2.78601 16.398 5.36716 14.806 6.95917L13.7578 8.00738L8.00738 13.7725L2.24222 8.00738L1.194 6.95917C-0.398002 5.36716 -0.398002 2.78601 1.194 1.194C2.78601 -0.398002 5.36716 -0.398002 6.95917 1.194L8.00738 2.24222L9.04083 1.194Z" fill="white"/>
</svg>
