<svg width="16" height="16" viewBox="0 0 16 16" fill="none" xmlns="http://www.w3.org/2000/svg">
<path fill-rule="evenodd" clip-rule="evenodd" d="M15.04 3.02364H14.008C14.0495 2.90968 14.079 2.79171 14.096 2.67164C14.2468 1.71396 13.7841 0.763911 12.9371 0.29218C12.0901 -0.17955 11.0388 -0.0727621 10.304 0.559637L7.776 2.71964L5.256 0.559637C4.52118 -0.0727621 3.46986 -0.17955 2.62288 0.29218C1.77591 0.763911 1.31321 1.71396 1.464 2.67164C1.48101 2.79171 1.51051 2.90968 1.552 3.02364H0.96C0.429807 3.02364 0 3.45344 0 3.98364V6.86364C0 7.39383 0.429807 7.82364 0.96 7.82364H1.6V13.4236C1.6 14.7491 2.67452 15.8236 4 15.8236H12C13.3255 15.8236 14.4 14.7491 14.4 13.4236V7.82364H15.04C15.5702 7.82364 16 7.39383 16 6.86364V3.98364C16 3.45344 15.5702 3.02364 15.04 3.02364ZM11.3438 1.77565C11.5824 1.56704 11.9301 1.54125 12.1969 1.71239C12.4636 1.88352 12.5852 2.21038 12.495 2.51422C12.4048 2.81805 12.1247 3.02572 11.8078 3.02365H9.87977L11.3438 1.77565ZM3.45663 1.6678C3.20414 1.78288 3.0415 2.03416 3.03993 2.31164C3.03993 2.70487 3.3587 3.02364 3.75193 3.02364H5.67993L4.21593 1.77564C4.00547 1.59481 3.70912 1.55272 3.45663 1.6678ZM12.8001 13.4236C12.8001 13.8655 12.4419 14.2236 12.0001 14.2236H4.00009C3.55826 14.2236 3.20009 13.8655 3.20009 13.4236V7.82364H12.8001V13.4236ZM1.59983 6.22363H14.3998V4.62363H1.59983V6.22363Z" fill="white"/>
</svg>
