<svg width="14" height="16" viewBox="0 0 14 16" fill="none" xmlns="http://www.w3.org/2000/svg">
<path fill-rule="evenodd" clip-rule="evenodd" d="M9.59 7.50634C11.0004 6.40153 11.5547 4.52369 10.9703 2.83008C10.3859 1.13647 8.79159 0 7 0C5.20841 0 3.61406 1.13647 3.0297 2.83008C2.44533 4.52369 2.99962 6.40153 4.41 7.50634C1.7497 8.56584 0.00295506 11.1388 0 14.0023V14.7023C0 15.0889 0.313401 15.4023 0.7 15.4023C1.0866 15.4023 1.4 15.0889 1.4 14.7023V14.0023C1.4 10.9095 3.90721 8.40234 7 8.40234C10.0928 8.40234 12.6 10.9095 12.6 14.0023V14.7023C12.6 15.0889 12.9134 15.4023 13.3 15.4023C13.6866 15.4023 14 15.0889 14 14.7023V14.0023C13.997 11.1388 12.2503 8.56584 9.59 7.50634ZM4.19983 4.20234C4.19983 2.65594 5.45343 1.40234 6.99983 1.40234C8.54623 1.40234 9.79983 2.65594 9.79983 4.20234C9.79983 5.74874 8.54623 7.00234 6.99983 7.00234C6.25722 7.00234 5.54503 6.70734 5.01993 6.18224C4.49483 5.65714 4.19983 4.94495 4.19983 4.20234Z" fill="white"/>
</svg>
