<svg width="18" height="14" viewBox="0 0 18 14" fill="none" xmlns="http://www.w3.org/2000/svg">
<path fill-rule="evenodd" clip-rule="evenodd" d="M15.5455 0H2.45455C1.09894 0 0 1.09894 0 2.45455V10.6364C0 11.992 1.09894 13.0909 2.45455 13.0909H15.5455C16.9011 13.0909 18 11.992 18 10.6364V2.45455C18 1.09894 16.9011 0 15.5455 0ZM2.45447 1.63637H15.5454C15.9972 1.63637 16.3636 2.00268 16.3636 2.45455V3.27274H1.63629V2.45455C1.63629 2.00268 2.0026 1.63637 2.45447 1.63637ZM2.45447 11.4545H15.5454C15.9972 11.4545 16.3636 11.0882 16.3636 10.6364V4.90908H1.63629V10.6364C1.63629 11.0882 2.0026 11.4545 2.45447 11.4545Z" fill="white"/>
<path d="M3.27253 8.1818H6.54525C6.99712 8.1818 7.36344 7.81549 7.36344 7.36362C7.36344 6.91175 6.99712 6.54544 6.54525 6.54544H3.27253C2.82066 6.54544 2.45435 6.91175 2.45435 7.36362C2.45435 7.81549 2.82066 8.1818 3.27253 8.1818Z" fill="white"/>
<path d="M8.9998 9H3.27253C2.82066 9 2.45435 9.36631 2.45435 9.81818C2.45435 10.2701 2.82066 10.6364 3.27253 10.6364H8.9998C9.45167 10.6364 9.81798 10.2701 9.81798 9.81818C9.81798 9.36631 9.45167 9 8.9998 9Z" fill="white"/>
</svg>
