<svg width="16" height="16" viewBox="0 0 16 16" fill="none" xmlns="http://www.w3.org/2000/svg">
<path fill-rule="evenodd" clip-rule="evenodd" d="M0.584 13.8367L5.064 15.7567C5.35999 15.8827 5.69942 15.8521 5.96808 15.6751C6.23673 15.4982 6.39889 15.1984 6.4 14.8767V0.956703C6.39889 0.635008 6.23673 0.335251 5.96808 0.158293C5.69942 -0.0186644 5.35999 -0.0492969 5.064 0.0767029L0.584 1.9967C0.23097 2.14698 0.00132103 2.49302 0 2.8767V12.9567C0.00132103 13.3404 0.23097 13.6864 0.584 13.8367ZM1.6 3.30071L4.8 1.93271V13.9327L1.6 12.5327V3.30071Z" fill="#5A5C84"/>
<path fill-rule="evenodd" clip-rule="evenodd" d="M8.8 14.3167C9.24183 14.3167 9.6 13.9585 9.6 13.5167V2.31669C9.6 1.87487 9.24183 1.51669 8.8 1.51669C8.35817 1.51669 8 1.87487 8 2.31669V13.5167C8 13.9585 8.35817 14.3167 8.8 14.3167Z" fill="#5A5C84"/>
<path fill-rule="evenodd" clip-rule="evenodd" d="M12 14.3167C12.4418 14.3167 12.8 13.9585 12.8 13.5167V2.31669C12.8 1.87487 12.4418 1.51669 12 1.51669C11.5582 1.51669 11.2 1.87487 11.2 2.31669V13.5167C11.2 13.9585 11.5582 14.3167 12 14.3167Z" fill="#5A5C84"/>
<path fill-rule="evenodd" clip-rule="evenodd" d="M15.2 14.3167C15.6419 14.3167 16 13.9585 16 13.5167V2.31669C16 1.87487 15.6419 1.51669 15.2 1.51669C14.7582 1.51669 14.4 1.87487 14.4 2.31669V13.5167C14.4 13.9585 14.7582 14.3167 15.2 14.3167Z" fill="#5A5C84"/>
</svg>
