<svg width="18" height="16" viewBox="0 0 18 16" fill="none" xmlns="http://www.w3.org/2000/svg">
<path d="M10.1352 8.24466L3.38253 14.9973C3.12079 15.259 2.7658 15.4061 2.39565 15.4061C2.0255 15.4061 1.67051 15.259 1.40878 14.9973C1.14704 14.7356 1 14.3806 1 14.0104C1 13.6403 1.14704 13.2853 1.40878 13.0235L8.16141 6.2709" stroke="#5A5C84" stroke-linecap="round" stroke-linejoin="round"/>
<path d="M16.0564 5.77694C16.0241 5.74444 15.9857 5.71865 15.9433 5.70105C15.901 5.68345 15.8556 5.67439 15.8098 5.67439C15.7639 5.67439 15.7186 5.68345 15.6762 5.70105C15.6339 5.71865 15.5955 5.74444 15.5631 5.77694C15.3943 5.95015 15.1705 6.05931 14.93 6.08575C14.6895 6.11219 14.4473 6.05427 14.2449 5.92188C14.0424 5.7895 13.8922 5.59088 13.82 5.36C13.7477 5.12911 13.758 4.88031 13.8489 4.65614C13.8982 4.52967 13.9098 4.3916 13.8821 4.2587C13.8544 4.12581 13.7888 4.00381 13.6931 3.90754C13.1184 3.33149 12.1103 2.32409 12.0978 2.33661C11.2139 1.52719 10.0729 1.0555 8.87548 1.0046C7.67809 0.953693 6.50112 1.32683 5.55177 2.05833C5.49229 2.10281 5.4486 2.16516 5.42711 2.23626C5.40562 2.30735 5.40745 2.38346 5.43233 2.45344C5.45722 2.52343 5.50384 2.58361 5.56539 2.62518C5.62695 2.66675 5.70019 2.68753 5.7744 2.68447C6.30561 2.66015 6.83604 2.74711 7.33168 2.93976C7.82732 3.13241 8.27724 3.4265 8.65258 3.80319C9.13193 4.28323 9.57093 4.85998 9.09158 5.33933L8.15932 6.2709L10.1331 8.24465L11.1203 7.25742C11.3166 7.06119 11.5829 6.95099 11.8604 6.95105C12.138 6.95112 12.4042 7.06145 12.6004 7.25777C12.7967 7.4541 12.9069 7.72033 12.9068 7.99791C12.9067 8.27549 12.7964 8.54168 12.6001 8.73791C12.5676 8.77024 12.5418 8.80867 12.5242 8.85099C12.5066 8.89332 12.4975 8.93871 12.4975 8.98454C12.4975 9.03038 12.5066 9.07577 12.5242 9.11809C12.5418 9.16042 12.5676 9.19885 12.6001 9.23118L13.3403 9.97142C13.405 10.0365 13.4819 10.0882 13.5666 10.1235C13.6513 10.1587 13.7422 10.1769 13.8339 10.1769C13.9257 10.1769 14.0166 10.1587 14.1013 10.1235C14.186 10.0882 14.2629 10.0365 14.3275 9.97142L16.7946 7.5044C16.8597 7.43974 16.9113 7.36284 16.9466 7.27812C16.9819 7.19341 17 7.10255 17 7.01079C17 6.91903 16.9819 6.82818 16.9466 6.74346C16.9113 6.65875 16.8597 6.58184 16.7946 6.51718L16.0564 5.77694Z" stroke="#5A5C84" stroke-linecap="round" stroke-linejoin="round"/>
<path d="M15.5631 5.77762L12.6022 8.7379" stroke="#5A5C84" stroke-linecap="round" stroke-linejoin="round"/>
</svg>
