<svg width="16" height="16" viewBox="0 0 16 16" fill="none" xmlns="http://www.w3.org/2000/svg">
<path d="M14 13.3333H2.66665V12.9733L5.99998 9.64001L8.53331 12.1733C8.65822 12.2975 8.82719 12.3672 9.00331 12.3672C9.17944 12.3672 9.3484 12.2975 9.47331 12.1733L14.4733 7.17334C14.5358 7.11137 14.5854 7.03763 14.6192 6.9564C14.6531 6.87516 14.6705 6.78802 14.6705 6.70001C14.6705 6.612 14.6531 6.52487 14.6192 6.44363C14.5854 6.36239 14.5358 6.28865 14.4733 6.22668C14.3484 6.10251 14.1794 6.03282 14.0033 6.03282C13.8272 6.03282 13.6582 6.10251 13.5333 6.22668L8.99998 10.76L6.47331 8.22668C6.3484 8.10251 6.17944 8.03282 6.00331 8.03282C5.82719 8.03282 5.65822 8.10251 5.53331 8.22668L2.66665 11.0867V7.64001L5.99998 4.30668L7.86665 6.17334C7.99155 6.29751 8.16052 6.36721 8.33665 6.36721C8.51277 6.36721 8.68174 6.29751 8.80665 6.17334L12 2.98001L13.46 4.44001C13.5855 4.56466 13.7554 4.63434 13.9323 4.63371C14.1092 4.63309 14.2787 4.56221 14.4033 4.43668C14.528 4.31114 14.5976 4.14123 14.597 3.96432C14.5964 3.78741 14.5255 3.618 14.4 3.49334L12.46 1.56668C12.3351 1.44251 12.1661 1.37281 11.99 1.37281C11.8139 1.37281 11.6449 1.44251 11.52 1.56668L8.31998 4.76668L6.45998 2.90001C6.33507 2.77584 6.1661 2.70615 5.98998 2.70615C5.81386 2.70615 5.64489 2.77584 5.51998 2.90001L2.66665 5.75334V2.00001C2.66665 1.8232 2.59641 1.65363 2.47138 1.52861C2.34636 1.40358 2.17679 1.33334 1.99998 1.33334C1.82317 1.33334 1.6536 1.40358 1.52858 1.52861C1.40355 1.65363 1.33331 1.8232 1.33331 2.00001V14C1.33331 14.1768 1.40355 14.3464 1.52858 14.4714C1.6536 14.5964 1.82317 14.6667 1.99998 14.6667H14C14.1768 14.6667 14.3464 14.5964 14.4714 14.4714C14.5964 14.3464 14.6666 14.1768 14.6666 14C14.6666 13.8232 14.5964 13.6536 14.4714 13.5286C14.3464 13.4036 14.1768 13.3333 14 13.3333Z" fill="white"/>
</svg>
