<svg width="23" height="20" viewBox="0 0 23 20" fill="none" xmlns="http://www.w3.org/2000/svg">
<path d="M22.204 2.26562H21.5594V1.62109C21.5594 1.26514 21.2709 0.976562 20.9149 0.976562C20.559 0.976562 20.2704 1.26514 20.2704 1.62109V2.26562H7.93835H5.36023H2.7821C2.42615 2.26562 2.13757 2.5542 2.13757 2.91016C2.13757 3.26555 1.84844 3.55469 1.49304 3.55469C1.13709 3.55469 0.848511 3.84327 0.848511 4.19922V6.77734V8.06641C0.848511 8.42236 1.13709 8.71094 1.49304 8.71094C1.83567 8.71094 2.11673 8.97966 2.1365 9.31744L1.06516 16.8164C0.898784 17.9812 1.80383 19.0234 2.97933 19.0234H5.51496C6.48494 19.0234 7.30951 18.2979 7.43287 17.3358L7.87755 13.8672H10.5134C10.5142 13.8672 10.5151 13.8673 10.516 13.8673C10.5209 13.8673 10.5258 13.8669 10.5308 13.8668C11.5904 13.8591 12.4501 12.995 12.4501 11.9336V10H19.6259C19.87 10 20.0932 9.86207 20.2023 9.6437L21.3132 7.42188H22.204C22.5599 7.42188 22.8485 7.1333 22.8485 6.77734V2.91016C22.8485 2.5542 22.5599 2.26562 22.204 2.26562ZM5.82481 3.55469H7.04409L6.18471 6.13281H4.96543L5.82481 3.55469ZM2.13757 4.73332C2.6862 4.5388 3.12169 4.10331 3.31621 3.55469H4.46601L3.60663 6.13281H2.13757V4.73332ZM8.58289 12.5781C7.8721 12.5781 7.29382 11.9999 7.29382 11.2891C7.29382 10.5783 7.8721 10 8.58289 10H8.61034C8.34531 10.8527 8.44354 11.7864 8.91521 12.5781H8.58289ZM11.161 11.9336C11.161 12.2411 10.9444 12.4986 10.6559 12.5625C9.7833 12.0232 9.49606 10.89 10.0076 10H11.161V11.9336ZM19.2275 8.71094C18.5309 8.71094 9.02766 8.71094 8.58289 8.71094C7.16131 8.71094 6.00476 9.86748 6.00476 11.2891C6.00476 11.9605 6.263 12.5726 6.68504 13.0319L6.15425 17.1718C6.11313 17.4925 5.83826 17.7344 5.51492 17.7344H2.97933C2.58651 17.7344 2.28564 17.388 2.34129 16.9987C3.49526 8.92105 3.42664 9.42375 3.42664 9.35547C3.42664 8.51517 2.88785 7.79832 2.13757 7.5323V7.42188C2.72685 7.42188 19.5033 7.42188 19.872 7.42188L19.2275 8.71094ZM21.5594 6.13281C21.1126 6.13281 8.62671 6.13281 7.54356 6.13281L8.40293 3.55469H21.5594V6.13281Z" fill="#00D3FF"/>
</svg>
