<svg width="50" height="50" viewBox="0 0 50 50" fill="none" xmlns="http://www.w3.org/2000/svg">
<g opacity="0.25">
<circle cx="25" cy="0.999969" r="1" fill="#42476F"/>
<circle cx="25" cy="0.999969" r="1" fill="#42476F"/>
<circle cx="25" cy="0.999969" r="1" fill="#42476F"/>
<circle cx="33" cy="0.999969" r="1" fill="#42476F"/>
<circle cx="33" cy="0.999969" r="1" fill="#42476F"/>
<circle cx="33" cy="0.999969" r="1" fill="#42476F"/>
<circle cx="41" cy="0.999969" r="1" fill="#42476F"/>
<circle cx="41" cy="0.999969" r="1" fill="#42476F"/>
<circle cx="41" cy="0.999969" r="1" fill="#42476F"/>
<circle cx="49" cy="0.999969" r="1" fill="#42476F"/>
<circle cx="49" cy="0.999969" r="1" fill="#42476F"/>
<circle cx="49" cy="0.999969" r="1" fill="#42476F"/>
<circle cx="25" cy="8.99997" r="1" fill="#42476F"/>
<circle cx="25" cy="8.99997" r="1" fill="#42476F"/>
<circle cx="25" cy="8.99997" r="1" fill="#42476F"/>
<circle cx="33" cy="8.99997" r="1" fill="#42476F"/>
<circle cx="33" cy="8.99997" r="1" fill="#42476F"/>
<circle cx="33" cy="8.99997" r="1" fill="#42476F"/>
<circle cx="41" cy="8.99997" r="1" fill="#42476F"/>
<circle cx="41" cy="8.99997" r="1" fill="#42476F"/>
<circle cx="41" cy="8.99997" r="1" fill="#42476F"/>
<circle cx="49" cy="8.99997" r="1" fill="#42476F"/>
<circle cx="49" cy="8.99997" r="1" fill="#42476F"/>
<circle cx="49" cy="8.99997" r="1" fill="#42476F"/>
<circle cx="25" cy="17" r="1" fill="#42476F"/>
<circle cx="25" cy="17" r="1" fill="#42476F"/>
<circle cx="25" cy="17" r="1" fill="#42476F"/>
<circle cx="33" cy="17" r="1" fill="#42476F"/>
<circle cx="33" cy="17" r="1" fill="#42476F"/>
<circle cx="33" cy="17" r="1" fill="#42476F"/>
<circle cx="41" cy="17" r="1" fill="#42476F"/>
<circle cx="41" cy="17" r="1" fill="#42476F"/>
<circle cx="41" cy="17" r="1" fill="#42476F"/>
<circle cx="49" cy="17" r="1" fill="#42476F"/>
<circle cx="49" cy="17" r="1" fill="#42476F"/>
<circle cx="49" cy="17" r="1" fill="#42476F"/>
<circle cx="25" cy="25" r="1" fill="#42476F"/>
<circle cx="25" cy="25" r="1" fill="#42476F"/>
<circle cx="25" cy="25" r="1" fill="#42476F"/>
<circle cx="33" cy="25" r="1" fill="#42476F"/>
<circle cx="33" cy="25" r="1" fill="#42476F"/>
<circle cx="33" cy="25" r="1" fill="#42476F"/>
<circle cx="41" cy="25" r="1" fill="#42476F"/>
<circle cx="41" cy="25" r="1" fill="#42476F"/>
<circle cx="41" cy="25" r="1" fill="#42476F"/>
<circle cx="49" cy="25" r="1" fill="#42476F"/>
<circle cx="49" cy="25" r="1" fill="#42476F"/>
<circle cx="49" cy="25" r="1" fill="#42476F"/>
</g>
<g opacity="0.25">
<circle cx="1" cy="25" r="1" fill="#42476F"/>
<circle cx="1" cy="25" r="1" fill="#42476F"/>
<circle cx="1" cy="25" r="1" fill="#42476F"/>
<circle cx="9" cy="25" r="1" fill="#42476F"/>
<circle cx="9" cy="25" r="1" fill="#42476F"/>
<circle cx="9" cy="25" r="1" fill="#42476F"/>
<circle cx="17" cy="25" r="1" fill="#42476F"/>
<circle cx="17" cy="25" r="1" fill="#42476F"/>
<circle cx="17" cy="25" r="1" fill="#42476F"/>
<circle cx="25" cy="25" r="1" fill="#42476F"/>
<circle cx="25" cy="25" r="1" fill="#42476F"/>
<circle cx="25" cy="25" r="1" fill="#42476F"/>
<circle cx="1" cy="33" r="1" fill="#42476F"/>
<circle cx="1" cy="33" r="1" fill="#42476F"/>
<circle cx="1" cy="33" r="1" fill="#42476F"/>
<circle cx="9" cy="33" r="1" fill="#42476F"/>
<circle cx="9" cy="33" r="1" fill="#42476F"/>
<circle cx="9" cy="33" r="1" fill="#42476F"/>
<circle cx="17" cy="33" r="1" fill="#42476F"/>
<circle cx="17" cy="33" r="1" fill="#42476F"/>
<circle cx="17" cy="33" r="1" fill="#42476F"/>
<circle cx="25" cy="33" r="1" fill="#42476F"/>
<circle cx="25" cy="33" r="1" fill="#42476F"/>
<circle cx="25" cy="33" r="1" fill="#42476F"/>
<circle cx="1" cy="41" r="1" fill="#42476F"/>
<circle cx="1" cy="41" r="1" fill="#42476F"/>
<circle cx="1" cy="41" r="1" fill="#42476F"/>
<circle cx="9" cy="41" r="1" fill="#42476F"/>
<circle cx="9" cy="41" r="1" fill="#42476F"/>
<circle cx="9" cy="41" r="1" fill="#42476F"/>
<circle cx="17" cy="41" r="1" fill="#42476F"/>
<circle cx="17" cy="41" r="1" fill="#42476F"/>
<circle cx="17" cy="41" r="1" fill="#42476F"/>
<circle cx="25" cy="41" r="1" fill="#42476F"/>
<circle cx="25" cy="41" r="1" fill="#42476F"/>
<circle cx="25" cy="41" r="1" fill="#42476F"/>
<circle cx="1" cy="49" r="1" fill="#42476F"/>
<circle cx="1" cy="49" r="1" fill="#42476F"/>
<circle cx="1" cy="49" r="1" fill="#42476F"/>
<circle cx="9" cy="49" r="1" fill="#42476F"/>
<circle cx="9" cy="49" r="1" fill="#42476F"/>
<circle cx="9" cy="49" r="1" fill="#42476F"/>
<circle cx="17" cy="49" r="1" fill="#42476F"/>
<circle cx="17" cy="49" r="1" fill="#42476F"/>
<circle cx="17" cy="49" r="1" fill="#42476F"/>
<circle cx="25" cy="49" r="1" fill="#42476F"/>
<circle cx="25" cy="49" r="1" fill="#42476F"/>
<circle cx="25" cy="49" r="1" fill="#42476F"/>
</g>
<rect x="5" y="4.99997" width="38" height="38" rx="19" stroke="#00D3FF" stroke-width="2"/>
<rect x="15" y="15" width="18" height="18" rx="9" stroke="#00D3FF" stroke-width="2"/>
</svg>
