<svg width="100" height="100" viewBox="0 0 100 100" fill="none" xmlns="http://www.w3.org/2000/svg">
<g opacity="0.25">
<path d="M97.0703 14.8438H94.1406V11.9141C94.1406 10.2961 92.8289 8.98438 91.2109 8.98438C89.593 8.98438 88.2812 10.2961 88.2812 11.9141V14.8438H32.2266H20.5078H8.78906C7.17109 14.8438 5.85938 16.1555 5.85938 17.7734C5.85938 19.3889 4.54512 20.7031 2.92969 20.7031C1.31172 20.7031 0 22.0148 0 23.6328V35.3516V41.2109C0 42.8289 1.31172 44.1406 2.92969 44.1406C4.48711 44.1406 5.76465 45.3621 5.85449 46.8975L0.984766 80.9836C0.228516 86.2783 4.34238 91.0156 9.68555 91.0156H21.2111C25.6201 91.0156 29.3682 87.7178 29.9289 83.3443L31.9502 67.5781H43.9312C43.9352 67.5781 43.9391 67.5787 43.943 67.5787C43.9654 67.5787 43.9879 67.577 44.0103 67.5764C48.8268 67.5412 52.7344 63.6135 52.7344 58.7891V50H85.3516C86.4613 50 87.4758 49.373 87.9719 48.3805L93.0215 38.2812H97.0703C98.6883 38.2812 100 36.9695 100 35.3516V17.7734C100 16.1555 98.6883 14.8438 97.0703 14.8438ZM22.6195 20.7031H28.1617L24.2555 32.4219H18.7133L22.6195 20.7031ZM5.85938 26.0605C8.35312 25.1764 10.3326 23.1969 11.2168 20.7031H16.4432L12.5369 32.4219H5.85938V26.0605ZM35.1562 61.7188C31.9254 61.7188 29.2969 59.0902 29.2969 55.8594C29.2969 52.6285 31.9254 50 35.1562 50H35.2811C34.0764 53.8758 34.5229 58.1201 36.6668 61.7188H35.1562ZM46.875 58.7891C46.875 60.1867 45.8904 61.3572 44.5789 61.6479C40.6127 59.1963 39.307 54.0453 41.6324 50H46.875V58.7891ZM83.5408 44.1406C80.3744 44.1406 37.1779 44.1406 35.1562 44.1406C28.6945 44.1406 23.4375 49.3977 23.4375 55.8594C23.4375 58.9113 24.6113 61.6937 26.5297 63.7812L24.117 82.5992C23.9301 84.057 22.6807 85.1564 21.2109 85.1564H9.68555C7.9 85.1564 6.53242 83.582 6.78535 81.8123C12.0307 45.0957 11.7188 47.3807 11.7188 47.0703C11.7188 43.2508 9.26973 39.9924 5.85938 38.7832V38.2812C8.53789 38.2812 84.7943 38.2812 86.4705 38.2812L83.5408 44.1406ZM94.1406 32.4219C92.1094 32.4219 35.3555 32.4219 30.432 32.4219L34.3383 20.7031H94.1406V32.4219Z" fill="#6F53B9"/>
</g>
<path d="M70.3887 31.1641H68.7773V29.5527C68.7773 28.6629 68.0559 27.9414 67.166 27.9414C66.2761 27.9414 65.5547 28.6629 65.5547 29.5527V31.1641H34.7246H28.2793H21.834C20.9441 31.1641 20.2227 31.8855 20.2227 32.7754C20.2227 33.6639 19.4998 34.3867 18.6113 34.3867C17.7214 34.3867 17 35.1082 17 35.998V42.4434V45.666C17 46.5559 17.7214 47.2773 18.6113 47.2773C19.4679 47.2773 20.1706 47.9492 20.22 48.7936L17.5416 67.541C17.1257 70.4531 19.3883 73.0586 22.3271 73.0586H28.6661C31.0911 73.0586 33.1525 71.2448 33.4609 68.8394L34.5726 60.168H41.1622C41.1643 60.168 41.1665 60.1683 41.1686 60.1683C41.181 60.1683 41.1933 60.1673 41.2057 60.167C43.8547 60.1477 46.0039 57.9874 46.0039 55.334V50.5H63.9434C64.5537 50.5 65.1117 50.1552 65.3845 49.6093L68.1618 44.0547H70.3887C71.2786 44.0547 72 43.3332 72 42.4434V32.7754C72 31.8855 71.2786 31.1641 70.3887 31.1641ZM29.4407 34.3867H32.4889L30.3405 40.832H27.2923L29.4407 34.3867ZM20.2227 37.3333C21.5942 36.847 22.6829 35.7583 23.1692 34.3867H26.0437L23.8953 40.832H20.2227V37.3333ZM36.3359 56.9453C34.559 56.9453 33.1133 55.4996 33.1133 53.7227C33.1133 51.9457 34.559 50.5 36.3359 50.5H36.4046C35.742 52.6317 35.9876 54.9661 37.1667 56.9453H36.3359ZM42.7812 55.334C42.7812 56.1027 42.2397 56.7465 41.5184 56.9063C39.337 55.558 38.6189 52.7249 39.8978 50.5H42.7812V55.334ZM62.9475 47.2773C61.2059 47.2773 37.4479 47.2773 36.3359 47.2773C32.782 47.2773 29.8906 50.1687 29.8906 53.7227C29.8906 55.4012 30.5362 56.9316 31.5913 58.0797L30.2643 68.4296C30.1615 69.2314 29.4744 69.836 28.666 69.836H22.3271C21.345 69.836 20.5928 68.9701 20.7319 67.9968C23.6169 47.8026 23.4453 49.0594 23.4453 48.8887C23.4453 46.7879 22.0983 44.9958 20.2227 44.3308V44.0547C21.6958 44.0547 63.6369 44.0547 64.5588 44.0547L62.9475 47.2773ZM68.7773 40.832C67.6602 40.832 36.4455 40.832 33.7376 40.832L35.8861 34.3867H68.7773V40.832Z" fill="#00D3FF"/>
</svg>
