<svg width="13" height="8" viewBox="0 0 13 8" fill="none" xmlns="http://www.w3.org/2000/svg">
<path d="M2.85714 3.42857C2.74413 3.42857 2.63365 3.46209 2.53967 3.52487C2.4457 3.58766 2.37246 3.67691 2.32921 3.78132C2.28596 3.88574 2.27465 4.00063 2.29669 4.11148C2.31874 4.22233 2.37317 4.32415 2.45308 4.40406C2.533 4.48398 2.63482 4.5384 2.74566 4.56045C2.85651 4.5825 2.9714 4.57118 3.07582 4.52793C3.18023 4.48468 3.26948 4.41144 3.33227 4.31747C3.39506 4.2235 3.42857 4.11302 3.42857 4C3.42857 3.84845 3.36837 3.7031 3.2612 3.59594C3.15404 3.48878 3.0087 3.42857 2.85714 3.42857ZM9.71429 3.42857C9.60127 3.42857 9.49079 3.46209 9.39682 3.52487C9.30285 3.58766 9.2296 3.67691 9.18635 3.78132C9.1431 3.88574 9.13179 4.00063 9.15384 4.11148C9.17589 4.22233 9.23031 4.32415 9.31022 4.40406C9.39014 4.48398 9.49196 4.5384 9.60281 4.56045C9.71365 4.5825 9.82855 4.57118 9.93296 4.52793C10.0374 4.48468 10.1266 4.41144 10.1894 4.31747C10.2522 4.2235 10.2857 4.11302 10.2857 4C10.2857 3.84845 10.2255 3.7031 10.1183 3.59594C10.0112 3.48878 9.86584 3.42857 9.71429 3.42857ZM10.8571 0H1.71429C1.25963 0 0.823594 0.180612 0.502103 0.502103C0.180612 0.823594 0 1.25963 0 1.71429V6.28571C0 6.74037 0.180612 7.17641 0.502103 7.4979C0.823594 7.81939 1.25963 8 1.71429 8H10.8571C11.3118 8 11.7478 7.81939 12.0693 7.4979C12.3908 7.17641 12.5714 6.74037 12.5714 6.28571V1.71429C12.5714 1.25963 12.3908 0.823594 12.0693 0.502103C11.7478 0.180612 11.3118 0 10.8571 0ZM11.4286 6.28571C11.4286 6.43727 11.3684 6.58261 11.2612 6.68978C11.154 6.79694 11.0087 6.85714 10.8571 6.85714H1.71429C1.56273 6.85714 1.41739 6.79694 1.31022 6.68978C1.20306 6.58261 1.14286 6.43727 1.14286 6.28571V1.71429C1.14286 1.56273 1.20306 1.41739 1.31022 1.31022C1.41739 1.20306 1.56273 1.14286 1.71429 1.14286H10.8571C11.0087 1.14286 11.154 1.20306 11.2612 1.31022C11.3684 1.41739 11.4286 1.56273 11.4286 1.71429V6.28571ZM6.28571 2.28571C5.94666 2.28571 5.61522 2.38626 5.33331 2.57462C5.0514 2.76299 4.83167 3.03073 4.70192 3.34397C4.57217 3.65722 4.53822 4.0019 4.60437 4.33444C4.67051 4.66698 4.83378 4.97244 5.07353 5.21218C5.31328 5.45193 5.61874 5.6152 5.95127 5.68135C6.28381 5.74749 6.6285 5.71354 6.94174 5.58379C7.25499 5.45404 7.52272 5.23432 7.71109 4.95241C7.89946 4.67049 8 4.33905 8 4C8 3.54534 7.81939 3.10931 7.4979 2.78782C7.17641 2.46633 6.74037 2.28571 6.28571 2.28571ZM6.28571 4.57143C6.1727 4.57143 6.06222 4.53792 5.96825 4.47513C5.87427 4.41234 5.80103 4.32309 5.75778 4.21868C5.71453 4.11426 5.70322 3.99937 5.72527 3.88852C5.74731 3.77767 5.80174 3.67585 5.88165 3.59594C5.96157 3.51602 6.06339 3.4616 6.17423 3.43955C6.28508 3.4175 6.39998 3.42882 6.50439 3.47207C6.60881 3.51532 6.69805 3.58856 6.76084 3.68253C6.82363 3.7765 6.85714 3.88698 6.85714 4C6.85714 4.15155 6.79694 4.2969 6.68978 4.40406C6.58261 4.51122 6.43727 4.57143 6.28571 4.57143Z" fill="#66688D"/>
</svg>
