<svg width="11" height="12" viewBox="0 0 11 12" fill="none" xmlns="http://www.w3.org/2000/svg">
<path fill-rule="evenodd" clip-rule="evenodd" d="M7.47159 5.84821C8.57042 4.98745 9.00227 3.52442 8.54699 2.20492C8.09171 0.885427 6.84955 0 5.45372 0C4.05789 0 2.81572 0.885427 2.36044 2.20492C1.90516 3.52442 2.33701 4.98745 3.43584 5.84821C1.36319 6.67367 0.00230229 8.67828 0 10.9093V11.4546C0 11.7558 0.244171 12 0.545372 12C0.846572 12 1.09074 11.7558 1.09074 11.4546V10.9093C1.09074 8.49965 3.04411 6.54628 5.45372 6.54628C7.86332 6.54628 9.81669 8.49965 9.81669 10.9093V11.4546C9.81669 11.7558 10.0609 12 10.3621 12C10.6633 12 10.9074 11.7558 10.9074 11.4546V10.9093C10.9051 8.67828 9.54424 6.67367 7.47159 5.84821ZM3.27225 3.27405C3.27225 2.06925 4.24894 1.09256 5.45374 1.09256C6.65854 1.09256 7.63522 2.06925 7.63522 3.27405C7.63522 4.47885 6.65854 5.45554 5.45374 5.45554C4.87517 5.45554 4.3203 5.2257 3.91119 4.81659C3.50209 4.40749 3.27225 3.85262 3.27225 3.27405Z" fill="#4A4C6F"/>
</svg>
