<svg width="19" height="19" viewBox="0 0 19 19" fill="none" xmlns="http://www.w3.org/2000/svg">
<path fill-rule="evenodd" clip-rule="evenodd" d="M-4.47784e-07 8.20001C0.00011061 11.3085 1.80083 14.1354 4.61782 15.4496C7.43482 16.7638 10.758 16.3272 13.14 14.33L16.95 18.15C17.2037 18.4037 17.5734 18.5027 17.9199 18.4099C18.2664 18.317 18.537 18.0464 18.6299 17.6999C18.7227 17.3534 18.6237 16.9837 18.37 16.73L14.49 12.88C15.4737 11.5256 16.0024 9.89399 16 8.22001C16 3.80173 12.4183 0.220006 8 0.220007C3.58172 0.220007 -6.40039e-07 3.80173 -4.4691e-07 8.22001L-4.47784e-07 8.20001ZM14 8.20001C14 11.5137 11.3137 14.2 8 14.2C4.68629 14.2 2 11.5137 2 8.20001C2 4.8863 4.68629 2.20001 8 2.20001C9.5913 2.20001 11.1174 2.83215 12.2426 3.95737C13.3679 5.08258 14 6.60871 14 8.20001Z" fill="#363751"/>
</svg>
