<svg width="53" height="53" viewBox="0 0 53 53" fill="none" xmlns="http://www.w3.org/2000/svg">
<g filter="url(#filter0_d)">
<path fill-rule="evenodd" clip-rule="evenodd" d="M26 18.0001C23.7909 18.0001 22 19.791 22 22.0001C22 24.2093 23.7909 26.0001 26 26.0001C28.2091 26.0001 30 24.2093 30 22.0001C30 20.9393 29.5786 19.9218 28.8284 19.1717C28.0783 18.4215 27.0609 18.0001 26 18.0001ZM26 24.0001C24.8954 24.0001 24 23.1047 24 22.0001C24 20.8956 24.8954 20.0001 26 20.0001C27.1046 20.0001 28 20.8956 28 22.0001C28 23.1047 27.1046 24.0001 26 24.0001Z" fill="#00D3FF"/>
<path fill-rule="evenodd" clip-rule="evenodd" d="M34.3901 18.5301C35.3077 17.335 35.1964 15.6447 34.1301 14.5801L33.4201 13.8701C32.3488 12.7747 30.6242 12.6626 29.4201 13.6101C29.2272 12.1371 27.9854 11.0271 26.5001 11.0001H25.5001C23.9843 10.9873 22.6971 12.1071 22.5001 13.6101C21.305 12.6925 19.6147 12.8038 18.5501 13.8701L17.8401 14.5801C16.7738 15.6447 16.6625 17.335 17.5801 18.5301C16.1004 18.7393 15.0003 20.0057 15.0001 21.5001V22.5001C14.9873 24.0159 16.1071 25.3031 17.6101 25.5001C16.6626 26.7042 16.7747 28.4288 17.8701 29.5001L18.5801 30.2101C19.6447 31.2764 21.335 31.3877 22.5301 30.4701C22.7271 31.9731 24.0143 33.093 25.5301 33.0801H26.5301C28.0459 33.093 29.3331 31.9731 29.5301 30.4701C30.7342 31.4176 32.4588 31.3055 33.5301 30.2101L34.2401 29.5001C35.3355 28.4288 35.4476 26.7042 34.5001 25.5001C36.0031 25.3031 37.123 24.0159 37.1101 22.5001V21.5001C37.1014 19.9582 35.9253 18.674 34.3901 18.5301ZM35.0001 22.5301C35.0001 23.0824 34.5524 23.5301 34.0001 23.5301C33.2635 23.5259 32.5979 23.9685 32.3167 24.6493C32.0356 25.3301 32.1951 26.1134 32.7201 26.6301C33.1078 27.0201 33.1078 27.6501 32.7201 28.0401L32.0101 28.7501C31.6201 29.1378 30.9901 29.1378 30.6001 28.7501C30.0873 28.229 29.3112 28.0675 28.6331 28.341C27.955 28.6144 27.508 29.269 27.5001 30.0001C27.5001 30.5524 27.0524 31.0001 26.5001 31.0001H25.5001C24.9478 31.0001 24.5001 30.5524 24.5001 30.0001C24.5043 29.2635 24.0618 28.5979 23.3809 28.3167C22.7001 28.0356 21.9168 28.1951 21.4001 28.7201C21.0101 29.1078 20.3801 29.1078 19.9901 28.7201L19.2801 28.0001C18.8924 27.6101 18.8924 26.9801 19.2801 26.5901C19.7979 26.0724 19.9528 25.2938 19.6726 24.6174C19.3924 23.941 18.7323 23.5 18.0001 23.5001C17.4478 23.5001 17.0001 23.0524 17.0001 22.5001V21.5001C17.0001 20.9478 17.4478 20.5001 18.0001 20.5001C18.7367 20.5043 19.4024 20.0618 19.6835 19.3809C19.9646 18.7001 19.8051 17.9168 19.2801 17.4001C18.899 17.0113 18.899 16.389 19.2801 16.0001L20.0001 15.2801C20.3901 14.8924 21.0201 14.8924 21.4101 15.2801C21.9278 15.7979 22.7064 15.9528 23.3828 15.6726C24.0592 15.3924 24.5002 14.7323 24.5001 14.0001C24.5001 13.4478 24.9478 13.0001 25.5001 13.0001H26.5001C27.0524 13.0001 27.5001 13.4478 27.5001 14.0001C27.4959 14.7367 27.9385 15.4024 28.6193 15.6835C29.3001 15.9646 30.0834 15.8051 30.6001 15.2801C30.9901 14.8924 31.6201 14.8924 32.0101 15.2801L32.7201 15.9901C33.1078 16.3801 33.1078 17.0101 32.7201 17.4001C32.1951 17.9168 32.0356 18.7001 32.3167 19.3809C32.5979 20.0618 33.2635 20.5043 34.0001 20.5001C34.5524 20.5001 35.0001 20.9478 35.0001 21.5001V22.5301Z" fill="#00D3FF"/>
</g>
<defs>
<filter id="filter0_d" x="0" y="0" width="52.1102" height="52.0802" filterUnits="userSpaceOnUse" color-interpolation-filters="sRGB">
<feFlood flood-opacity="0" result="BackgroundImageFix"/>
<feColorMatrix in="SourceAlpha" type="matrix" values="0 0 0 0 0 0 0 0 0 0 0 0 0 0 0 0 0 0 127 0"/>
<feOffset dy="4"/>
<feGaussianBlur stdDeviation="7.5"/>
<feColorMatrix type="matrix" values="0 0 0 0 0 0 0 0 0 0.827451 0 0 0 0 1 0 0 0 0.25 0"/>
<feBlend mode="normal" in2="BackgroundImageFix" result="effect1_dropShadow"/>
<feBlend mode="normal" in="SourceGraphic" in2="effect1_dropShadow" result="shape"/>
</filter>
</defs>
</svg>
