<svg width="52" height="45" viewBox="0 0 52 45" fill="none" xmlns="http://www.w3.org/2000/svg">
<g filter="url(#filter0_d)">
<path fill-rule="evenodd" clip-rule="evenodd" d="M36.6712 11.5037C36.9073 11.7797 37.0241 12.1383 36.9958 12.5005C36.9676 12.8627 36.7966 13.1988 36.5205 13.435L23.3849 24.7077C22.7074 25.2852 21.6933 25.2184 21.0975 24.5571L15.3584 18.2427C15.028 17.8806 14.916 17.3697 15.0645 16.9026C15.2129 16.4355 15.5993 16.083 16.0781 15.978C16.5568 15.873 17.0552 16.0314 17.3855 16.3936L22.4124 21.8724L34.7399 11.3119C35.0211 11.0805 35.3829 10.9707 35.7453 11.0067C36.1077 11.0427 36.4409 11.2215 36.6712 11.5037Z" fill="#00D3FF"/>
</g>
<defs>
<filter id="filter0_d" x="0" y="0" width="52" height="44.1006" filterUnits="userSpaceOnUse" color-interpolation-filters="sRGB">
<feFlood flood-opacity="0" result="BackgroundImageFix"/>
<feColorMatrix in="SourceAlpha" type="matrix" values="0 0 0 0 0 0 0 0 0 0 0 0 0 0 0 0 0 0 127 0"/>
<feOffset dy="4"/>
<feGaussianBlur stdDeviation="7.5"/>
<feColorMatrix type="matrix" values="0 0 0 0 0 0 0 0 0 0.827451 0 0 0 0 1 0 0 0 0.25 0"/>
<feBlend mode="normal" in2="BackgroundImageFix" result="effect1_dropShadow"/>
<feBlend mode="normal" in="SourceGraphic" in2="effect1_dropShadow" result="shape"/>
</filter>
</defs>
</svg>
