<svg width="10" height="7" viewBox="0 0 10 7" fill="none" xmlns="http://www.w3.org/2000/svg">
<path fill-rule="evenodd" clip-rule="evenodd" d="M9.52586 0.547003C9.62604 0.664127 9.67559 0.816254 9.6636 0.969912C9.65162 1.12357 9.57907 1.26617 9.46194 1.36634L3.88926 6.14873C3.60185 6.39373 3.17163 6.3654 2.91884 6.08481L0.484063 3.40598C0.34393 3.25235 0.296401 3.03563 0.359379 2.83746C0.422358 2.63929 0.586276 2.48977 0.789388 2.44522C0.992499 2.40068 1.20395 2.46788 1.34408 2.6215L3.47669 4.94587L8.70652 0.46565C8.82584 0.367499 8.97934 0.320908 9.13309 0.336173C9.28683 0.351439 9.42817 0.427305 9.52586 0.547003Z" fill="white"/>
</svg>
