<svg width="50" height="50" viewBox="0 0 50 50" fill="none" xmlns="http://www.w3.org/2000/svg">
<g filter="url(#filter0_d)">
<path d="M34.0909 21.9091C33.5888 21.9091 33.1818 22.3161 33.1818 22.8182V28.2727C33.1818 28.7748 32.7748 29.1818 32.2727 29.1818H17.7273C17.2252 29.1818 16.8182 28.7748 16.8182 28.2727V13.7273C16.8182 13.2252 17.2252 12.8182 17.7273 12.8182H23.1818C23.6839 12.8182 24.0909 12.4112 24.0909 11.9091C24.0909 11.407 23.6839 11 23.1818 11H17.7273C16.221 11 15 12.221 15 13.7273V28.2727C15 29.779 16.221 31 17.7273 31H32.2727C33.779 31 35 29.779 35 28.2727V22.8182C35 22.3161 34.593 21.9091 34.0909 21.9091Z" fill="#00D3FF"/>
<path d="M32.2725 11H28.6361C28.134 11 27.727 11.407 27.727 11.9091C27.727 12.4112 28.134 12.8182 28.6361 12.8182H31.6452L22.9179 21.5545C22.635 21.77 22.5036 22.1307 22.5819 22.4777C22.6601 22.8247 22.9334 23.0942 23.2815 23.1674C23.6295 23.2407 23.9883 23.1042 24.1998 22.8182L33.1816 13.8545V17.3636C33.1816 17.8657 33.5886 18.2727 34.0907 18.2727C34.5927 18.2727 34.9998 17.8657 34.9998 17.3636V13.7273C34.9998 12.221 33.7787 11 32.2725 11Z" fill="#00D3FF"/>
</g>
<defs>
<filter id="filter0_d" x="0" y="0" width="50" height="50" filterUnits="userSpaceOnUse" color-interpolation-filters="sRGB">
<feFlood flood-opacity="0" result="BackgroundImageFix"/>
<feColorMatrix in="SourceAlpha" type="matrix" values="0 0 0 0 0 0 0 0 0 0 0 0 0 0 0 0 0 0 127 0"/>
<feOffset dy="4"/>
<feGaussianBlur stdDeviation="7.5"/>
<feColorMatrix type="matrix" values="0 0 0 0 0 0 0 0 0 0.827451 0 0 0 0 1 0 0 0 0.25 0"/>
<feBlend mode="normal" in2="BackgroundImageFix" result="effect1_dropShadow"/>
<feBlend mode="normal" in="SourceGraphic" in2="effect1_dropShadow" result="shape"/>
</filter>
</defs>
</svg>
