<svg width="52" height="52" viewBox="0 0 52 52" fill="none" xmlns="http://www.w3.org/2000/svg">
<g filter="url(#filter0_d)">
<path d="M25.9824 32.0173H18.0724C17.0495 32.0346 16.0883 31.5295 15.5224 30.6773C15.1827 30.1905 15.0011 29.6109 15.0024 29.0173V23.0173C14.9734 22.6089 15.212 22.2287 15.5924 22.0773C15.9496 21.8947 16.3834 21.959 16.6724 22.2373C16.8898 22.4333 17.0104 22.7147 17.0024 23.0073V28.9473C16.9936 29.2673 17.1386 29.5722 17.3924 29.7673C17.5575 29.8977 17.762 29.9682 17.9724 29.9673H33.9124C34.204 29.9888 34.4904 29.8815 34.6962 29.6738C34.902 29.4661 35.0066 29.1787 34.9824 28.8873V23.0173C34.9714 22.7002 35.1116 22.3967 35.3601 22.1995C35.6087 22.0022 35.9361 21.9346 36.2424 22.0173C36.6492 22.1301 36.9413 22.4863 36.9724 22.9073C36.9769 22.9505 36.9769 22.9941 36.9724 23.0373V28.9273C36.9724 30.5842 35.6292 31.9273 33.9724 31.9273L25.9824 32.0173Z" fill="#00D3FF"/>
<path d="M25.2122 24.9073V12.1073C25.2004 11.8992 25.2453 11.6918 25.3422 11.5073C25.5676 11.1093 26.0343 10.915 26.4755 11.0353C26.9167 11.1557 27.2201 11.56 27.2122 12.0173V24.9073L27.3622 24.7873L29.8122 22.7873C30.1466 22.5296 30.6068 22.5096 30.9622 22.7373C31.2519 22.904 31.4391 23.2044 31.4612 23.5379C31.4833 23.8714 31.3374 24.1938 31.0722 24.3973L26.9822 27.6673C26.5516 28.019 25.9329 28.019 25.5022 27.6673L21.3722 24.3873C20.9653 24.0435 20.8993 23.441 21.2222 23.0173C21.3889 22.8098 21.6314 22.6773 21.8961 22.6492C22.1607 22.621 22.4256 22.6995 22.6322 22.8673L24.4022 24.2873L25.2122 24.9073Z" fill="#00D3FF"/>
</g>
<defs>
<filter id="filter0_d" x="0" y="0" width="51.9758" height="51.0177" filterUnits="userSpaceOnUse" color-interpolation-filters="sRGB">
<feFlood flood-opacity="0" result="BackgroundImageFix"/>
<feColorMatrix in="SourceAlpha" type="matrix" values="0 0 0 0 0 0 0 0 0 0 0 0 0 0 0 0 0 0 127 0"/>
<feOffset dy="4"/>
<feGaussianBlur stdDeviation="7.5"/>
<feColorMatrix type="matrix" values="0 0 0 0 0 0 0 0 0 0.827451 0 0 0 0 1 0 0 0 0.25 0"/>
<feBlend mode="normal" in2="BackgroundImageFix" result="effect1_dropShadow"/>
<feBlend mode="normal" in="SourceGraphic" in2="effect1_dropShadow" result="shape"/>
</filter>
</defs>
</svg>
