<svg width="23" height="23" viewBox="0 0 23 23" fill="none" xmlns="http://www.w3.org/2000/svg">
<path fill-rule="evenodd" clip-rule="evenodd" d="M11 7.00012C8.79086 7.00012 7 8.79098 7 11.0001C7 13.2093 8.79086 15.0001 11 15.0001C13.2091 15.0001 15 13.2093 15 11.0001C15 9.93926 14.5786 8.92184 13.8284 8.17169C13.0783 7.42155 12.0609 7.00012 11 7.00012ZM11 13.0001C9.89543 13.0001 9 12.1047 9 11.0001C9 9.89555 9.89543 9.00012 11 9.00012C12.1046 9.00012 13 9.89555 13 11.0001C13 12.1047 12.1046 13.0001 11 13.0001Z" fill="#303251"/>
<path fill-rule="evenodd" clip-rule="evenodd" d="M19.3901 7.53011C20.3077 6.33498 20.1964 4.64466 19.1301 3.58011L18.4201 2.87011C17.3488 1.7747 15.6242 1.6626 14.4201 2.61011C14.2272 1.13714 12.9854 0.0271499 11.5001 0.000109573H10.5001C8.98433 -0.0127466 7.69711 1.10713 7.50011 2.61011C6.30498 1.69254 4.61466 1.8038 3.55011 2.87011L2.84011 3.58011C1.7738 4.64466 1.66254 6.33498 2.58011 7.53011C1.10041 7.73933 0.000335985 9.0057 0.000109573 10.5001V11.5001C-0.0127466 13.0159 1.10713 14.3031 2.61011 14.5001C1.6626 15.7042 1.7747 17.4288 2.87011 18.5001L3.58011 19.2101C4.64466 20.2764 6.33498 20.3877 7.53011 19.4701C7.72711 20.9731 9.01433 22.093 10.5301 22.0801H11.5301C13.0459 22.093 14.3331 20.9731 14.5301 19.4701C15.7342 20.4176 17.4588 20.3055 18.5301 19.2101L19.2401 18.5001C20.3355 17.4288 20.4476 15.7042 19.5001 14.5001C21.0031 14.3031 22.123 13.0159 22.1101 11.5001V10.5001C22.1014 8.95821 20.9253 7.674 19.3901 7.53011ZM20.0001 11.5301C20.0001 12.0824 19.5524 12.5301 19.0001 12.5301C18.2635 12.5259 17.5979 12.9685 17.3167 13.6493C17.0356 14.3301 17.1951 15.1134 17.7201 15.6301C18.1078 16.0201 18.1078 16.6501 17.7201 17.0401L17.0101 17.7501C16.6201 18.1378 15.9901 18.1378 15.6001 17.7501C15.0873 17.229 14.3112 17.0675 13.6331 17.341C12.955 17.6144 12.508 18.269 12.5001 19.0001C12.5001 19.5524 12.0524 20.0001 11.5001 20.0001H10.5001C9.94782 20.0001 9.50011 19.5524 9.50011 19.0001C9.50434 18.2635 9.06177 17.5979 8.38092 17.3167C7.70008 17.0356 6.91679 17.1951 6.40011 17.7201C6.01007 18.1078 5.38015 18.1078 4.99011 17.7201L4.28011 17.0001C3.89239 16.6101 3.89239 15.9801 4.28011 15.5901C4.79788 15.0724 4.95279 14.2938 4.67259 13.6174C4.39239 12.941 3.73227 12.5 3.00011 12.5001C2.44782 12.5001 2.00011 12.0524 2.00011 11.5001V10.5001C2.00011 9.94782 2.44782 9.50011 3.00011 9.50011C3.73669 9.50434 4.40237 9.06177 4.68349 8.38092C4.96461 7.70008 4.8051 6.91679 4.28011 6.40011C3.89897 6.01127 3.89897 5.38895 4.28011 5.00011L5.00011 4.28011C5.39015 3.89239 6.02007 3.89239 6.41011 4.28011C6.92777 4.79788 7.70638 4.95279 8.3828 4.67259C9.05923 4.39239 9.50022 3.73227 9.50011 3.00011C9.50011 2.44782 9.94782 2.00011 10.5001 2.00011H11.5001C12.0524 2.00011 12.5001 2.44782 12.5001 3.00011C12.4959 3.73669 12.9385 4.40237 13.6193 4.68349C14.3001 4.96461 15.0834 4.8051 15.6001 4.28011C15.9901 3.89239 16.6201 3.89239 17.0101 4.28011L17.7201 4.99011C18.1078 5.38015 18.1078 6.01007 17.7201 6.40011C17.1951 6.91679 17.0356 7.70008 17.3167 8.38092C17.5979 9.06177 18.2635 9.50434 19.0001 9.50011C19.5524 9.50011 20.0001 9.94782 20.0001 10.5001V11.5301Z" fill="#303251"/>
</svg>
