<svg width="47" height="42" viewBox="0 0 47 42" fill="none" xmlns="http://www.w3.org/2000/svg">
<g filter="url(#filter0_d)">
<path fill-rule="evenodd" clip-rule="evenodd" d="M29.505 11H29.3025H17.1975H16.995C15.8529 11.1303 14.9926 12.1005 15 13.25V20.75C15 21.9926 16.0074 23 17.25 23H29.25C30.4927 23 31.5 21.9926 31.5 20.75V13.25C31.5075 12.1005 30.6472 11.1303 29.505 11ZM29.1606 12.5L24.0006 17.66C23.7081 17.9508 23.2357 17.9508 22.9431 17.66L17.7831 12.5H29.1606ZM29.2499 21.5C29.6642 21.5 29.9999 21.1642 29.9999 20.75V13.5575L24.8399 18.7175C23.9615 19.5949 22.5384 19.5949 21.6599 18.7175L16.4999 13.5575V20.75C16.4999 21.1642 16.8357 21.5 17.2499 21.5H29.2499Z" fill="#00D3FF"/>
</g>
<defs>
<filter id="filter0_d" x="0" y="0" width="46.5001" height="42" filterUnits="userSpaceOnUse" color-interpolation-filters="sRGB">
<feFlood flood-opacity="0" result="BackgroundImageFix"/>
<feColorMatrix in="SourceAlpha" type="matrix" values="0 0 0 0 0 0 0 0 0 0 0 0 0 0 0 0 0 0 127 0"/>
<feOffset dy="4"/>
<feGaussianBlur stdDeviation="7.5"/>
<feColorMatrix type="matrix" values="0 0 0 0 0 0 0 0 0 0.827451 0 0 0 0 1 0 0 0 0.25 0"/>
<feBlend mode="normal" in2="BackgroundImageFix" result="effect1_dropShadow"/>
<feBlend mode="normal" in="SourceGraphic" in2="effect1_dropShadow" result="shape"/>
</filter>
</defs>
</svg>
