<svg width="19" height="18" viewBox="0 0 19 18" fill="none" xmlns="http://www.w3.org/2000/svg">
<path d="M12.0087 15.0851C11.7796 15.0851 11.579 14.9991 11.4072 14.8273C11.0634 14.4835 11.0634 13.9392 11.4072 13.6241L15.9619 9.06946L11.4072 4.51477C11.0634 4.17102 11.0634 3.62675 11.4072 3.31165C11.7509 2.9679 12.2952 2.9679 12.6103 3.31165L17.7665 8.4679C18.1103 8.81164 18.1103 9.35592 17.7665 9.67102L12.6103 14.8273C12.4671 14.9991 12.2379 15.0851 12.0087 15.0851Z" fill="#CE4040"/>
<path d="M1.69618 0.475707L8.97223 0.475708C9.45921 0.475708 9.83161 0.848103 9.83161 1.33508C9.83161 1.82206 9.45921 2.19446 8.97223 2.19446L2.55556 2.19446L2.55556 15.9445L8.97223 15.9445C9.45921 15.9445 9.8316 16.3169 9.8316 16.8038C9.8316 17.2908 9.45921 17.6632 8.97223 17.6632L1.69618 17.6632C1.2092 17.6632 0.836807 17.2908 0.836807 16.8038L0.836809 1.33508C0.836809 0.848102 1.20921 0.475707 1.69618 0.475707Z" fill="#CE4040"/>
<path d="M16.2483 9.92887L6.07898 9.92886C5.592 9.92886 5.2196 9.55647 5.2196 9.06949C5.2196 8.58251 5.592 8.21011 6.07898 8.21011L16.2483 8.21012C16.7352 8.21012 17.1076 8.58251 17.1076 9.06949C17.1076 9.55647 16.7352 9.92887 16.2483 9.92887Z" fill="#CE4040"/>
</svg>
