<svg width="18" height="19" viewBox="0 0 18 19" fill="none" xmlns="http://www.w3.org/2000/svg">
<path d="M0.354137 17.6459C-0.118046 17.1709 -0.118046 16.4037 0.354137 15.9287L15.8571 0.425724C16.1548 0.0781839 16.6221 -0.0731997 17.0669 0.0338134C17.5118 0.140826 17.8592 0.488175 17.9662 0.933049C18.0732 1.37792 17.9218 1.84524 17.5743 2.14287L2.07128 17.6459C1.59628 18.118 0.829136 18.118 0.354137 17.6459Z" fill="#3D3856"/>
<path d="M0.354137 0.42567C0.829136 -0.0465123 1.59628 -0.0465123 2.07128 0.42567L17.5743 15.9287C17.9218 16.2263 18.0732 16.6936 17.9662 17.1385C17.8592 17.5834 17.5118 17.9307 17.0669 18.0377C16.6221 18.1447 16.1548 17.9933 15.8571 17.6458L0.354137 2.14281C-0.118046 1.66781 -0.118046 0.90067 0.354137 0.42567Z" fill="#3D3856"/>
</svg>
