<svg width="120" height="77" viewBox="0 0 120 77" fill="none" xmlns="http://www.w3.org/2000/svg">
<g opacity="0.1">
<path fill-rule="evenodd" clip-rule="evenodd" d="M16.3636 0H103.636C112.674 0 120 7.32625 120 16.3636V60C120 69.0374 112.674 76.3636 103.636 76.3636H16.3636C7.32625 76.3636 0 69.0374 0 60V16.3636C0 7.32625 7.32625 0 16.3636 0ZM32.2347 65.4545H87.762C89.666 54.5612 98.196 46.0312 109.089 44.1272V32.2363C98.196 30.3323 89.666 21.8024 87.762 10.909H32.2347C30.3307 21.8024 21.8008 30.3323 10.9075 32.2363V44.1272C21.8008 46.0312 30.3307 54.5612 32.2347 65.4545ZM103.641 10.909C106.653 10.909 109.095 13.3511 109.095 16.3636V21.109C104.233 19.5795 100.425 15.7712 98.8954 10.909H103.641ZM10.9075 21.109C15.7696 19.5795 19.578 15.7712 21.1075 10.909H16.362C13.3495 10.909 10.9075 13.3511 10.9075 16.3636V21.109ZM16.362 65.4545C13.3495 65.4545 10.9075 63.0124 10.9075 59.9999V55.2545C15.7696 56.784 19.578 60.5923 21.1075 65.4545H16.362ZM109.095 55.2545C104.233 56.784 100.425 60.5923 98.8954 65.4545H103.641C106.653 65.4545 109.095 63.0124 109.095 59.9999V55.2545Z" fill="#6FB43E"/>
<path fill-rule="evenodd" clip-rule="evenodd" d="M45.4902 36.6545C45.4902 27.6171 52.8165 20.2908 61.8539 20.2908C70.8913 20.2908 78.2175 27.6171 78.2175 36.6545C78.2175 45.6919 70.8913 53.0181 61.8539 53.0181C52.8165 53.0181 45.4902 45.6919 45.4902 36.6545ZM56.4014 36.6545C56.4014 39.667 58.8435 42.1091 61.856 42.1091C64.8685 42.1091 67.3105 39.667 67.3105 36.6545C67.3105 33.6421 64.8685 31.2 61.856 31.2C58.8435 31.2 56.4014 33.6421 56.4014 36.6545Z" fill="#6FB43E"/>
</g>
<path fill-rule="evenodd" clip-rule="evenodd" d="M27.8636 17H75.1364C80.0316 17 84 20.9684 84 25.8636V49.5C84 54.3953 80.0316 58.3636 75.1364 58.3636H27.8636C22.9684 58.3636 19 54.3953 19 49.5V25.8636C19 20.9684 22.9684 17 27.8636 17ZM36.4607 52.4545H66.5379C67.5693 46.554 72.1897 41.9336 78.0902 40.9023V34.4613C72.1897 33.43 67.5693 28.8096 66.5379 22.9091H36.4607C35.4293 28.8096 30.8089 33.43 24.9084 34.4613V40.9023C30.8089 41.9336 35.4293 46.554 36.4607 52.4545ZM75.1396 22.9091C76.7713 22.9091 78.0941 24.2319 78.0941 25.8636V28.4341C75.4605 27.6056 73.3976 25.5428 72.5691 22.9091H75.1396ZM24.9084 28.4341C27.5421 27.6056 29.6049 25.5428 30.4334 22.9091H27.8629C26.2312 22.9091 24.9084 24.2319 24.9084 25.8636V28.4341ZM27.8629 52.4545C26.2312 52.4545 24.9084 51.1317 24.9084 49.5V46.9295C27.5421 47.758 29.6049 49.8208 30.4334 52.4545H27.8629ZM78.0941 46.9295C75.4605 47.758 73.3976 49.8208 72.5691 52.4545H75.1396C76.7713 52.4545 78.0941 51.1317 78.0941 49.5V46.9295Z" fill="#6FB43E"/>
<path fill-rule="evenodd" clip-rule="evenodd" d="M43.6406 36.8545C43.6406 31.9593 47.609 27.9909 52.5043 27.9909C57.3995 27.9909 61.3679 31.9593 61.3679 36.8545C61.3679 41.7498 57.3995 45.7182 52.5043 45.7182C47.609 45.7182 43.6406 41.7498 43.6406 36.8545ZM49.55 36.8546C49.55 38.4863 50.8728 39.8091 52.5045 39.8091C54.1363 39.8091 55.4591 38.4863 55.4591 36.8546C55.4591 35.2228 54.1363 33.9 52.5045 33.9C50.8728 33.9 49.55 35.2228 49.55 36.8546Z" fill="#6FB43E"/>
</svg>
