<svg width="54" height="54" viewBox="0 0 54 54" fill="none" xmlns="http://www.w3.org/2000/svg">
<g filter="url(#filter0_d)">
<path fill-rule="evenodd" clip-rule="evenodd" d="M37.56 15.5355H36.012C36.0742 15.3645 36.1185 15.1876 36.144 15.0075C36.3702 13.5709 35.6761 12.1459 34.4057 11.4383C33.1352 10.7307 31.5582 10.8909 30.456 11.8395L26.664 15.0795L22.884 11.8395C21.7818 10.8909 20.2048 10.7307 18.9343 11.4383C17.6639 12.1459 16.9698 13.5709 17.196 15.0075C17.2215 15.1876 17.2658 15.3645 17.328 15.5355H16.44C15.6447 15.5355 15 16.1802 15 16.9755V21.2955C15 22.0907 15.6447 22.7355 16.44 22.7355H17.4V31.1355C17.4 33.1237 19.0118 34.7355 21 34.7355H33C34.9882 34.7355 36.6 33.1237 36.6 31.1355V22.7355H37.56C38.3553 22.7355 39 22.0907 39 21.2955V16.9755C39 16.1802 38.3553 15.5355 37.56 15.5355ZM32.0153 13.6635C32.3732 13.3505 32.8949 13.3119 33.295 13.5686C33.6951 13.8253 33.8774 14.3156 33.7422 14.7713C33.6069 15.2271 33.1867 15.5386 32.7113 15.5355H29.8193L32.0153 13.6635ZM20.1853 13.5017C19.8065 13.6743 19.5626 14.0512 19.5602 14.4675C19.5602 15.0573 20.0384 15.5355 20.6282 15.5355H23.5202L21.3242 13.6635C21.0085 13.3922 20.564 13.3291 20.1853 13.5017ZM34.2004 31.1355C34.2004 31.7982 33.6631 32.3355 33.0004 32.3355H21.0004C20.3376 32.3355 19.8004 31.7982 19.8004 31.1355V22.7355H34.2004V31.1355ZM17.4004 20.3355H36.6004V17.9355H17.4004V20.3355Z" fill="#00D3FF"/>
</g>
<defs>
<filter id="filter0_d" x="0" y="0" width="54" height="53.7355" filterUnits="userSpaceOnUse" color-interpolation-filters="sRGB">
<feFlood flood-opacity="0" result="BackgroundImageFix"/>
<feColorMatrix in="SourceAlpha" type="matrix" values="0 0 0 0 0 0 0 0 0 0 0 0 0 0 0 0 0 0 127 0"/>
<feOffset dy="4"/>
<feGaussianBlur stdDeviation="7.5"/>
<feColorMatrix type="matrix" values="0 0 0 0 0 0 0 0 0 0.827451 0 0 0 0 1 0 0 0 0.25 0"/>
<feBlend mode="normal" in2="BackgroundImageFix" result="effect1_dropShadow"/>
<feBlend mode="normal" in="SourceGraphic" in2="effect1_dropShadow" result="shape"/>
</filter>
</defs>
</svg>
