<svg width="12" height="20" viewBox="0 0 12 20" fill="none" xmlns="http://www.w3.org/2000/svg">
<path fill-rule="evenodd" clip-rule="evenodd" d="M8.19948 5.16132C8.19948 3.98293 7.20649 3.02472 5.98573 3.02472C4.76592 3.02472 3.77197 3.98293 3.77197 5.16132C3.77197 6.33878 4.76592 7.29761 5.98573 7.29761C7.20649 7.29761 8.19948 6.33878 8.19948 5.16132ZM11.3319 5.16132C11.3319 8.00662 8.93449 10.3211 5.98527 10.3211C3.03669 10.3211 0.638672 8.00662 0.638672 5.16132C0.638672 2.31509 3.03669 0 5.98527 0C8.93449 0 11.3319 2.31509 11.3319 5.16132ZM11.268 13.2925C10.3012 13.8786 9.25162 14.2943 8.1633 14.5336L11.1522 17.419C11.7645 18.0088 11.7645 18.9667 11.1522 19.5572C10.5405 20.1476 9.54914 20.1476 8.93811 19.5572L5.99945 16.7218L3.06335 19.5572C2.7572 19.8521 2.35603 19.9997 1.95487 19.9997C1.55435 19.9997 1.15382 19.8521 0.847672 19.5572C0.236011 18.9667 0.236011 18.0095 0.847032 17.419L3.83624 14.5336C2.74792 14.2943 1.6983 13.878 0.731546 13.2925C-8.06627e-05 12.8472 -0.219857 11.9143 0.241129 11.2075C0.700835 10.4997 1.66759 10.2866 2.4005 10.7319C4.5893 12.061 7.40896 12.0613 9.59904 10.7319C10.3319 10.2866 11.2984 10.4997 11.7591 11.2075C12.22 11.9137 11.9996 12.8472 11.268 13.2925Z" fill="white"/>
<path fill-rule="evenodd" clip-rule="evenodd" d="M8.19948 5.16132C8.19948 3.98293 7.20649 3.02472 5.98573 3.02472C4.76592 3.02472 3.77197 3.98293 3.77197 5.16132C3.77197 6.33878 4.76592 7.29761 5.98573 7.29761C7.20649 7.29761 8.19948 6.33878 8.19948 5.16132ZM11.3319 5.16132C11.3319 8.00662 8.93449 10.3211 5.98527 10.3211C3.03669 10.3211 0.638672 8.00662 0.638672 5.16132C0.638672 2.31509 3.03669 0 5.98527 0C8.93449 0 11.3319 2.31509 11.3319 5.16132ZM11.268 13.2925C10.3012 13.8786 9.25162 14.2943 8.1633 14.5336L11.1522 17.419C11.7645 18.0088 11.7645 18.9667 11.1522 19.5572C10.5405 20.1476 9.54914 20.1476 8.93811 19.5572L5.99945 16.7218L3.06335 19.5572C2.7572 19.8521 2.35603 19.9997 1.95487 19.9997C1.55435 19.9997 1.15382 19.8521 0.847672 19.5572C0.236011 18.9667 0.236011 18.0095 0.847032 17.419L3.83624 14.5336C2.74792 14.2943 1.6983 13.878 0.731546 13.2925C-8.06627e-05 12.8472 -0.219857 11.9143 0.241129 11.2075C0.700835 10.4997 1.66759 10.2866 2.4005 10.7319C4.5893 12.061 7.40896 12.0613 9.59904 10.7319C10.3319 10.2866 11.2984 10.4997 11.7591 11.2075C12.22 11.9137 11.9996 12.8472 11.268 13.2925Z" fill="url(#paint0_linear)"/>
<defs>
<linearGradient id="paint0_linear" x1="6" y1="0" x2="6" y2="20" gradientUnits="userSpaceOnUse">
<stop stop-color="#FFBE8E"/>
<stop offset="1" stop-color="#F67A34"/>
</linearGradient>
</defs>
</svg>
