<svg width="42" height="48" viewBox="0 0 42 48" fill="none" xmlns="http://www.w3.org/2000/svg">
<g>
<path fill-rule="evenodd" clip-rule="evenodd" d="M21.4313 28.9546C24.3539 28.5192 26.495 25.9758 26.4257 23.0217V16.0279C26.4257 15.5772 26.0603 15.2118 25.6096 15.2118C25.1589 15.2118 24.7936 15.5772 24.7936 16.0279V23.2421C24.7938 24.4675 24.2433 25.6282 23.2941 26.4033C22.345 27.1784 21.0977 27.4859 19.8971 27.2409C17.9624 26.8043 16.5996 25.0701 16.6328 23.087V15.0813C16.6321 14.3515 16.957 13.6595 17.5189 13.1939C18.0808 12.7283 18.8211 12.5376 19.538 12.6738C20.7219 12.9315 21.5569 13.9924 21.5292 15.2037V21.6099C21.5292 22.0606 21.1639 22.426 20.7132 22.426C20.2624 22.426 19.8971 22.0606 19.8971 21.6099V16.7134C19.8971 16.2627 19.5317 15.8973 19.081 15.8973C18.6303 15.8973 18.2649 16.2627 18.2649 16.7134V21.6099C18.2519 22.3468 18.5716 23.0502 19.1351 23.5251C19.6987 24 20.4462 24.1958 21.1702 24.0581C22.3715 23.8008 23.2125 22.715 23.1614 21.4875V15.0813C23.1616 13.8558 22.6111 12.6952 21.662 11.92C20.7128 11.1449 19.4656 10.8374 18.2649 11.0825C16.3302 11.5191 14.9674 13.2533 15.0006 15.2363V23.2421C14.9875 24.8902 15.6869 26.4636 16.9191 27.5582C18.1513 28.6528 19.7962 29.1619 21.4313 28.9546Z" fill="url(#paint0_linear)"/>
</g>
<defs>
<filter id="filter0_d" x="0" y="0" width="41.4273" height="48" filterUnits="userSpaceOnUse" color-interpolation-filters="sRGB">
<feFlood flood-opacity="0" result="BackgroundImageFix"/>
<feColorMatrix in="SourceAlpha" type="matrix" values="0 0 0 0 0 0 0 0 0 0 0 0 0 0 0 0 0 0 127 0"/>
<feOffset dy="4"/>
<feGaussianBlur stdDeviation="7.5"/>
<feColorMatrix type="matrix" values="0 0 0 0 0 0 0 0 0 0.827451 0 0 0 0 1 0 0 0 0.25 0"/>
<feBlend mode="normal" in2="BackgroundImageFix" result="effect1_dropShadow"/>
<feBlend mode="normal" in="SourceGraphic" in2="effect1_dropShadow" result="shape"/>
</filter>
<linearGradient id="paint0_linear" x1="15.4081" y1="20.2571" x2="25.9376" y2="20.2571" gradientUnits="userSpaceOnUse">
<stop stop-color="#0085FF"/>
<stop offset="1" stop-color="#00D3FF"/>
</linearGradient>
</defs>
</svg>
