<svg width="250" height="250" viewBox="0 0 250 250" fill="none" xmlns="http://www.w3.org/2000/svg">
<path d="M117.645 245.259C117.492 247.749 115.349 249.652 112.866 249.41C84.9354 246.686 58.6824 234.633 38.385 215.127C18.0877 195.62 5.00129 169.867 1.17042 142.066C0.829935 139.595 2.64645 137.378 5.12798 137.127C7.60952 136.876 9.81571 138.686 10.1631 141.156C13.7738 166.824 25.8916 190.593 44.6437 208.614C63.3957 226.636 87.627 237.8 113.419 240.388C115.9 240.637 117.797 242.77 117.645 245.259Z" fill="url(#paint0_linear)"/>
<mask id="path-2-inside-1" fill="white">
<path d="M117.645 245.259C117.492 247.749 115.349 249.652 112.866 249.41C82.8253 246.481 54.7985 232.768 34.0284 210.727C12.2239 187.589 0.0556725 157.011 0.000177632 125.218C-0.0553019 93.4248 12.0061 62.8051 33.7297 39.5908C54.4227 17.4777 82.4015 3.66723 112.432 0.633334C114.914 0.382628 117.064 2.27828 117.225 4.76728C117.386 7.25629 115.496 9.39545 113.016 9.65313C85.278 12.5342 59.448 25.3268 40.3248 45.7623C20.1709 67.2992 8.981 95.7064 9.03248 125.202C9.08396 154.698 20.3729 183.066 40.6019 204.533C59.7963 224.901 85.6708 237.604 113.418 240.388C115.9 240.637 117.797 242.77 117.645 245.259Z"/>
</mask>
<path d="M117.645 245.259C117.492 247.749 115.349 249.652 112.866 249.41C82.8253 246.481 54.7985 232.768 34.0284 210.727C12.2239 187.589 0.0556725 157.011 0.000177632 125.218C-0.0553019 93.4248 12.0061 62.8051 33.7297 39.5908C54.4227 17.4777 82.4015 3.66723 112.432 0.633334C114.914 0.382628 117.064 2.27828 117.225 4.76728C117.386 7.25629 115.496 9.39545 113.016 9.65313C85.278 12.5342 59.448 25.3268 40.3248 45.7623C20.1709 67.2992 8.981 95.7064 9.03248 125.202C9.08396 154.698 20.3729 183.066 40.6019 204.533C59.7963 224.901 85.6708 237.604 113.418 240.388C115.9 240.637 117.797 242.77 117.645 245.259Z" stroke="url(#paint1_linear)" stroke-width="4" mask="url(#path-2-inside-1)"/>
<defs>
<linearGradient id="paint0_linear" x1="140.741" y1="-1.27027e-05" x2="140.741" y2="243.981" gradientUnits="userSpaceOnUse">
<stop stop-color="#9E1C1C"/>
<stop offset="1" stop-color="#FF5E5E"/>
</linearGradient>
<linearGradient id="paint1_linear" x1="140.741" y1="-1.27027e-05" x2="140.741" y2="243.981" gradientUnits="userSpaceOnUse">
<stop stop-color="#9E1C1C"/>
<stop offset="1" stop-color="#FF5E5E"/>
</linearGradient>
</defs>
</svg>
