<svg width="23" height="22" viewBox="0 0 23 22" fill="none" xmlns="http://www.w3.org/2000/svg">
<path fill-rule="evenodd" clip-rule="evenodd" d="M19.8485 0H3.84851C2.19166 0 0.848511 1.34315 0.848511 3V17C0.848511 18.6569 2.19166 20 3.84851 20H5.84851V21C5.84851 21.5523 6.29623 22 6.84851 22C7.4008 22 7.84851 21.5523 7.84851 21V20H15.8485V21C15.8485 21.5523 16.2962 22 16.8485 22C17.4008 22 17.8485 21.5523 17.8485 21V20H19.8485C21.5054 20 22.8485 18.6569 22.8485 17V3C22.8485 1.34315 21.5054 0 19.8485 0ZM20.8485 17C20.8485 17.5523 20.4008 18 19.8485 18H3.84851C3.29623 18 2.84851 17.5523 2.84851 17V3C2.84851 2.44772 3.29623 2 3.84851 2H19.8485C20.4008 2 20.8485 2.44772 20.8485 3V17Z" fill="#00D3FF"/>
<path d="M12.1985 12C13.3031 12 14.1985 11.1046 14.1985 10C14.1985 8.89543 13.3031 8 12.1985 8C11.0939 8 10.1985 8.89543 10.1985 10C10.1985 11.1046 11.0939 12 12.1985 12Z" fill="#00D3FF"/>
<path fill-rule="evenodd" clip-rule="evenodd" d="M17.0885 13.47C18.5621 11.3913 18.5621 8.60866 17.0885 6.53L18.1985 5.41C18.4839 5.16561 18.6082 4.78188 18.5203 4.41658C18.4325 4.05128 18.1472 3.76606 17.7819 3.67819C17.4166 3.59032 17.0329 3.71462 16.7885 4L15.6685 5.11C13.5899 3.6364 10.8072 3.6364 8.72851 5.11L7.60851 4C7.21175 3.66022 6.62032 3.68307 6.25095 4.05244C5.88158 4.42181 5.85874 5.01324 6.19851 5.41L7.30851 6.53C5.83492 8.60866 5.83492 11.3913 7.30851 13.47L6.19851 14.59C5.91314 14.8344 5.78883 15.2181 5.8767 15.5834C5.96458 15.9487 6.24979 16.2339 6.61509 16.3218C6.98039 16.4097 7.36412 16.2854 7.60851 16L8.72851 14.89C10.8072 16.3636 13.5899 16.3636 15.6685 14.89L16.7885 16C17.0329 16.2854 17.4166 16.4097 17.7819 16.3218C18.1472 16.2339 18.4325 15.9487 18.5203 15.5834C18.6082 15.2181 18.4839 14.8344 18.1985 14.59L17.0885 13.47ZM8.19851 10C8.19851 7.79086 9.98937 6 12.1985 6C14.4077 6 16.1985 7.79086 16.1985 10C16.1985 12.2091 14.4077 14 12.1985 14C9.98937 14 8.19851 12.2091 8.19851 10Z" fill="#00D3FF"/>
</svg>
