<svg width="19" height="19" viewBox="0 0 19 19" fill="none" xmlns="http://www.w3.org/2000/svg">
<path fill-rule="evenodd" clip-rule="evenodd" d="M18.0008 1.67207e-05H11.0008C10.8692 -0.000744172 10.7387 0.0244709 10.6169 0.0742355C10.495 0.124 10.3842 0.197374 10.2908 0.290056L0.290802 10.2901C0.104551 10.4774 0 10.7308 0 10.995C0 11.2592 0.104551 11.5126 0.290802 11.7L7.2908 18.7C7.47816 18.8862 7.7316 18.9909 7.99579 18.9909C8.25997 18.9909 8.51344 18.8862 8.70081 18.7L11.7008 15.7C11.8871 15.5126 11.9916 15.2592 11.9916 14.995C11.9916 14.7308 11.8871 14.4774 11.7008 14.2901L7.70081 10.2901C7.5095 10.1262 7.26343 10.0406 7.01175 10.0503C6.76007 10.06 6.52133 10.1643 6.34323 10.3424C6.16514 10.5205 6.06081 10.7593 6.05109 11.011C6.04137 11.2627 6.12698 11.5087 6.2908 11.7L9.58078 14.99L7.99078 16.58L2.40079 10.99L11.4008 1.99001H17.0008V7.57997L12.7908 11.7901C12.627 11.9814 12.5414 12.2273 12.5511 12.479C12.5608 12.7307 12.6651 12.9695 12.8432 13.1476C13.0213 13.3257 13.2601 13.43 13.5117 13.4397C13.7634 13.4494 14.0095 13.3638 14.2008 13.2L18.7008 8.69997C18.7935 8.60653 18.8668 8.49576 18.9166 8.37392C18.9663 8.25208 18.9915 8.12161 18.9908 7.99001V0.990007C18.9882 0.72825 18.883 0.477963 18.6979 0.292863C18.5128 0.107764 18.2626 0.00262146 18.0008 1.67207e-05ZM15.0008 5.00002C15.0008 4.80224 14.9422 4.60892 14.8323 4.44447C14.7224 4.28003 14.5662 4.15188 14.3835 4.07619C14.2008 4.0005 13.9997 3.9806 13.8057 4.01918C13.6117 4.05777 13.4336 4.15301 13.2937 4.29286C13.1538 4.43272 13.0586 4.61097 13.02 4.80495C12.9814 4.99893 13.0012 5.19998 13.0769 5.38271C13.1526 5.56543 13.2808 5.72156 13.4452 5.83144C13.6097 5.94132 13.803 6.00002 14.0008 6.00002C14.266 6.00002 14.5203 5.89471 14.7079 5.70717C14.8954 5.51963 15.0008 5.26523 15.0008 5.00002Z" fill="#00D3FF"/>
</svg>
