<svg width="36" height="47" viewBox="0 0 36 47" fill="none" xmlns="http://www.w3.org/2000/svg">
<path opacity="0.25" d="M25.0607 0.939339C24.4749 0.353554 23.5251 0.353554 22.9393 0.939339L13.3934 10.4853C12.8076 11.0711 12.8076 12.0208 13.3934 12.6066C13.9792 13.1924 14.9289 13.1924 15.5147 12.6066L24 4.12132L32.4853 12.6066C33.0711 13.1924 34.0208 13.1924 34.6066 12.6066C35.1924 12.0208 35.1924 11.0711 34.6066 10.4853L25.0607 0.939339ZM25.5 47L25.5 2L22.5 2L22.5 47L25.5 47Z" fill="#5CA745"/>
<path opacity="0.15" d="M8.70711 21.2929C8.31658 20.9024 7.68342 20.9024 7.29289 21.2929L0.928931 27.6569C0.538407 28.0474 0.538407 28.6805 0.928931 29.0711C1.31946 29.4616 1.95262 29.4616 2.34315 29.0711L8 23.4142L13.6569 29.0711C14.0474 29.4616 14.6805 29.4616 15.0711 29.0711C15.4616 28.6805 15.4616 28.0474 15.0711 27.6569L8.70711 21.2929ZM9 47L9 22L7 22L7 47L9 47Z" fill="#5CA745"/>
</svg>
