<svg width="36" height="47" viewBox="0 0 36 47" fill="none" xmlns="http://www.w3.org/2000/svg">
<path opacity="0.25" d="M10.9393 46.0607C11.5251 46.6464 12.4749 46.6464 13.0607 46.0607L22.6066 36.5147C23.1924 35.9289 23.1924 34.9792 22.6066 34.3934C22.0208 33.8076 21.0711 33.8076 20.4853 34.3934L12 42.8787L3.51472 34.3934C2.92893 33.8076 1.97918 33.8076 1.3934 34.3934C0.80761 34.9792 0.80761 35.9289 1.3934 36.5147L10.9393 46.0607ZM10.5 -6.55671e-08L10.5 45L13.5 45L13.5 6.55671e-08L10.5 -6.55671e-08Z" fill="#EE3F3F"/>
<path opacity="0.15" d="M27.2929 25.7071C27.6834 26.0976 28.3166 26.0976 28.7071 25.7071L35.0711 19.3431C35.4616 18.9526 35.4616 18.3195 35.0711 17.9289C34.6805 17.5384 34.0474 17.5384 33.6569 17.9289L28 23.5858L22.3431 17.9289C21.9526 17.5384 21.3195 17.5384 20.9289 17.9289C20.5384 18.3195 20.5384 18.9526 20.9289 19.3431L27.2929 25.7071ZM27 -4.37114e-08L27 25L29 25L29 4.37114e-08L27 -4.37114e-08Z" fill="#EE3F3F"/>
</svg>
