<svg width="16" height="14" viewBox="0 0 16 14" fill="none" xmlns="http://www.w3.org/2000/svg">
<path d="M7.94887 13.0726C7.72981 13.0726 7.47945 12.9788 7.32297 12.8223L4.03702 9.78668H0.938843C0.406832 9.78668 0 9.37985 0 8.84784V4.21622C0 3.68421 0.406832 3.27737 0.938843 3.27737H4.03702L7.32297 0.241782C7.60463 -0.00857593 7.98016 -0.0711654 8.32441 0.0853084C8.66865 0.241782 8.88771 0.586025 8.88771 0.930267V12.1338C8.88771 12.5093 8.66865 12.8536 8.32441 12.9788C8.19923 13.0726 8.07405 13.0726 7.94887 13.0726ZM1.87769 7.94029H4.38127C4.63163 7.94029 4.85069 8.03418 5.00716 8.19065L6.97873 10.0057V3.05831L5.00716 4.87341C4.81939 5.02988 4.60033 5.12377 4.38127 5.12377H1.87769V7.94029Z" fill="#00D3FF"/>
<path d="M11.4538 9.60017C11.3599 9.60017 11.266 9.60017 11.1721 9.56888C10.6714 9.41241 10.3898 8.88039 10.5462 8.37968C10.9218 7.19048 10.8592 5.90739 10.3898 4.78078C10.202 4.31136 10.421 3.74805 10.8905 3.56029C11.3599 3.37252 11.9232 3.59158 12.111 4.061C12.7682 5.59445 12.8307 7.34695 12.33 8.94298C12.2361 9.34982 11.8606 9.60017 11.4538 9.60017Z" fill="#00D3FF"/>
<path d="M13.9887 12.1036C13.8323 12.1036 13.7071 12.0723 13.5506 12.0097C13.0812 11.7594 12.9247 11.1961 13.1438 10.7579C14.4894 8.12919 14.3956 4.93712 12.9247 2.40225C12.6743 1.96412 12.7995 1.36952 13.2689 1.11916C13.7071 0.868803 14.3017 0.993982 14.552 1.4634C16.3671 4.56158 16.4923 8.44214 14.8337 11.6342C14.6772 11.9159 14.333 12.1036 13.9887 12.1036Z" fill="#00D3FF"/>
</svg>
