<svg width="75" height="62" viewBox="0 0 75 62" fill="none" xmlns="http://www.w3.org/2000/svg">
<g opacity="0.65" filter="url(#filter0_f)">
<path d="M48.4364 28.3831C48.4362 28.8658 48.2445 29.3287 47.9032 29.6701C47.5619 30.0114 47.0991 30.2033 46.6164 30.2035C45.6112 30.2035 44.8074 29.3884 44.8074 28.3831C44.8074 27.9003 44.9992 27.4373 45.3406 27.0959C45.682 26.7545 46.145 26.5627 46.6278 26.5627C47.1106 26.5627 47.5736 26.7545 47.915 27.0959C48.2564 27.4373 48.4482 27.9003 48.4482 28.3831H48.4364ZM46.6051 25C45.7111 24.9981 44.8528 25.3508 44.2186 25.9809C43.5844 26.611 43.2259 27.4669 43.222 28.3609L41.1117 31.387C41.0228 31.3757 40.933 31.3757 40.855 31.3757C40.3992 31.3775 39.9521 31.5009 39.5599 31.7331L30.0021 27.8919C29.8792 27.3288 29.5674 26.8246 29.1186 26.4631C28.6697 26.1015 28.1107 25.9043 27.5344 25.9041C26.8626 25.9055 26.2187 26.1731 25.7437 26.6481C25.2687 27.1232 25.0013 27.7671 25 28.4389C25.0014 29.1107 25.2689 29.7545 25.7439 30.2296C26.2188 30.7046 26.8626 30.9722 27.5344 30.9738C27.9902 30.972 28.4373 30.8486 28.8295 30.6163L38.3873 34.4576C38.5102 35.0207 38.822 35.5249 39.2708 35.8864C39.7197 36.248 40.2786 36.4452 40.855 36.4454C42.1614 36.4454 43.2451 35.4406 43.3671 34.1677L46.6169 31.7894C47.0612 31.7897 47.5013 31.7024 47.9119 31.5325C48.3225 31.3626 48.6956 31.1134 49.0098 30.7992C49.324 30.485 49.5732 30.1119 49.7431 29.7013C49.913 29.2907 50.0003 28.8506 50 28.4063C50.0003 27.9619 49.913 27.5218 49.7431 27.1113C49.5732 26.7007 49.324 26.3276 49.0098 26.0134C48.6956 25.6992 48.3225 25.45 47.9119 25.2801C47.5013 25.1101 47.0612 25.0228 46.6169 25.0231L46.6051 25ZM46.6051 26.1164C47.2062 26.1167 47.7825 26.3557 48.2075 26.7807C48.6325 27.2057 48.8715 27.7821 48.8718 28.3831C48.8715 28.9842 48.6325 29.5606 48.2075 29.9856C47.7825 30.4106 47.2062 30.6495 46.6051 30.6499C46.0041 30.6494 45.4279 30.4104 45.003 29.9854C44.578 29.5604 44.3392 28.9841 44.3388 28.3831C44.3392 27.7821 44.578 27.2059 45.003 26.7809C45.4279 26.3558 46.0041 26.1169 46.6051 26.1164ZM27.5226 26.5632C28.237 26.5632 28.8512 26.9651 29.1642 27.5457L28.2375 27.1774C27.4895 26.9093 26.663 27.2777 26.3731 28.0148C26.071 28.7519 26.4171 29.5893 27.1429 29.9128L27.9245 30.2253C27.7929 30.2568 27.6579 30.2719 27.5226 30.2702C27.2776 30.2707 27.0349 30.2228 26.8084 30.1292C26.5819 30.0357 26.3761 29.8983 26.2029 29.7251C26.0296 29.5518 25.8923 29.346 25.7987 29.1196C25.7052 28.8931 25.6573 28.6504 25.6578 28.4054C25.6573 28.1603 25.7052 27.9176 25.7987 27.6912C25.8923 27.4647 26.0296 27.2589 26.2029 27.0857C26.3761 26.9124 26.5819 26.775 26.8084 26.6815C27.0349 26.5879 27.2776 26.54 27.5226 26.5405V26.5632ZM40.8436 32.0348C41.0887 32.0342 41.3314 32.082 41.5579 32.1755C41.7844 32.269 41.9902 32.4063 42.1635 32.5795C42.3367 32.7528 42.4741 32.9585 42.5676 33.185C42.6612 33.4115 42.709 33.6542 42.7085 33.8992C42.709 34.1442 42.661 34.3869 42.5675 34.6133C42.4739 34.8398 42.3366 35.0455 42.1633 35.2188C41.9901 35.392 41.7843 35.5293 41.5578 35.6228C41.3314 35.7163 41.0887 35.7641 40.8436 35.7636C40.5051 35.7651 40.1727 35.6732 39.883 35.4979C39.5934 35.3226 39.3577 35.0708 39.202 34.7702C39.5036 34.8931 39.8162 35.016 40.1183 35.1385C40.483 35.2823 40.8895 35.2775 41.2506 35.125C41.6117 34.9725 41.8986 34.6845 42.0498 34.3229C42.1218 34.1426 42.1576 33.9499 42.155 33.7557C42.1524 33.5616 42.1116 33.3699 42.0349 33.1915C41.9582 33.0132 41.847 32.8517 41.7079 32.7164C41.5687 32.581 41.4042 32.4744 41.2238 32.4027L40.4535 32.0906C40.5873 32.057 40.7212 32.0452 40.8554 32.0452L40.8436 32.0348Z" fill="url(#paint0_linear)"/>
</g>
<path d="M48.4364 28.3831C48.4362 28.8658 48.2445 29.3287 47.9032 29.6701C47.5619 30.0114 47.0991 30.2033 46.6164 30.2035C45.6112 30.2035 44.8074 29.3884 44.8074 28.3831C44.8074 27.9003 44.9992 27.4373 45.3406 27.0959C45.682 26.7545 46.145 26.5627 46.6278 26.5627C47.1106 26.5627 47.5736 26.7545 47.915 27.0959C48.2564 27.4373 48.4482 27.9003 48.4482 28.3831H48.4364ZM46.6051 25C45.7111 24.9981 44.8528 25.3508 44.2186 25.9809C43.5844 26.611 43.2259 27.4669 43.222 28.3609L41.1117 31.387C41.0228 31.3757 40.933 31.3757 40.855 31.3757C40.3992 31.3775 39.9521 31.5009 39.5599 31.7331L30.0021 27.8919C29.8792 27.3288 29.5674 26.8246 29.1186 26.4631C28.6697 26.1015 28.1107 25.9043 27.5344 25.9041C26.8626 25.9055 26.2187 26.1731 25.7437 26.6481C25.2687 27.1232 25.0013 27.7671 25 28.4389C25.0014 29.1107 25.2689 29.7545 25.7439 30.2296C26.2188 30.7046 26.8626 30.9722 27.5344 30.9738C27.9902 30.972 28.4373 30.8486 28.8295 30.6163L38.3873 34.4576C38.5102 35.0207 38.822 35.5249 39.2708 35.8864C39.7197 36.248 40.2786 36.4452 40.855 36.4454C42.1614 36.4454 43.2451 35.4406 43.3671 34.1677L46.6169 31.7894C47.0612 31.7897 47.5013 31.7024 47.9119 31.5325C48.3225 31.3626 48.6956 31.1134 49.0098 30.7992C49.324 30.485 49.5732 30.1119 49.7431 29.7013C49.913 29.2907 50.0003 28.8506 50 28.4063C50.0003 27.9619 49.913 27.5218 49.7431 27.1113C49.5732 26.7007 49.324 26.3276 49.0098 26.0134C48.6956 25.6992 48.3225 25.45 47.9119 25.2801C47.5013 25.1101 47.0612 25.0228 46.6169 25.0231L46.6051 25ZM46.6051 26.1164C47.2062 26.1167 47.7825 26.3557 48.2075 26.7807C48.6325 27.2057 48.8715 27.7821 48.8718 28.3831C48.8715 28.9842 48.6325 29.5606 48.2075 29.9856C47.7825 30.4106 47.2062 30.6495 46.6051 30.6499C46.0041 30.6494 45.4279 30.4104 45.003 29.9854C44.578 29.5604 44.3392 28.9841 44.3388 28.3831C44.3392 27.7821 44.578 27.2059 45.003 26.7809C45.4279 26.3558 46.0041 26.1169 46.6051 26.1164ZM27.5226 26.5632C28.237 26.5632 28.8512 26.9651 29.1642 27.5457L28.2375 27.1774C27.4895 26.9093 26.663 27.2777 26.3731 28.0148C26.071 28.7519 26.4171 29.5893 27.1429 29.9128L27.9245 30.2253C27.7929 30.2568 27.6579 30.2719 27.5226 30.2702C27.2776 30.2707 27.0349 30.2228 26.8084 30.1292C26.5819 30.0357 26.3761 29.8983 26.2029 29.7251C26.0296 29.5518 25.8923 29.346 25.7987 29.1196C25.7052 28.8931 25.6573 28.6504 25.6578 28.4054C25.6573 28.1603 25.7052 27.9176 25.7987 27.6912C25.8923 27.4647 26.0296 27.2589 26.2029 27.0857C26.3761 26.9124 26.5819 26.775 26.8084 26.6815C27.0349 26.5879 27.2776 26.54 27.5226 26.5405V26.5632ZM40.8436 32.0348C41.0887 32.0342 41.3314 32.082 41.5579 32.1755C41.7844 32.269 41.9902 32.4063 42.1635 32.5795C42.3367 32.7528 42.4741 32.9585 42.5676 33.185C42.6612 33.4115 42.709 33.6542 42.7085 33.8992C42.709 34.1442 42.661 34.3869 42.5675 34.6133C42.4739 34.8398 42.3366 35.0455 42.1633 35.2188C41.9901 35.392 41.7843 35.5293 41.5578 35.6228C41.3314 35.7163 41.0887 35.7641 40.8436 35.7636C40.5051 35.7651 40.1727 35.6732 39.883 35.4979C39.5934 35.3226 39.3577 35.0708 39.202 34.7702C39.5036 34.8931 39.8162 35.016 40.1183 35.1385C40.483 35.2823 40.8895 35.2775 41.2506 35.125C41.6117 34.9725 41.8986 34.6845 42.0498 34.3229C42.1218 34.1426 42.1576 33.9499 42.155 33.7557C42.1524 33.5616 42.1116 33.3699 42.0349 33.1915C41.9582 33.0132 41.847 32.8517 41.7079 32.7164C41.5687 32.581 41.4042 32.4744 41.2238 32.4027L40.4535 32.0906C40.5873 32.057 40.7212 32.0452 40.8554 32.0452L40.8436 32.0348Z" fill="url(#paint1_linear)"/>
<defs>
<filter id="filter0_f" x="0" y="0" width="75" height="61.4454" filterUnits="userSpaceOnUse" color-interpolation-filters="sRGB">
<feFlood flood-opacity="0" result="BackgroundImageFix"/>
<feBlend mode="normal" in="SourceGraphic" in2="BackgroundImageFix" result="shape"/>
<feGaussianBlur stdDeviation="12.5" result="effect1_foregroundBlur"/>
</filter>
<linearGradient id="paint0_linear" x1="41.6667" y1="26.5261" x2="40.023" y2="37.2967" gradientUnits="userSpaceOnUse">
<stop stop-color="#3849E1"/>
<stop offset="1" stop-color="#98CEFF"/>
</linearGradient>
<linearGradient id="paint1_linear" x1="41.6667" y1="26.5261" x2="40.023" y2="37.2967" gradientUnits="userSpaceOnUse">
<stop stop-color="#3849E1"/>
<stop offset="1" stop-color="#98CEFF"/>
</linearGradient>
</defs>
</svg>
