<svg width="16" height="11" viewBox="0 0 16 11" fill="none" xmlns="http://www.w3.org/2000/svg">
<path fill-rule="evenodd" clip-rule="evenodd" d="M13.8172 2.91335H13.0899C12.9335 2.9151 12.7776 2.93216 12.6245 2.96426C11.7939 1.15764 9.98743 -3.05176e-05 7.99902 -3.05176e-05C6.01061 -3.05176e-05 4.20419 1.15764 3.37357 2.96426C3.22045 2.93216 3.06455 2.9151 2.90811 2.91335H2.18084C0.975857 2.91335 -0.000976562 3.89018 -0.000976562 5.09516V8.00426C-0.000976562 9.20924 0.975857 10.1861 2.18084 10.1861H2.90811C4.1131 10.1861 5.08993 9.20924 5.08993 8.00426V5.09516C5.08589 4.60889 4.91951 4.1379 4.61721 3.75698C5.16575 2.36906 6.50663 1.4572 7.99902 1.4572C9.49142 1.4572 10.8323 2.36906 11.3808 3.75698C11.0785 4.1379 10.9122 4.60889 10.9081 5.09516V8.00426C10.9081 9.20924 11.8849 10.1861 13.0899 10.1861H13.8172C15.0222 10.1861 15.999 9.20924 15.999 8.00426V5.09516C15.999 3.89018 15.0222 2.91335 13.8172 2.91335ZM3.63539 8.00426C3.63539 8.40592 3.30978 8.73153 2.90811 8.73153H2.18084C1.77918 8.73153 1.45357 8.40592 1.45357 8.00426V5.09517C1.45357 4.6935 1.77918 4.36789 2.18084 4.36789H2.90811C3.30978 4.36789 3.63539 4.6935 3.63539 5.09517V8.00426ZM13.8172 8.73153C14.2189 8.73153 14.5445 8.40592 14.5445 8.00426V5.09517C14.5445 4.6935 14.2189 4.36789 13.8172 4.36789H13.0899C12.6883 4.36789 12.3627 4.6935 12.3627 5.09517V8.00426C12.3627 8.40592 12.6883 8.73153 13.0899 8.73153H13.8172Z" fill="white"/>
</svg>
