<svg width="25" height="20" viewBox="0 0 25 20" fill="none" xmlns="http://www.w3.org/2000/svg">
<path d="M14.7071 10.7071C15.0976 10.3166 15.0976 9.68342 14.7071 9.29289L8.34315 2.92893C7.95262 2.53841 7.31946 2.53841 6.92893 2.92893C6.53841 3.31946 6.53841 3.95262 6.92893 4.34315L12.5858 10L6.92893 15.6569C6.53841 16.0474 6.53841 16.6805 6.92893 17.0711C7.31946 17.4616 7.95262 17.4616 8.34315 17.0711L14.7071 10.7071ZM13 11H14V9H13V11Z" fill="#00D3FF"/>
<path d="M6.53033 10.5303C6.82322 10.2374 6.82322 9.76256 6.53033 9.46967L1.75736 4.6967C1.46447 4.40381 0.989592 4.40381 0.696699 4.6967C0.403806 4.98959 0.403806 5.46447 0.696699 5.75736L4.93934 10L0.696699 14.2426C0.403806 14.5355 0.403806 15.0104 0.696699 15.3033C0.989592 15.5962 1.46447 15.5962 1.75736 15.3033L6.53033 10.5303ZM5 10.75H6V9.25H5V10.75Z" fill="#00D3FF"/>
<path d="M23.8839 10.8839C24.372 10.3957 24.372 9.60427 23.8839 9.11612L15.9289 1.16117C15.4408 0.67301 14.6493 0.67301 14.1612 1.16117C13.673 1.64932 13.673 2.44078 14.1612 2.92893L21.2322 10L14.1612 17.0711C13.673 17.5592 13.673 18.3507 14.1612 18.8388C14.6493 19.327 15.4408 19.327 15.9289 18.8388L23.8839 10.8839ZM22 11.25H23V8.75H22V11.25Z" fill="#00D3FF"/>
</svg>
