<svg width="50" height="50" viewBox="0 0 50 50" fill="none" xmlns="http://www.w3.org/2000/svg">
<circle cx="0.951874" cy="24.7696" r="0.673077" transform="rotate(-45 0.951874 24.7696)" fill="#30314F"/>
<circle cx="5.71164" cy="20.0102" r="0.673077" transform="rotate(-45 5.71164 20.0102)" fill="#30314F"/>
<circle cx="10.4714" cy="15.2508" r="0.673077" transform="rotate(-45 10.4714 15.2508)" fill="url(#paint0_linear)"/>
<circle cx="15.2302" cy="10.4915" r="0.673077" transform="rotate(-45 15.2302 10.4915)" fill="#30314F"/>
<circle cx="19.99" cy="5.73207" r="0.673077" transform="rotate(-45 19.99 5.73207)" fill="#30314F"/>
<circle cx="24.7487" cy="0.972687" r="0.673077" transform="rotate(-45 24.7487 0.972687)" fill="#30314F"/>
<circle cx="5.71164" cy="29.5289" r="0.673077" transform="rotate(-45 5.71164 29.5289)" fill="#30314F"/>
<circle cx="10.4714" cy="24.7696" r="0.673077" transform="rotate(-45 10.4714 24.7696)" fill="#30314F"/>
<circle cx="15.2302" cy="20.0102" r="0.673077" transform="rotate(-45 15.2302 20.0102)" fill="#30314F"/>
<circle cx="19.99" cy="15.2508" r="0.673077" transform="rotate(-45 19.99 15.2508)" fill="#30314F"/>
<circle cx="24.7487" cy="10.4915" r="0.673077" transform="rotate(-45 24.7487 10.4915)" fill="url(#paint1_linear)"/>
<circle cx="29.5085" cy="5.73207" r="0.673077" transform="rotate(-45 29.5085 5.73207)" fill="#30314F"/>
<circle cx="10.4714" cy="34.2883" r="0.673077" transform="rotate(-45 10.4714 34.2883)" fill="url(#paint2_linear)"/>
<circle cx="15.2302" cy="29.5289" r="0.673077" transform="rotate(-45 15.2302 29.5289)" fill="#30314F"/>
<circle cx="19.99" cy="24.7696" r="0.673077" transform="rotate(-45 19.99 24.7696)" fill="#30314F"/>
<circle cx="24.7487" cy="20.0102" r="0.673077" transform="rotate(-45 24.7487 20.0102)" fill="#30314F"/>
<circle cx="29.5085" cy="15.2508" r="0.673077" transform="rotate(-45 29.5085 15.2508)" fill="#30314F"/>
<circle cx="34.2673" cy="10.4915" r="0.673077" transform="rotate(-45 34.2673 10.4915)" fill="#30314F"/>
<circle cx="15.2302" cy="39.0477" r="0.673077" transform="rotate(-45 15.2302 39.0477)" fill="#30314F"/>
<circle cx="19.99" cy="34.2883" r="0.673077" transform="rotate(-45 19.99 34.2883)" fill="#30314F"/>
<circle cx="24.7487" cy="29.5289" r="0.673077" transform="rotate(-45 24.7487 29.5289)" fill="#30314F"/>
<circle cx="29.5085" cy="24.7696" r="0.673077" transform="rotate(-45 29.5085 24.7696)" fill="#30314F"/>
<circle cx="34.2673" cy="20.0102" r="0.673077" transform="rotate(-45 34.2673 20.0102)" fill="url(#paint3_linear)"/>
<circle cx="39.0271" cy="15.2508" r="0.673077" transform="rotate(-45 39.0271 15.2508)" fill="url(#paint4_linear)"/>
<circle cx="19.99" cy="43.8071" r="0.673077" transform="rotate(-45 19.99 43.8071)" fill="#30314F"/>
<circle cx="24.7487" cy="39.0477" r="0.673077" transform="rotate(-45 24.7487 39.0477)" fill="url(#paint5_linear)"/>
<circle cx="29.5085" cy="34.2883" r="0.673077" transform="rotate(-45 29.5085 34.2883)" fill="#30314F"/>
<circle cx="34.2673" cy="29.5289" r="0.673077" transform="rotate(-45 34.2673 29.5289)" fill="#30314F"/>
<circle cx="39.0271" cy="24.7696" r="0.673077" transform="rotate(-45 39.0271 24.7696)" fill="#30314F"/>
<circle cx="43.7868" cy="20.0102" r="0.673077" transform="rotate(-45 43.7868 20.0102)" fill="#30314F"/>
<circle cx="24.7487" cy="48.5664" r="0.673077" transform="rotate(-45 24.7487 48.5664)" fill="#30314F"/>
<circle cx="29.5085" cy="43.8071" r="0.673077" transform="rotate(-45 29.5085 43.8071)" fill="#30314F"/>
<circle cx="34.2673" cy="39.0477" r="0.673077" transform="rotate(-45 34.2673 39.0477)" fill="#30314F"/>
<circle cx="39.0271" cy="34.2883" r="0.673077" transform="rotate(-45 39.0271 34.2883)" fill="url(#paint6_linear)"/>
<circle cx="43.7868" cy="29.5289" r="0.673077" transform="rotate(-45 43.7868 29.5289)" fill="#30314F"/>
<circle cx="48.5456" cy="24.7696" r="0.673077" transform="rotate(-45 48.5456 24.7696)" fill="url(#paint7_linear)"/>
<defs>
<linearGradient id="paint0_linear" x1="9.84641" y1="15.2701" x2="11.0868" y2="15.2701" gradientUnits="userSpaceOnUse">
<stop stop-color="#0085FF"/>
<stop offset="1" stop-color="#00D3FF"/>
</linearGradient>
<linearGradient id="paint1_linear" x1="24.1237" y1="10.5107" x2="25.3641" y2="10.5107" gradientUnits="userSpaceOnUse">
<stop stop-color="#0085FF"/>
<stop offset="1" stop-color="#00D3FF"/>
</linearGradient>
<linearGradient id="paint2_linear" x1="9.84641" y1="34.3075" x2="11.0868" y2="34.3075" gradientUnits="userSpaceOnUse">
<stop stop-color="#0085FF"/>
<stop offset="1" stop-color="#00D3FF"/>
</linearGradient>
<linearGradient id="paint3_linear" x1="33.6423" y1="20.0294" x2="34.8827" y2="20.0294" gradientUnits="userSpaceOnUse">
<stop stop-color="#0085FF"/>
<stop offset="1" stop-color="#00D3FF"/>
</linearGradient>
<linearGradient id="paint4_linear" x1="38.4021" y1="15.2701" x2="39.6425" y2="15.2701" gradientUnits="userSpaceOnUse">
<stop stop-color="#0085FF"/>
<stop offset="1" stop-color="#00D3FF"/>
</linearGradient>
<linearGradient id="paint5_linear" x1="24.1237" y1="39.0669" x2="25.3641" y2="39.0669" gradientUnits="userSpaceOnUse">
<stop stop-color="#0085FF"/>
<stop offset="1" stop-color="#00D3FF"/>
</linearGradient>
<linearGradient id="paint6_linear" x1="38.4021" y1="34.3075" x2="39.6425" y2="34.3075" gradientUnits="userSpaceOnUse">
<stop stop-color="#0085FF"/>
<stop offset="1" stop-color="#00D3FF"/>
</linearGradient>
<linearGradient id="paint7_linear" x1="47.9206" y1="24.7888" x2="49.161" y2="24.7888" gradientUnits="userSpaceOnUse">
<stop stop-color="#0085FF"/>
<stop offset="1" stop-color="#00D3FF"/>
</linearGradient>
</defs>
</svg>
