<svg width="59" height="51" viewBox="0 0 59 51" fill="none" xmlns="http://www.w3.org/2000/svg">
<g filter="url(#filter0_d)">
<path fill-rule="evenodd" clip-rule="evenodd" d="M27.4547 21.1147C29.2864 19.6799 30.0063 17.2411 29.2474 15.0415C28.4884 12.842 26.4178 11.3661 24.091 11.3661C21.7643 11.3661 19.6937 12.842 18.9347 15.0415C18.1758 17.2411 18.8957 19.6799 20.7274 21.1147C17.2724 22.4907 15.0038 25.8323 15 29.5512V30.4603C15 30.9624 15.407 31.3694 15.9091 31.3694C16.4112 31.3694 16.8182 30.9624 16.8182 30.4603V29.5512C16.8182 25.5345 20.0744 22.2784 24.091 22.2784C28.1077 22.2784 31.3639 25.5345 31.3639 29.5512V30.4603C31.3639 30.9624 31.7709 31.3694 32.273 31.3694C32.7751 31.3694 33.1821 30.9624 33.1821 30.4603V29.5512C33.1783 25.8323 30.9097 22.4907 27.4547 21.1147ZM20.4544 16.8237C20.4544 14.8154 22.0825 13.1873 24.0908 13.1873C26.0992 13.1873 27.7272 14.8154 27.7272 16.8237C27.7272 18.8321 26.0992 20.4602 24.0908 20.4602C23.1264 20.4602 22.2014 20.077 21.5195 19.3951C20.8375 18.7131 20.4544 17.7882 20.4544 16.8237Z" fill="#00D3FF"/>
</g>
<g filter="url(#filter1_d)">
<path fill-rule="evenodd" clip-rule="evenodd" d="M40.22 24.8001C41.4289 23.8531 41.904 22.2435 41.4031 20.7918C40.9022 19.3402 39.5356 18.3661 38 18.3661C36.4644 18.3661 35.0978 19.3402 34.5969 20.7918C34.096 22.2435 34.5711 23.8531 35.78 24.8001C33.4997 25.7082 32.0025 27.9136 32 30.3681V30.9681C32 31.2994 32.2686 31.5681 32.6 31.5681C32.9314 31.5681 33.2 31.2994 33.2 30.9681V30.3681C33.2 27.7171 35.349 25.5681 38 25.5681C40.651 25.5681 42.8 27.7171 42.8 30.3681V30.9681C42.8 31.2994 43.0686 31.5681 43.4 31.5681C43.7314 31.5681 44 31.2994 44 30.9681V30.3681C43.9975 27.9136 42.5003 25.7082 40.22 24.8001ZM35.5997 21.9681C35.5997 20.6426 36.6742 19.5681 37.9997 19.5681C39.3251 19.5681 40.3997 20.6426 40.3997 21.9681C40.3997 23.2936 39.3251 24.3681 37.9997 24.3681C37.3631 24.3681 36.7527 24.1152 36.3026 23.6651C35.8525 23.215 35.5997 22.6046 35.5997 21.9681Z" fill="#00D3FF"/>
</g>
<defs>
<filter id="filter0_d" x="0" y="0.366058" width="48.1821" height="50.0033" filterUnits="userSpaceOnUse" color-interpolation-filters="sRGB">
<feFlood flood-opacity="0" result="BackgroundImageFix"/>
<feColorMatrix in="SourceAlpha" type="matrix" values="0 0 0 0 0 0 0 0 0 0 0 0 0 0 0 0 0 0 127 0"/>
<feOffset dy="4"/>
<feGaussianBlur stdDeviation="7.5"/>
<feColorMatrix type="matrix" values="0 0 0 0 0 0 0 0 0 0.827451 0 0 0 0 1 0 0 0 0.25 0"/>
<feBlend mode="normal" in2="BackgroundImageFix" result="effect1_dropShadow"/>
<feBlend mode="normal" in="SourceGraphic" in2="effect1_dropShadow" result="shape"/>
</filter>
<filter id="filter1_d" x="17" y="7.36606" width="42" height="43.202" filterUnits="userSpaceOnUse" color-interpolation-filters="sRGB">
<feFlood flood-opacity="0" result="BackgroundImageFix"/>
<feColorMatrix in="SourceAlpha" type="matrix" values="0 0 0 0 0 0 0 0 0 0 0 0 0 0 0 0 0 0 127 0"/>
<feOffset dy="4"/>
<feGaussianBlur stdDeviation="7.5"/>
<feColorMatrix type="matrix" values="0 0 0 0 0 0 0 0 0 0.827451 0 0 0 0 1 0 0 0 0.25 0"/>
<feBlend mode="normal" in2="BackgroundImageFix" result="effect1_dropShadow"/>
<feBlend mode="normal" in="SourceGraphic" in2="effect1_dropShadow" result="shape"/>
</filter>
</defs>
</svg>
