<svg width="21" height="23" viewBox="0 0 21 23" fill="none" xmlns="http://www.w3.org/2000/svg">
<path fill-rule="evenodd" clip-rule="evenodd" d="M14.5485 11.72C16.5633 10.1417 17.3552 7.45905 16.5204 5.03961C15.6856 2.62017 13.4079 0.996643 10.8485 0.996643C8.2891 0.996643 6.01145 2.62017 5.17665 5.03961C4.34184 7.45905 5.13368 10.1417 7.14851 11.72C3.34808 13.2336 0.852732 16.9092 0.848511 21V22C0.848511 22.5523 1.29623 23 1.84851 23C2.4008 23 2.84851 22.5523 2.84851 22V21C2.84851 16.5817 6.43023 13 10.8485 13C15.2668 13 18.8485 16.5817 18.8485 21V22C18.8485 22.5523 19.2962 23 19.8485 23C20.4008 23 20.8485 22.5523 20.8485 22V21C20.8443 16.9092 18.3489 13.2336 14.5485 11.72ZM6.84851 6.99999C6.84851 4.79085 8.63937 2.99999 10.8485 2.99999C13.0576 2.99999 14.8485 4.79085 14.8485 6.99999C14.8485 9.20913 13.0576 11 10.8485 11C9.78764 11 8.77023 10.5786 8.02008 9.82842C7.26994 9.07827 6.84851 8.06086 6.84851 6.99999Z" fill="#00D3FF"/>
</svg>
