<svg width="80" height="72" viewBox="0 0 80 72" fill="none" xmlns="http://www.w3.org/2000/svg">
<g filter="url(#filter0_f)">
<path fill-rule="evenodd" clip-rule="evenodd" d="M40.9808 41.1532C40.9808 41.1532 41.3418 41.1138 41.5267 40.9189C41.6959 40.7403 41.69 40.4033 41.69 40.4033C41.69 40.4033 41.6675 38.8295 42.4119 38.5971C43.1456 38.3686 44.0876 40.1191 45.0873 40.7922C45.8425 41.3011 46.4157 41.1897 46.4157 41.1897L49.0872 41.1532C49.0872 41.1532 50.4841 41.0687 49.8218 39.9904C49.767 39.9021 49.4354 39.1925 47.8361 37.7349C46.1604 36.2091 46.3854 36.4559 48.4024 33.8163C49.6311 32.2089 50.1221 31.2276 49.9685 30.808C49.8228 30.4066 48.9189 30.5132 48.9189 30.5132L45.9119 30.5315C45.9119 30.5315 45.6889 30.5017 45.5236 30.5987C45.3622 30.6937 45.2575 30.9156 45.2575 30.9156C45.2575 30.9156 44.7821 32.159 44.1473 33.2171C42.8081 35.4486 42.273 35.5668 42.0539 35.4285C41.5443 35.1049 41.6714 34.1303 41.6714 33.438C41.6714 31.2747 42.006 30.373 41.0209 30.1397C40.6942 30.0619 40.4536 30.011 39.6172 30.0024C38.5441 29.9918 37.6364 30.0062 37.1218 30.253C36.7795 30.4172 36.5153 30.784 36.6767 30.8051C36.8753 30.8311 37.3253 30.9242 37.564 31.243C37.8721 31.6549 37.8613 32.5786 37.8613 32.5786C37.8613 32.5786 38.0384 35.1251 37.4476 35.441C37.0426 35.658 36.487 35.2153 35.2926 33.1903C34.6812 32.1532 34.2195 31.0068 34.2195 31.0068C34.2195 31.0068 34.1305 30.7926 33.971 30.6774C33.7783 30.5382 33.5093 30.495 33.5093 30.495L30.652 30.5132C30.652 30.5132 30.2226 30.5248 30.0651 30.7081C29.9252 30.8704 30.0543 31.2075 30.0543 31.2075C30.0543 31.2075 32.2915 36.3455 34.825 38.9351C37.1482 41.3087 39.7855 41.1532 39.7855 41.1532H40.9808Z" fill="url(#paint0_linear)"/>
</g>
<path fill-rule="evenodd" clip-rule="evenodd" d="M40.9808 41.1532C40.9808 41.1532 41.3418 41.1138 41.5267 40.9189C41.6959 40.7403 41.69 40.4033 41.69 40.4033C41.69 40.4033 41.6675 38.8295 42.4119 38.5971C43.1456 38.3686 44.0876 40.1191 45.0873 40.7922C45.8425 41.3011 46.4157 41.1897 46.4157 41.1897L49.0872 41.1532C49.0872 41.1532 50.4841 41.0687 49.8218 39.9904C49.767 39.9021 49.4354 39.1925 47.8361 37.7349C46.1604 36.2091 46.3854 36.4559 48.4024 33.8163C49.6311 32.2089 50.1221 31.2276 49.9685 30.808C49.8228 30.4066 48.9189 30.5132 48.9189 30.5132L45.9119 30.5315C45.9119 30.5315 45.6889 30.5017 45.5236 30.5987C45.3622 30.6937 45.2575 30.9156 45.2575 30.9156C45.2575 30.9156 44.7821 32.159 44.1473 33.2171C42.8081 35.4486 42.273 35.5668 42.0539 35.4285C41.5443 35.1049 41.6714 34.1303 41.6714 33.438C41.6714 31.2747 42.006 30.373 41.0209 30.1397C40.6942 30.0619 40.4536 30.011 39.6172 30.0024C38.5441 29.9918 37.6364 30.0062 37.1218 30.253C36.7795 30.4172 36.5153 30.784 36.6767 30.8051C36.8753 30.8311 37.3253 30.9242 37.564 31.243C37.8721 31.6549 37.8613 32.5786 37.8613 32.5786C37.8613 32.5786 38.0384 35.1251 37.4476 35.441C37.0426 35.658 36.487 35.2153 35.2926 33.1903C34.6812 32.1532 34.2195 31.0068 34.2195 31.0068C34.2195 31.0068 34.1305 30.7926 33.971 30.6774C33.7783 30.5382 33.5093 30.495 33.5093 30.495L30.652 30.5132C30.652 30.5132 30.2226 30.5248 30.0651 30.7081C29.9252 30.8704 30.0543 31.2075 30.0543 31.2075C30.0543 31.2075 32.2915 36.3455 34.825 38.9351C37.1482 41.3087 39.7855 41.1532 39.7855 41.1532H40.9808Z" fill="url(#paint1_linear)"/>
<defs>
<filter id="filter0_f" x="0" y="0" width="80" height="71.2" filterUnits="userSpaceOnUse" color-interpolation-filters="sRGB">
<feFlood flood-opacity="0" result="BackgroundImageFix"/>
<feBlend mode="normal" in="SourceGraphic" in2="BackgroundImageFix" result="shape"/>
<feGaussianBlur stdDeviation="15" result="effect1_foregroundBlur"/>
</filter>
<linearGradient id="paint0_linear" x1="30" y1="35.7244" x2="50.85" y2="35.7244" gradientUnits="userSpaceOnUse">
<stop stop-color="#647AE8"/>
<stop offset="1" stop-color="#54A3F5"/>
</linearGradient>
<linearGradient id="paint1_linear" x1="30" y1="35.7244" x2="50.85" y2="35.7244" gradientUnits="userSpaceOnUse">
<stop stop-color="#647AE8"/>
<stop offset="1" stop-color="#54A3F5"/>
</linearGradient>
</defs>
</svg>
