<svg width="22" height="22" viewBox="0 0 22 22" fill="none" xmlns="http://www.w3.org/2000/svg">
<path fill-rule="evenodd" clip-rule="evenodd" d="M19 3.57427H18V2.99427C17.9982 2.05467 17.5563 1.17019 16.806 0.604548C16.0558 0.0389051 15.0838 -0.142556 14.18 0.114269L2.73 3.38427C2.56115 3.43704 2.40932 3.53366 2.29 3.66427C0.947662 3.99124 0.0021984 5.19268 0 6.57427V18.5743C0 20.2311 1.34315 21.5743 3 21.5743H19C20.6569 21.5743 22 20.2311 22 18.5743V6.57427C22 4.91741 20.6569 3.57427 19 3.57427ZM14.73 2.03425C15.0377 1.94773 15.3682 2.01351 15.6193 2.21124C15.8705 2.40898 16.0119 2.71484 16 3.03425V3.61425H9.36L14.73 2.03425ZM20 13.5743H17C16.4477 13.5743 16 13.1266 16 12.5743C16 12.022 16.4477 11.5743 17 11.5743H20V13.5743ZM20 9.57426H17.15C15.6644 9.5363 14.3621 10.5613 14.05 12.0143C13.8831 12.8927 14.1167 13.7999 14.6873 14.4884C15.2578 15.1769 16.1058 15.5751 17 15.5743H20V18.5743C20 19.1265 19.5523 19.5743 19 19.5743H2.99999C2.44771 19.5743 1.99999 19.1265 1.99999 18.5743V6.57426C1.99999 6.02197 2.44771 5.57426 2.99999 5.57426H19C19.5523 5.57426 20 6.02197 20 6.57426V9.57426Z" fill="#01D2FE"/>
</svg>
