<svg width="12" height="14" viewBox="0 0 12 14" fill="none" xmlns="http://www.w3.org/2000/svg">
<path d="M5.43431 13.5657C5.74673 13.8781 6.25327 13.8781 6.56569 13.5657L11.6569 8.47452C11.9693 8.1621 11.9693 7.65557 11.6569 7.34315C11.3444 7.03073 10.8379 7.03073 10.5255 7.34315L6 11.8686L1.47452 7.34315C1.1621 7.03073 0.655565 7.03073 0.343146 7.34315C0.0307266 7.65557 0.0307266 8.1621 0.343146 8.47452L5.43431 13.5657ZM5.2 12L5.2 13L6.8 13L6.8 12L5.2 12Z" fill="white"/>
<path d="M5.43431 6.56569C5.74673 6.8781 6.25327 6.8781 6.56569 6.56569L11.6569 1.47452C11.9693 1.1621 11.9693 0.655566 11.6569 0.343146C11.3444 0.0307267 10.8379 0.0307266 10.5255 0.343146L6 4.86863L1.47452 0.343146C1.1621 0.0307262 0.655565 0.0307262 0.343146 0.343146C0.0307266 0.655565 0.0307266 1.1621 0.343146 1.47452L5.43431 6.56569ZM5.2 5L5.2 6L6.8 6L6.8 5L5.2 5Z" fill="white"/>
</svg>
