<svg width="95" height="89" viewBox="0 0 95 89" fill="none" xmlns="http://www.w3.org/2000/svg">
<g opacity="0.65" filter="url(#filter0_f)">
<path fill-rule="evenodd" clip-rule="evenodd" d="M59.75 38.8878C59.75 38.8878 59.5055 37.1221 58.7563 36.3445C57.8055 35.3235 56.7398 35.3187 56.2516 35.2595C52.7531 35 47.5055 35 47.5055 35H47.4945C47.4945 35 42.2469 35 38.7484 35.2595C38.2594 35.3187 37.1945 35.3235 36.243 36.3445C35.4937 37.1221 35.25 38.8878 35.25 38.8878C35.25 38.8878 35 40.9618 35 43.0351V44.9794C35 47.0534 35.25 49.1266 35.25 49.1266C35.25 49.1266 35.4937 50.8924 36.243 51.6699C37.1945 52.6909 38.4437 52.6589 39 52.7654C41 52.9624 47.5 53.0233 47.5 53.0233C47.5 53.0233 52.7531 53.0152 56.2516 52.7558C56.7398 52.6957 57.8055 52.6909 58.7563 51.6699C59.5055 50.8924 59.75 49.1266 59.75 49.1266C59.75 49.1266 60 47.0534 60 44.9794V43.0351C60 40.9618 59.75 38.8878 59.75 38.8878Z" fill="white"/>
<path fill-rule="evenodd" clip-rule="evenodd" d="M59.75 38.8878C59.75 38.8878 59.5055 37.1221 58.7563 36.3445C57.8055 35.3235 56.7398 35.3187 56.2516 35.2595C52.7531 35 47.5055 35 47.5055 35H47.4945C47.4945 35 42.2469 35 38.7484 35.2595C38.2594 35.3187 37.1945 35.3235 36.243 36.3445C35.4937 37.1221 35.25 38.8878 35.25 38.8878C35.25 38.8878 35 40.9618 35 43.0351V44.9794C35 47.0534 35.25 49.1266 35.25 49.1266C35.25 49.1266 35.4937 50.8924 36.243 51.6699C37.1945 52.6909 38.4437 52.6589 39 52.7654C41 52.9624 47.5 53.0233 47.5 53.0233C47.5 53.0233 52.7531 53.0152 56.2516 52.7558C56.7398 52.6957 57.8055 52.6909 58.7563 51.6699C59.5055 50.8924 59.75 49.1266 59.75 49.1266C59.75 49.1266 60 47.0534 60 44.9794V43.0351C60 40.9618 59.75 38.8878 59.75 38.8878Z" fill="url(#paint0_linear)"/>
<path fill-rule="evenodd" clip-rule="evenodd" d="M46.37 47.2581C45.97 47.4936 45.4655 47.2053 45.4655 46.7411L45.4649 41.286C45.4649 40.821 45.971 40.5327 46.371 40.7698L50.9868 43.5068C51.3795 43.7396 51.3787 44.3082 50.9853 44.5399L46.37 47.2581Z" fill="white"/>
</g>
<path fill-rule="evenodd" clip-rule="evenodd" d="M59.75 38.8878C59.75 38.8878 59.5055 37.1221 58.7563 36.3445C57.8055 35.3235 56.7398 35.3187 56.2516 35.2595C52.7531 35 47.5055 35 47.5055 35H47.4945C47.4945 35 42.2469 35 38.7484 35.2595C38.2594 35.3187 37.1945 35.3235 36.243 36.3445C35.4937 37.1221 35.25 38.8878 35.25 38.8878C35.25 38.8878 35 40.9618 35 43.0351V44.9794C35 47.0534 35.25 49.1266 35.25 49.1266C35.25 49.1266 35.4937 50.8924 36.243 51.6699C37.1945 52.6909 38.4437 52.6589 39 52.7654C41 52.9624 47.5 53.0233 47.5 53.0233C47.5 53.0233 52.7531 53.0152 56.2516 52.7558C56.7398 52.6957 57.8055 52.6909 58.7563 51.6699C59.5055 50.8924 59.75 49.1266 59.75 49.1266C59.75 49.1266 60 47.0534 60 44.9794V43.0351C60 40.9618 59.75 38.8878 59.75 38.8878Z" fill="white"/>
<path fill-rule="evenodd" clip-rule="evenodd" d="M59.75 38.8878C59.75 38.8878 59.5055 37.1221 58.7563 36.3445C57.8055 35.3235 56.7398 35.3187 56.2516 35.2595C52.7531 35 47.5055 35 47.5055 35H47.4945C47.4945 35 42.2469 35 38.7484 35.2595C38.2594 35.3187 37.1945 35.3235 36.243 36.3445C35.4937 37.1221 35.25 38.8878 35.25 38.8878C35.25 38.8878 35 40.9618 35 43.0351V44.9794C35 47.0534 35.25 49.1266 35.25 49.1266C35.25 49.1266 35.4937 50.8924 36.243 51.6699C37.1945 52.6909 38.4437 52.6589 39 52.7654C41 52.9624 47.5 53.0233 47.5 53.0233C47.5 53.0233 52.7531 53.0152 56.2516 52.7558C56.7398 52.6957 57.8055 52.6909 58.7563 51.6699C59.5055 50.8924 59.75 49.1266 59.75 49.1266C59.75 49.1266 60 47.0534 60 44.9794V43.0351C60 40.9618 59.75 38.8878 59.75 38.8878Z" fill="url(#paint1_linear)"/>
<path fill-rule="evenodd" clip-rule="evenodd" d="M46.37 47.2581C45.97 47.4936 45.4655 47.2053 45.4655 46.7411L45.4649 41.286C45.4649 40.821 45.971 40.5327 46.371 40.7698L50.9868 43.5068C51.3795 43.7396 51.3787 44.3082 50.9853 44.5399L46.37 47.2581Z" fill="white"/>
<defs>
<filter id="filter0_f" x="0" y="0" width="95" height="88.0233" filterUnits="userSpaceOnUse" color-interpolation-filters="sRGB">
<feFlood flood-opacity="0" result="BackgroundImageFix"/>
<feBlend mode="normal" in="SourceGraphic" in2="BackgroundImageFix" result="shape"/>
<feGaussianBlur stdDeviation="17.5" result="effect1_foregroundBlur"/>
</filter>
<linearGradient id="paint0_linear" x1="38.1977" y1="44.3023" x2="59.9998" y2="44.3649" gradientUnits="userSpaceOnUse">
<stop stop-color="#FF3131"/>
<stop offset="1" stop-color="#FF7777"/>
</linearGradient>
<linearGradient id="paint1_linear" x1="38.1977" y1="44.3023" x2="59.9998" y2="44.3649" gradientUnits="userSpaceOnUse">
<stop stop-color="#FF3131"/>
<stop offset="1" stop-color="#FF7777"/>
</linearGradient>
</defs>
</svg>
