<svg width="65" height="65" viewBox="0 0 65 65" fill="none" xmlns="http://www.w3.org/2000/svg">
	<g filter="url(#filter0_d)">
		<rect x="25" y="39.0909" width="14.0909" height="0.939394" transform="rotate(-90 25 39.0909)" fill="#00D3FF"></rect>
		<rect x="25" y="25" width="14.0909" height="0.939394" fill="#00D3FF"></rect>
	</g>
	<rect x="31.5762" y="40.9697" width="9.39394" height="0.626263" transform="rotate(-90 31.5762 40.9697)" fill="#d1d5dc"></rect>
	<rect x="31.5762" y="40.9697" width="9.39394" height="0.626263" transform="rotate(-90 31.5762 40.9697)" fill="#d1d5dc"></rect>
	<rect x="31.5762" y="31.5757" width="9.39394" height="0.626263" fill="#d1d5dc"></rect>
	<rect x="31.5762" y="31.5757" width="9.39394" height="0.626263" fill="#d1d5dc"></rect>
	<rect x="37.2119" y="42.8484" width="5.63636" height="0.375758" transform="rotate(-90 37.2119 42.8484)" fill="#d1d5dc"></rect>
	<rect x="37.2119" y="42.8484" width="5.63636" height="0.375758" transform="rotate(-90 37.2119 42.8484)" fill="#d1d5dc"></rect>
	<rect x="37.2119" y="37.2121" width="5.63636" height="0.375758" fill="#d1d5dc"></rect>
	<rect x="37.2119" y="37.2121" width="5.63636" height="0.375758" fill="#d1d5dc"></rect>
	<defs>
		<filter id="filter0_d" x="0" y="-3.05176e-05" width="64.0909" height="64.0909" filterUnits="userSpaceOnUse" color-interpolation-filters="sRGB">
			<feFlood flood-opacity="0" result="BackgroundImageFix"></feFlood>
			<feColorMatrix in="SourceAlpha" type="matrix" values="0 0 0 0 0 0 0 0 0 0 0 0 0 0 0 0 0 0 127 0"></feColorMatrix>
			<feOffset></feOffset>
			<feGaussianBlur stdDeviation="12.5"></feGaussianBlur>
			<feColorMatrix type="matrix" values="0 0 0 0 0 0 0 0 0 0.827451 0 0 0 0 1 0 0 0 1 0"></feColorMatrix>
			<feBlend mode="normal" in2="BackgroundImageFix" result="effect1_dropShadow"></feBlend>
			<feBlend mode="normal" in="SourceGraphic" in2="effect1_dropShadow" result="shape"></feBlend>
		</filter>
	</defs>
</svg>