<svg width="18" height="12" viewBox="0 0 18 12" fill="none" xmlns="http://www.w3.org/2000/svg">
<path fill-rule="evenodd" clip-rule="evenodd" d="M16.7904 1.21C16.9628 1.41156 17.0481 1.67335 17.0274 1.93778C17.0068 2.20221 16.882 2.44761 16.6804 2.62L7.09038 10.85C6.59578 11.2716 5.85541 11.2229 5.42038 10.74L1.23038 6.13C0.989226 5.86562 0.907433 5.49267 1.01581 5.15164C1.12419 4.8106 1.40628 4.5533 1.75581 4.47664C2.10535 4.39998 2.46923 4.51562 2.71038 4.78L6.38038 8.78L15.3804 1.07C15.5857 0.90109 15.8499 0.820911 16.1145 0.847181C16.379 0.873452 16.6223 1.00401 16.7904 1.21Z" fill="#373855"/>
</svg>
