<svg width="210" height="149" viewBox="0 0 210 149" fill="none" xmlns="http://www.w3.org/2000/svg">
<path d="M68.7634 65.5971L70.19 65.1336L68.7634 65.5971L75.6888 86.9111L57.558 73.7383C56.9271 73.2799 56.0728 73.28 55.442 73.7383L37.3112 86.9111L44.2366 65.5971C44.4775 64.8554 44.2135 64.043 43.5827 63.5846L25.4519 50.4119H47.8628C48.6426 50.4119 49.3337 49.9097 49.5747 49.1681L48.1481 48.7046L49.5747 49.1681L56.5 27.8541L63.4253 49.1681C63.6663 49.9097 64.3574 50.4119 65.1372 50.4119H87.5481L69.4173 63.5846C68.7865 64.043 68.5225 64.8554 68.7634 65.5971Z" stroke="#00D3FF" stroke-width="3"/>
<path d="M59.4106 55.1939L60.3616 54.8849L59.4106 55.1939C59.5846 55.7295 60.0838 56.0922 60.647 56.0922L70.0658 56.0922L62.4458 61.6285C61.9902 61.9595 61.7995 62.5463 61.9735 63.0819L64.8841 72.0398L57.2641 66.5035C56.8085 66.1725 56.1915 66.1725 55.7359 66.5035L48.1159 72.0398L51.0265 63.0819C51.2005 62.5463 51.0098 61.9595 50.5542 61.6285L42.9342 56.0922L52.353 56.0922C52.9162 56.0922 53.4154 55.7296 53.5894 55.1939L56.5 46.2361L59.4106 55.1939Z" stroke="#00D3FF" stroke-width="2"/>
<path d="M100.649 55.294C99.165 55.294 97.947 54.972 96.995 54.328C96.057 53.67 95.455 52.781 95.189 51.661L97.814 50.317C98.178 51.773 99.2 52.501 100.88 52.501C101.65 52.501 102.252 52.361 102.686 52.081C103.134 51.801 103.4 51.43 103.484 50.968C103.596 50.436 103.442 50.023 103.022 49.729C102.616 49.435 101.902 49.12 100.88 48.784C99.508 48.322 98.472 47.741 97.772 47.041C97.086 46.327 96.855 45.326 97.079 44.038C97.317 42.708 97.94 41.707 98.948 41.035C99.97 40.349 101.132 40.006 102.434 40.006C103.638 40.006 104.667 40.293 105.521 40.867C106.375 41.441 106.991 42.246 107.369 43.282L104.828 44.626C104.31 43.408 103.435 42.799 102.203 42.799C101.615 42.799 101.125 42.925 100.733 43.177C100.355 43.429 100.117 43.772 100.019 44.206C99.907 44.724 100.054 45.137 100.46 45.445C100.866 45.739 101.552 46.061 102.518 46.411C102.77 46.509 102.98 46.586 103.148 46.642C103.316 46.698 103.526 46.782 103.778 46.894C104.03 46.992 104.233 47.09 104.387 47.188C104.555 47.272 104.744 47.384 104.954 47.524C105.164 47.65 105.339 47.783 105.479 47.923C105.619 48.049 105.759 48.203 105.899 48.385C106.053 48.553 106.165 48.735 106.235 48.931C106.319 49.127 106.389 49.344 106.445 49.582C106.501 49.806 106.529 50.058 106.529 50.338C106.529 50.618 106.501 50.912 106.445 51.22C106.207 52.536 105.563 53.544 104.513 54.244C103.477 54.944 102.189 55.294 100.649 55.294ZM122.878 40.3L122.395 43.072H118.426L116.326 55H113.428L115.528 43.072H111.58L112.063 40.3H122.878ZM133.678 55L133.3 52.354H127.42L126.055 55H122.884L130.633 40.3H134.224L136.807 55H133.678ZM128.827 49.645H132.901L132.019 43.513L128.827 49.645ZM154.089 45.382C153.907 46.362 153.501 47.216 152.871 47.944C152.255 48.672 151.485 49.197 150.561 49.519L152.787 55H149.847L147.81 49.897H145.395L144.492 55H141.594L144.177 40.3H149.91C151.24 40.3 152.325 40.811 153.165 41.833C154.019 42.855 154.327 44.038 154.089 45.382ZM150.372 46.726C150.82 46.306 151.1 45.788 151.212 45.172C151.324 44.556 151.212 44.045 150.876 43.639C150.54 43.219 150.057 43.009 149.427 43.009H146.592L145.836 47.356H148.818C149.406 47.356 149.924 47.146 150.372 46.726Z" fill="#000"/>
<path d="M95.0686 64.0339L95.0686 64.0339L92.9497 84.8459L92.9497 84.8459C92.8298 86.0237 93.7536 87.0473 94.9375 87.0485L95.0686 64.0339ZM95.0686 64.0339C95.1726 63.0123 96.0334 62.2355 97.0603 62.2365L151.334 62.2891C152.518 62.2902 153.442 63.314 153.322 64.4916L153.322 64.4916L151.203 85.3036C151.099 86.3251 150.239 87.102 149.211 87.1011C149.211 87.1011 149.211 87.1011 149.211 87.1011L94.9375 87.0485L95.0686 64.0339Z" stroke="#00D3FF" stroke-width="2"/>
<path d="M106.439 79.5301C104.964 79.5423 103.742 79.0625 102.772 78.0906C101.803 77.1186 101.312 75.914 101.3 74.4767C101.288 73.0301 101.759 71.8175 102.712 70.8388C103.665 69.8508 104.879 69.3507 106.354 69.3384C107.24 69.331 108.059 69.5342 108.809 69.948C109.568 70.3523 110.161 70.9074 110.587 71.6132L108.929 72.5931C108.683 72.1564 108.334 71.8187 107.884 71.5797C107.434 71.3315 106.929 71.2097 106.369 71.2143C105.417 71.2223 104.65 71.5274 104.067 72.1296C103.493 72.7317 103.21 73.5088 103.218 74.4607C103.226 75.4034 103.522 76.1709 104.105 76.7634C104.698 77.3558 105.471 77.6481 106.423 77.6401C106.983 77.6355 107.486 77.5099 107.932 77.2635C108.387 77.0077 108.729 76.6642 108.959 76.2329L110.633 77.185C110.219 77.8978 109.64 78.4673 108.897 78.8935C108.154 79.3104 107.335 79.5226 106.439 79.5301ZM115.185 79.4571C114.214 79.4652 113.396 79.2574 112.73 78.8336C112.064 78.4005 111.592 77.8117 111.315 77.0673L112.959 76.0876C113.35 77.083 114.105 77.5761 115.225 77.5667C115.767 77.5622 116.162 77.4609 116.413 77.2628C116.663 77.0647 116.787 76.8164 116.785 76.5177C116.782 76.1724 116.626 75.9077 116.316 75.7236C116.006 75.5302 115.454 75.3248 114.659 75.1074C114.219 74.9804 113.845 74.8528 113.536 74.7247C113.236 74.5966 112.931 74.4264 112.621 74.2143C112.321 73.9928 112.09 73.7147 111.928 73.3801C111.767 73.0454 111.684 72.6541 111.681 72.2061C111.673 71.3195 111.98 70.6122 112.601 70.0844C113.231 69.5471 113.99 69.2748 114.876 69.2674C115.669 69.2608 116.366 69.451 116.967 69.838C117.577 70.2156 118.053 70.7483 118.394 71.4361L116.778 72.3876C116.379 71.5509 115.75 71.1361 114.892 71.1433C114.49 71.1466 114.174 71.2426 113.942 71.4312C113.72 71.6104 113.61 71.8447 113.612 72.134C113.615 72.442 113.743 72.6929 113.996 72.8868C114.259 73.0713 114.756 73.2725 115.485 73.4904C115.785 73.5813 116.009 73.6541 116.159 73.7088C116.318 73.7542 116.529 73.8318 116.791 73.9416C117.063 74.042 117.269 74.1383 117.41 74.2304C117.56 74.3225 117.729 74.4471 117.917 74.6042C118.105 74.7613 118.246 74.9235 118.341 75.0907C118.445 75.2578 118.531 75.4625 118.598 75.7046C118.675 75.9373 118.714 76.1936 118.716 76.4736C118.724 77.3789 118.399 78.1003 117.74 78.6378C117.091 79.1752 116.24 79.4484 115.185 79.4571ZM121.612 74.0274C121.38 74.2627 121.101 74.3817 120.775 74.3844C120.448 74.3871 120.167 74.2728 119.932 74.0414C119.697 73.81 119.578 73.531 119.575 73.2043C119.572 72.8777 119.686 72.5967 119.918 72.3615C120.149 72.1262 120.428 72.0072 120.755 72.0045C121.082 72.0017 121.362 72.1161 121.598 72.3474C121.833 72.5788 121.952 72.8578 121.955 73.1845C121.957 73.5112 121.843 73.7921 121.612 74.0274ZM121.654 79.0392C121.422 79.2745 121.143 79.3935 120.816 79.3962C120.49 79.3989 120.209 79.2846 119.974 79.0532C119.738 78.8218 119.619 78.5428 119.617 78.2162C119.614 77.8895 119.728 77.6085 119.96 77.3733C120.191 77.138 120.47 77.019 120.797 77.0163C121.123 77.0136 121.404 77.1279 121.64 77.3593C121.875 77.5907 121.994 77.8697 121.997 78.1963C121.999 78.523 121.885 78.8039 121.654 79.0392ZM133.169 73.847L133.175 74.603C133.187 76.003 132.748 77.1407 131.859 78.0161C130.971 78.8915 129.817 79.3352 128.398 79.347C126.886 79.3596 125.627 78.8801 124.62 77.9084C123.623 76.9274 123.118 75.7276 123.106 74.3089C123.094 72.881 123.574 71.6683 124.546 70.6708C125.527 69.6733 126.746 69.1684 128.201 69.1563C129.116 69.1487 129.953 69.3517 130.713 69.7654C131.472 70.1697 132.065 70.7155 132.49 71.4026L130.846 72.3684C130.61 71.969 130.252 71.6453 129.774 71.3973C129.305 71.1492 128.782 71.0275 128.203 71.0323C127.27 71.0401 126.502 71.3545 125.901 71.9756C125.309 72.5872 125.016 73.3597 125.024 74.293C125.032 75.2169 125.342 75.9797 125.953 76.5813C126.574 77.1735 127.389 77.4654 128.397 77.457C129.143 77.4507 129.758 77.2823 130.241 76.9516C130.732 76.6115 131.065 76.1513 131.237 75.5712L128.269 75.596L128.255 73.888L133.169 73.847ZM142.822 77.7567C141.841 78.7449 140.641 79.245 139.222 79.2568C137.804 79.2686 136.596 78.7887 135.598 77.8169C134.61 76.8358 134.11 75.6313 134.098 74.2033C134.086 72.7754 134.566 71.5673 135.538 70.5792C136.519 69.5816 137.719 69.077 139.137 69.0651C140.556 69.0533 141.764 69.5379 142.762 70.519C143.759 71.4907 144.264 72.6905 144.276 74.1185C144.288 75.5464 143.803 76.7592 142.822 77.7567ZM136.945 76.4897C137.557 77.0819 138.311 77.3743 139.207 77.3668C140.103 77.3594 140.851 77.0545 141.453 76.4521C142.055 75.8404 142.351 75.0679 142.344 74.1346C142.336 73.2013 142.026 72.4338 141.414 71.8322C140.803 71.2307 140.049 70.9336 139.153 70.9411C138.257 70.9485 137.508 71.2581 136.907 71.8698C136.305 72.4815 136.008 73.254 136.016 74.1873C136.024 75.1206 136.333 75.8881 136.945 76.4897Z" fill="#000"/>
</svg>
