<svg width="100" height="100" viewBox="0 0 100 100" fill="none" xmlns="http://www.w3.org/2000/svg">
<path opacity="0.25" d="M50.0001 86.5613C29.8074 86.5613 13.4381 70.1919 13.4381 49.9993C13.4381 29.8067 29.8075 13.4374 50.0001 13.4374C70.1927 13.4374 86.562 29.8067 86.562 49.9993C86.562 70.1919 70.1927 86.5613 50.0001 86.5613ZM50.0001 13.792C30.0033 13.792 13.7928 30.0026 13.7928 49.9993C13.7928 69.9961 30.0033 86.2066 50.0001 86.2066C69.9968 86.2066 86.2073 69.9961 86.2074 49.9993C86.2074 30.0026 69.9968 13.792 50.0001 13.792Z" fill="url(#paint0_linear)"/>
<g filter="url(#filter0_d)">
<path d="M80.7694 31.5631C81.1162 31.3553 81.2295 30.9052 81.0148 30.5626C78.2099 26.0871 74.4695 22.2715 70.0507 19.3782C69.7125 19.1567 69.2602 19.261 69.0456 19.6036C68.8309 19.9462 68.9351 20.3974 69.2732 20.6191C73.4964 23.3894 77.0729 27.0378 79.7586 31.3153C79.9736 31.6577 80.4226 31.7709 80.7694 31.5631Z" fill="#FFE4AC"/>
</g>
<g filter="url(#filter1_d)">
<path d="M68.4372 80.7695C68.645 81.1163 69.095 81.2296 69.4376 81.0149C73.9131 78.21 77.7287 74.4696 80.6221 70.0508C80.8436 69.7125 80.7393 69.2603 80.3967 69.0456C80.0541 68.831 79.6029 68.9352 79.3812 69.2732C76.6108 73.4965 72.9625 77.073 68.6849 79.7587C68.3425 79.9737 68.2294 80.4226 68.4372 80.7695Z" fill="#FFE4AC"/>
</g>
<g filter="url(#filter2_d)">
<path d="M19.2306 68.4369C18.8838 68.6447 18.7705 69.0948 18.9852 69.4374C21.7901 73.9129 25.5305 77.7285 29.9493 80.6218C30.2875 80.8433 30.7398 80.739 30.9544 80.3964C31.1691 80.0538 31.0649 79.6026 30.7268 79.3809C26.5036 76.6106 22.9271 72.9622 20.2414 68.6847C20.0264 68.3423 19.5774 68.2291 19.2306 68.4369Z" fill="#FFE4AC"/>
</g>
<g filter="url(#filter3_d)">
<path d="M31.5628 19.2305C31.355 18.8837 30.905 18.7704 30.5624 18.9851C26.0869 21.79 22.2713 25.5304 19.3779 29.9492C19.1564 30.2875 19.2607 30.7397 19.6034 30.9544C19.946 31.1691 20.3971 31.0648 20.6188 30.7268C23.3892 26.5035 27.0375 22.9271 31.3151 20.2413C31.6575 20.0263 31.7706 19.5774 31.5628 19.2305Z" fill="#FFE4AC"/>
</g>
<g filter="url(#filter4_d)">
<path d="M85.8681 50.3933C86.2724 50.3977 86.5973 50.7291 86.5847 51.1332C86.5761 51.4117 86.5643 51.69 86.5493 51.9681C86.5276 52.3719 86.1758 52.6745 85.7726 52.6447C85.3694 52.6149 85.0675 52.2639 85.0889 51.8602C85.102 51.6126 85.1125 51.3649 85.1204 51.1171C85.1333 50.713 85.4638 50.3889 85.8681 50.3933Z" fill="#FFE4AC"/>
</g>
<g filter="url(#filter5_d)">
<path d="M84.7944 58.7202C85.1865 58.8185 85.4255 59.2163 85.3194 59.6064C85.2463 59.8752 85.1701 60.1432 85.0909 60.4103C84.9759 60.7979 84.5634 61.0105 84.1781 60.8878C83.7929 60.765 83.5809 60.3535 83.6956 59.9658C83.7659 59.7281 83.8337 59.4896 83.8989 59.2504C84.0054 58.8604 84.4022 58.6219 84.7944 58.7202Z" fill="#FFE4AC"/>
</g>
<g filter="url(#filter6_d)">
<path d="M84.4548 40.1651C84.8431 40.0543 85.2485 40.2791 85.3516 40.6695C85.4226 40.9386 85.4905 41.2084 85.5554 41.479C85.6495 41.8718 85.3988 42.2617 85.0043 42.348C84.6098 42.4342 84.2208 42.1841 84.1263 41.7914C84.0684 41.5506 84.008 41.3105 83.945 41.071C83.8423 40.6804 84.0664 40.276 84.4548 40.1651Z" fill="#FFE4AC"/>
</g>
<g filter="url(#filter7_d)">
<path d="M14.1343 50.5823C13.7301 50.5889 13.3963 50.2665 13.3978 49.8622C13.3988 49.5836 13.4031 49.3051 13.4105 49.0266C13.4212 48.6224 13.7647 48.3103 14.1685 48.3291C14.5724 48.348 14.8837 48.6906 14.8733 49.0948C14.8669 49.3426 14.8631 49.5905 14.862 49.8384C14.8601 50.2427 14.5386 50.5758 14.1343 50.5823Z" fill="#FFE4AC"/>
</g>
<g filter="url(#filter8_d)">
<path d="M15.2056 41.2798C14.8135 41.1815 14.5745 40.7837 14.6806 40.3936C14.7537 40.1248 14.8299 39.8568 14.9091 39.5897C15.0241 39.2021 15.4366 38.9895 15.8219 39.1122C16.2071 39.235 16.4191 39.6465 16.3045 40.0342C16.2341 40.2719 16.1664 40.5104 16.1011 40.7496C15.9947 41.1396 15.5978 41.3781 15.2056 41.2798Z" fill="#FFE4AC"/>
</g>
<g filter="url(#filter9_d)">
<path d="M15.5452 59.8335C15.1569 59.9444 14.7515 59.7196 14.6484 59.3291C14.5774 59.0601 14.5095 58.7902 14.4446 58.5196C14.3505 58.1269 14.6012 57.7369 14.9957 57.6507C15.3902 57.5645 15.7792 57.8146 15.8737 58.2073C15.9316 58.448 15.992 58.6882 16.055 58.9276C16.1577 59.3182 15.9336 59.7227 15.5452 59.8335Z" fill="#FFE4AC"/>
</g>
<defs>
<filter id="filter0_d" x="60.769" y="9.14822" width="28.5175" height="32.6326" filterUnits="userSpaceOnUse" color-interpolation-filters="sRGB">
<feFlood flood-opacity="0" result="BackgroundImageFix"/>
<feColorMatrix in="SourceAlpha" type="matrix" values="0 0 0 0 0 0 0 0 0 0 0 0 0 0 0 0 0 0 127 0"/>
<feOffset/>
<feGaussianBlur stdDeviation="4"/>
<feColorMatrix type="matrix" values="0 0 0 0 1 0 0 0 0 0.745098 0 0 0 0 0.211765 0 0 0 1 0"/>
<feBlend mode="normal" in2="BackgroundImageFix" result="effect1_dropShadow"/>
<feBlend mode="normal" in="SourceGraphic" in2="effect1_dropShadow" result="shape"/>
</filter>
<filter id="filter1_d" x="58.2192" y="60.769" width="32.6326" height="28.5175" filterUnits="userSpaceOnUse" color-interpolation-filters="sRGB">
<feFlood flood-opacity="0" result="BackgroundImageFix"/>
<feColorMatrix in="SourceAlpha" type="matrix" values="0 0 0 0 0 0 0 0 0 0 0 0 0 0 0 0 0 0 127 0"/>
<feOffset/>
<feGaussianBlur stdDeviation="4"/>
<feColorMatrix type="matrix" values="0 0 0 0 1 0 0 0 0 0.745098 0 0 0 0 0.211765 0 0 0 1 0"/>
<feBlend mode="normal" in2="BackgroundImageFix" result="effect1_dropShadow"/>
<feBlend mode="normal" in="SourceGraphic" in2="effect1_dropShadow" result="shape"/>
</filter>
<filter id="filter2_d" x="10.7134" y="58.2192" width="28.5175" height="32.6326" filterUnits="userSpaceOnUse" color-interpolation-filters="sRGB">
<feFlood flood-opacity="0" result="BackgroundImageFix"/>
<feColorMatrix in="SourceAlpha" type="matrix" values="0 0 0 0 0 0 0 0 0 0 0 0 0 0 0 0 0 0 127 0"/>
<feOffset/>
<feGaussianBlur stdDeviation="4"/>
<feColorMatrix type="matrix" values="0 0 0 0 1 0 0 0 0 0.745098 0 0 0 0 0.211765 0 0 0 1 0"/>
<feBlend mode="normal" in2="BackgroundImageFix" result="effect1_dropShadow"/>
<feBlend mode="normal" in="SourceGraphic" in2="effect1_dropShadow" result="shape"/>
</filter>
<filter id="filter3_d" x="9.14795" y="10.7136" width="32.6326" height="28.5175" filterUnits="userSpaceOnUse" color-interpolation-filters="sRGB">
<feFlood flood-opacity="0" result="BackgroundImageFix"/>
<feColorMatrix in="SourceAlpha" type="matrix" values="0 0 0 0 0 0 0 0 0 0 0 0 0 0 0 0 0 0 127 0"/>
<feOffset/>
<feGaussianBlur stdDeviation="4"/>
<feColorMatrix type="matrix" values="0 0 0 0 1 0 0 0 0 0.745098 0 0 0 0 0.211765 0 0 0 1 0"/>
<feBlend mode="normal" in2="BackgroundImageFix" result="effect1_dropShadow"/>
<feBlend mode="normal" in="SourceGraphic" in2="effect1_dropShadow" result="shape"/>
</filter>
<filter id="filter4_d" x="76.7275" y="42.2136" width="18.2239" height="18.6103" filterUnits="userSpaceOnUse" color-interpolation-filters="sRGB">
<feFlood flood-opacity="0" result="BackgroundImageFix"/>
<feColorMatrix in="SourceAlpha" type="matrix" values="0 0 0 0 0 0 0 0 0 0 0 0 0 0 0 0 0 0 127 0"/>
<feOffset/>
<feGaussianBlur stdDeviation="4"/>
<feColorMatrix type="matrix" values="0 0 0 0 1 0 0 0 0 0.745098 0 0 0 0 0.211765 0 0 0 1 0"/>
<feBlend mode="normal" in2="BackgroundImageFix" result="effect1_dropShadow"/>
<feBlend mode="normal" in="SourceGraphic" in2="effect1_dropShadow" result="shape"/>
</filter>
<filter id="filter5_d" x="75.2295" y="50.4281" width="18.5502" height="18.7602" filterUnits="userSpaceOnUse" color-interpolation-filters="sRGB">
<feFlood flood-opacity="0" result="BackgroundImageFix"/>
<feColorMatrix in="SourceAlpha" type="matrix" values="0 0 0 0 0 0 0 0 0 0 0 0 0 0 0 0 0 0 127 0"/>
<feOffset/>
<feGaussianBlur stdDeviation="4"/>
<feColorMatrix type="matrix" values="0 0 0 0 1 0 0 0 0 0.745098 0 0 0 0 0.211765 0 0 0 1 0"/>
<feBlend mode="normal" in2="BackgroundImageFix" result="effect1_dropShadow"/>
<feBlend mode="normal" in="SourceGraphic" in2="effect1_dropShadow" result="shape"/>
</filter>
<filter id="filter6_d" x="75.9199" y="32.1368" width="17.6551" height="18.2281" filterUnits="userSpaceOnUse" color-interpolation-filters="sRGB">
<feFlood flood-opacity="0" result="BackgroundImageFix"/>
<feColorMatrix in="SourceAlpha" type="matrix" values="0 0 0 0 0 0 0 0 0 0 0 0 0 0 0 0 0 0 127 0"/>
<feOffset/>
<feGaussianBlur stdDeviation="4"/>
<feColorMatrix type="matrix" values="0 0 0 0 1 0 0 0 0 0.745098 0 0 0 0 0.211765 0 0 0 1 0"/>
<feBlend mode="normal" in2="BackgroundImageFix" result="effect1_dropShadow"/>
<feBlend mode="normal" in="SourceGraphic" in2="effect1_dropShadow" result="shape"/>
</filter>
<filter id="filter7_d" x="5.04346" y="40.1648" width="18.1778" height="18.5834" filterUnits="userSpaceOnUse" color-interpolation-filters="sRGB">
<feFlood flood-opacity="0" result="BackgroundImageFix"/>
<feColorMatrix in="SourceAlpha" type="matrix" values="0 0 0 0 0 0 0 0 0 0 0 0 0 0 0 0 0 0 127 0"/>
<feOffset/>
<feGaussianBlur stdDeviation="4"/>
<feColorMatrix type="matrix" values="0 0 0 0 1 0 0 0 0 0.745098 0 0 0 0 0.211765 0 0 0 1 0"/>
<feBlend mode="normal" in2="BackgroundImageFix" result="effect1_dropShadow"/>
<feBlend mode="normal" in="SourceGraphic" in2="effect1_dropShadow" result="shape"/>
</filter>
<filter id="filter8_d" x="6.22021" y="30.8117" width="18.5502" height="18.7602" filterUnits="userSpaceOnUse" color-interpolation-filters="sRGB">
<feFlood flood-opacity="0" result="BackgroundImageFix"/>
<feColorMatrix in="SourceAlpha" type="matrix" values="0 0 0 0 0 0 0 0 0 0 0 0 0 0 0 0 0 0 127 0"/>
<feOffset/>
<feGaussianBlur stdDeviation="4"/>
<feColorMatrix type="matrix" values="0 0 0 0 1 0 0 0 0 0.745098 0 0 0 0 0.211765 0 0 0 1 0"/>
<feBlend mode="normal" in2="BackgroundImageFix" result="effect1_dropShadow"/>
<feBlend mode="normal" in="SourceGraphic" in2="effect1_dropShadow" result="shape"/>
</filter>
<filter id="filter9_d" x="6.4248" y="49.6337" width="17.6551" height="18.2281" filterUnits="userSpaceOnUse" color-interpolation-filters="sRGB">
<feFlood flood-opacity="0" result="BackgroundImageFix"/>
<feColorMatrix in="SourceAlpha" type="matrix" values="0 0 0 0 0 0 0 0 0 0 0 0 0 0 0 0 0 0 127 0"/>
<feOffset/>
<feGaussianBlur stdDeviation="4"/>
<feColorMatrix type="matrix" values="0 0 0 0 1 0 0 0 0 0.745098 0 0 0 0 0.211765 0 0 0 1 0"/>
<feBlend mode="normal" in2="BackgroundImageFix" result="effect1_dropShadow"/>
<feBlend mode="normal" in="SourceGraphic" in2="effect1_dropShadow" result="shape"/>
</filter>
<linearGradient id="paint0_linear" x1="86.562" y1="49.9993" x2="13.4381" y2="49.9993" gradientUnits="userSpaceOnUse">
<stop stop-color="#1C1822" stop-opacity="0"/>
<stop offset="0.479167" stop-color="white"/>
<stop offset="1" stop-color="#1C1822" stop-opacity="0"/>
</linearGradient>
</defs>
</svg>
