<svg width="18" height="18" viewBox="0 0 18 18" fill="none" xmlns="http://www.w3.org/2000/svg">
<path fill-rule="evenodd" clip-rule="evenodd" d="M2.6 9C2.6 7.30261 3.27428 5.67474 4.47451 4.47451C5.67474 3.27428 7.30261 2.6 9 2.6C10.6663 2.6064 12.2825 3.16958 13.592 4.2H12.2C11.9878 4.2 11.7844 4.28425 11.6343 4.43428C11.4843 4.58431 11.4 4.78783 11.4 5C11.4 5.21217 11.4843 5.41569 11.6343 5.56572C11.7844 5.71575 11.9878 5.8 12.2 5.8H15.4C15.6122 5.8 15.8156 5.71575 15.9657 5.56572C16.1157 5.41569 16.2 5.21217 16.2 5V1.8C16.2 1.58783 16.1157 1.38431 15.9657 1.23428C15.8156 1.08425 15.6122 1 15.4 1C15.1878 1 14.9844 1.08425 14.8343 1.23428C14.6843 1.38431 14.6 1.58783 14.6 1.8V2.95996C13.0061 1.69689 11.0337 1.00659 9 1C6.87827 1 4.84343 1.84287 3.34314 3.34316C1.84285 4.84346 1 6.87827 1 9C1 9.21217 1.0843 9.41569 1.23433 9.56572C1.38436 9.71575 1.58783 9.8 1.8 9.8C2.01217 9.8 2.21564 9.71575 2.36567 9.56572C2.5157 9.41569 2.6 9.21217 2.6 9ZM16.2 8.2C15.9878 8.2 15.7844 8.28425 15.6343 8.43428C15.4843 8.58431 15.4 8.78783 15.4 9C15.4 10.6974 14.7257 12.3253 13.5255 13.5255C12.3253 14.7257 10.6974 15.4 9 15.4C7.33375 15.3936 5.71746 14.8304 4.40801 13.8H5.8C6.01217 13.8 6.21564 13.7158 6.36567 13.5657C6.5157 13.4157 6.6 13.2122 6.6 13C6.6 12.7878 6.5157 12.5843 6.36567 12.4343C6.21564 12.2842 6.01217 12.2 5.8 12.2H2.6C2.38783 12.2 2.18436 12.2842 2.03433 12.4343C1.8843 12.5843 1.8 12.7878 1.8 13V16.2C1.8 16.4122 1.8843 16.6157 2.03433 16.7657C2.18436 16.9158 2.38783 17 2.6 17C2.81217 17 3.01564 16.9158 3.16567 16.7657C3.3157 16.6157 3.4 16.4122 3.4 16.2V15.04C4.99392 16.3031 6.96631 16.9934 9 17C11.1217 17 13.1566 16.1571 14.6569 14.6568C16.1572 13.1565 17 11.1217 17 9C17 8.78783 16.9157 8.58431 16.7657 8.43428C16.6156 8.28425 16.4122 8.2 16.2 8.2Z" fill="#fff" stroke="#fff" stroke-width="0.3"/>
</svg>
