<svg width="46" height="46" viewBox="0 0 46 46" fill="none" xmlns="http://www.w3.org/2000/svg">
<g filter="url(#filter0_d)">
<path fill-rule="evenodd" clip-rule="evenodd" d="M28.8182 11H17.1818C15.9768 11 15 11.9768 15 13.1818V23.3636C15 24.5686 15.9768 25.5455 17.1818 25.5455H18.6364V26.2727C18.6364 26.6744 18.962 27 19.3636 27C19.7653 27 20.0909 26.6744 20.0909 26.2727V25.5455H25.9091V26.2727C25.9091 26.6744 26.2347 27 26.6364 27C27.038 27 27.3636 26.6744 27.3636 26.2727V25.5455H28.8182C30.0232 25.5455 31 24.5686 31 23.3636V13.1818C31 11.9768 30.0232 11 28.8182 11ZM29.5463 23.3636C29.5463 23.7653 29.2207 24.0909 28.819 24.0909H17.1826C16.781 24.0909 16.4554 23.7653 16.4554 23.3636V13.1818C16.4554 12.7801 16.781 12.4545 17.1826 12.4545H28.819C29.2207 12.4545 29.5463 12.7801 29.5463 13.1818V23.3636Z" fill="#00D3FF"/>
<path d="M23.2534 19.7273C24.0567 19.7273 24.7079 19.0761 24.7079 18.2727C24.7079 17.4694 24.0567 16.8182 23.2534 16.8182C22.4501 16.8182 21.7988 17.4694 21.7988 18.2727C21.7988 19.0761 22.4501 19.7273 23.2534 19.7273Z" fill="#00D3FF"/>
<path fill-rule="evenodd" clip-rule="evenodd" d="M26.811 20.7964C27.8827 19.2846 27.8827 17.2609 26.811 15.7491L27.6182 14.9346C27.8258 14.7568 27.9162 14.4777 27.8523 14.2121C27.7884 13.9464 27.5809 13.739 27.3153 13.6751C27.0496 13.6111 26.7705 13.7016 26.5928 13.9091L25.7782 14.7164C24.2665 13.6447 22.2427 13.6447 20.731 14.7164L19.9164 13.9091C19.6279 13.662 19.1977 13.6786 18.9291 13.9472C18.6605 14.2159 18.6438 14.646 18.891 14.9346L19.6982 15.7491C18.6265 17.2609 18.6265 19.2846 19.6982 20.7964L18.891 21.6109C18.6834 21.7887 18.593 22.0677 18.6569 22.3334C18.7208 22.5991 18.9283 22.8065 19.1939 22.8704C19.4596 22.9343 19.7387 22.8439 19.9164 22.6364L20.731 21.8291C22.2427 22.9008 24.2665 22.9008 25.7782 21.8291L26.5928 22.6364C26.7705 22.8439 27.0496 22.9343 27.3153 22.8704C27.5809 22.8065 27.7884 22.5991 27.8523 22.3334C27.9162 22.0677 27.8258 21.7887 27.6182 21.6109L26.811 20.7964ZM20.346 18.2727C20.346 16.6661 21.6484 15.3636 23.2551 15.3636C24.8617 15.3636 26.1642 16.6661 26.1642 18.2727C26.1642 19.8794 24.8617 21.1818 23.2551 21.1818C21.6484 21.1818 20.346 19.8794 20.346 18.2727Z" fill="#00D3FF"/>
</g>
<defs>
<filter id="filter0_d" x="0" y="0" width="46" height="46" filterUnits="userSpaceOnUse" color-interpolation-filters="sRGB">
<feFlood flood-opacity="0" result="BackgroundImageFix"/>
<feColorMatrix in="SourceAlpha" type="matrix" values="0 0 0 0 0 0 0 0 0 0 0 0 0 0 0 0 0 0 127 0"/>
<feOffset dy="4"/>
<feGaussianBlur stdDeviation="7.5"/>
<feColorMatrix type="matrix" values="0 0 0 0 0 0 0 0 0 0.827451 0 0 0 0 1 0 0 0 0.25 0"/>
<feBlend mode="normal" in2="BackgroundImageFix" result="effect1_dropShadow"/>
<feBlend mode="normal" in="SourceGraphic" in2="effect1_dropShadow" result="shape"/>
</filter>
</defs>
</svg>
