<svg width="22" height="22" viewBox="0 0 22 22" fill="none" xmlns="http://www.w3.org/2000/svg">
<path fill-rule="evenodd" clip-rule="evenodd" d="M19 1.52588e-05H3C1.34315 1.52588e-05 0 1.34316 0 3.00002V17C0 18.6569 1.34315 20 3 20H5V21C5 21.5523 5.44772 22 6 22C6.55228 22 7 21.5523 7 21V20H15V21C15 21.5523 15.4477 22 16 22C16.5523 22 17 21.5523 17 21V20H19C20.6569 20 22 18.6569 22 17V3.00002C22 1.34316 20.6569 1.52588e-05 19 1.52588e-05ZM20 17C20 17.5523 19.5523 18 19 18H3C2.44772 18 2 17.5523 2 17V3.00002C2 2.44773 2.44772 2.00002 3 2.00002H19C19.5523 2.00002 20 2.44773 20 3.00002V17Z" fill="#00D3FF"/>
<path d="M11.3496 12C12.4542 12 13.3496 11.1046 13.3496 10C13.3496 8.89545 12.4542 8.00002 11.3496 8.00002C10.245 8.00002 9.34961 8.89545 9.34961 10C9.34961 11.1046 10.245 12 11.3496 12Z" fill="#00D3FF"/>
<path fill-rule="evenodd" clip-rule="evenodd" d="M16.2396 13.47C17.7132 11.3913 17.7132 8.60867 16.2396 6.53001L17.3496 5.41001C17.635 5.16562 17.7593 4.78189 17.6714 4.41659C17.5835 4.05129 17.2983 3.76607 16.933 3.6782C16.5677 3.59033 16.184 3.71464 15.9396 4.00001L14.8196 5.11001C12.7409 3.63642 9.95824 3.63642 7.87958 5.11001L6.75958 4.00001C6.36282 3.66024 5.77138 3.68308 5.40201 4.05245C5.03264 4.42182 5.0098 5.01325 5.34958 5.41001L6.45958 6.53001C4.98598 8.60867 4.98598 11.3913 6.45958 13.47L5.34958 14.59C5.0642 14.8344 4.93989 15.2181 5.02777 15.5834C5.11564 15.9487 5.40086 16.234 5.76616 16.3218C6.13146 16.4097 6.51519 16.2854 6.75958 16L7.87958 14.89C9.95824 16.3636 12.7409 16.3636 14.8196 14.89L15.9396 16C16.184 16.2854 16.5677 16.4097 16.933 16.3218C17.2983 16.234 17.5835 15.9487 17.6714 15.5834C17.7593 15.2181 17.635 14.8344 17.3496 14.59L16.2396 13.47ZM7.34958 10C7.34958 7.79087 9.14044 6.00001 11.3496 6.00001C13.5587 6.00001 15.3496 7.79087 15.3496 10C15.3496 12.2092 13.5587 14 11.3496 14C9.14044 14 7.34958 12.2092 7.34958 10Z" fill="#00D3FF"/>
</svg>
