<svg width="20" height="23" viewBox="0 0 20 23" fill="none" xmlns="http://www.w3.org/2000/svg">
<path fill-rule="evenodd" clip-rule="evenodd" d="M13.7 11.72C15.7148 10.1417 16.5067 7.45907 15.6719 5.03963C14.8371 2.62019 12.5594 0.996658 10 0.996658C7.44059 0.996658 5.16294 2.62019 4.32814 5.03963C3.49333 7.45907 4.28517 10.1417 6.3 11.72C2.49957 13.2336 0.00422151 16.9093 0 21V22C0 22.5523 0.447715 23 1 23C1.55228 23 2 22.5523 2 22V21C2 16.5817 5.58172 13 10 13C14.4183 13 18 16.5817 18 21V22C18 22.5523 18.4477 23 19 23C19.5523 23 20 22.5523 20 22V21C19.9958 16.9093 17.5004 13.2336 13.7 11.72ZM6 7C6 4.79087 7.79086 3 10 3C12.2091 3 14 4.79087 14 7C14 9.20914 12.2091 11 10 11C8.93913 11 7.92172 10.5786 7.17157 9.82843C6.42143 9.07829 6 8.06087 6 7Z" fill="#00D3FF"/>
</svg>
