<svg width="100" height="100" viewBox="0 0 100 100" fill="none" xmlns="http://www.w3.org/2000/svg">
<path opacity="0.25" d="M50.0005 86.5613C29.8079 86.5613 13.4386 70.1919 13.4386 49.9993C13.4386 29.8067 29.8079 13.4374 50.0005 13.4374C70.1932 13.4374 86.5625 29.8067 86.5625 49.9993C86.5625 70.1919 70.1932 86.5613 50.0005 86.5613ZM50.0005 13.792C30.0038 13.792 13.7933 30.0026 13.7933 49.9993C13.7933 69.9961 30.0038 86.2066 50.0005 86.2066C69.9973 86.2066 86.2078 69.9961 86.2078 49.9993C86.2078 30.0026 69.9973 13.792 50.0005 13.792Z" fill="url(#paint0_linear)"/>
<g filter="url(#filter0_d)">
<path d="M80.7689 31.5631C81.1157 31.3553 81.229 30.9052 81.0143 30.5626C78.2094 26.0871 74.469 22.2715 70.0502 19.3782C69.712 19.1567 69.2597 19.261 69.0451 19.6036C68.8304 19.9462 68.9346 20.3974 69.2727 20.6191C73.4959 23.3894 77.0724 27.0378 79.7581 31.3153C79.9731 31.6577 80.4221 31.7709 80.7689 31.5631Z" fill="#FF5B5B"/>
</g>
<g filter="url(#filter1_d)">
<path d="M68.4362 80.7695C68.644 81.1163 69.0941 81.2296 69.4367 81.0149C73.9122 78.21 77.7278 74.4696 80.6211 70.0508C80.8426 69.7125 80.7383 69.2603 80.3957 69.0456C80.0531 68.831 79.6019 68.9352 79.3802 69.2732C76.6099 73.4965 72.9615 77.073 68.684 79.7587C68.3416 79.9737 68.2284 80.4226 68.4362 80.7695Z" fill="#FF5B5B"/>
</g>
<g filter="url(#filter2_d)">
<path d="M19.2311 68.4369C18.8843 68.6447 18.771 69.0948 18.9857 69.4374C21.7906 73.9129 25.531 77.7285 29.9498 80.6218C30.288 80.8433 30.7403 80.739 30.9549 80.3964C31.1696 80.0538 31.0654 79.6026 30.7273 79.3809C26.5041 76.6106 22.9276 72.9622 20.2419 68.6847C20.0269 68.3423 19.5779 68.2291 19.2311 68.4369Z" fill="#FF5B5B"/>
</g>
<g filter="url(#filter3_d)">
<path d="M31.5638 19.2305C31.356 18.8837 30.9059 18.7704 30.5633 18.9851C26.0878 21.79 22.2722 25.5304 19.3789 29.9492C19.1574 30.2875 19.2617 30.7397 19.6043 30.9544C19.9469 31.1691 20.3981 31.0648 20.6198 30.7268C23.3901 26.5035 27.0385 22.9271 31.316 20.2413C31.6585 20.0263 31.7716 19.5774 31.5638 19.2305Z" fill="#FF5B5B"/>
</g>
<g filter="url(#filter4_d)">
<path d="M85.8681 50.3933C86.2724 50.3977 86.5973 50.7291 86.5847 51.1332C86.5761 51.4117 86.5643 51.69 86.5493 51.9681C86.5276 52.3719 86.1758 52.6745 85.7726 52.6447C85.3694 52.6149 85.0675 52.2639 85.0889 51.8602C85.102 51.6126 85.1125 51.3649 85.1204 51.1171C85.1333 50.713 85.4638 50.3889 85.8681 50.3933Z" fill="#FF5B5B"/>
</g>
<g filter="url(#filter5_d)">
<path d="M84.7953 58.7202C85.1875 58.8185 85.4265 59.2163 85.3204 59.6064C85.2473 59.8752 85.1711 60.1432 85.0918 60.4103C84.9769 60.7979 84.5643 61.0105 84.1791 60.8878C83.7939 60.765 83.5819 60.3535 83.6965 59.9658C83.7668 59.7281 83.8346 59.4896 83.8999 59.2504C84.0063 58.8604 84.4032 58.6219 84.7953 58.7202Z" fill="#FF5B5B"/>
</g>
<g filter="url(#filter6_d)">
<path d="M84.4553 40.1651C84.8436 40.0543 85.249 40.2791 85.3521 40.6695C85.4231 40.9386 85.491 41.2084 85.5559 41.479C85.65 41.8718 85.3993 42.2617 85.0048 42.348C84.6102 42.4342 84.2213 42.1841 84.1268 41.7914C84.0689 41.5506 84.0085 41.3105 83.9455 41.071C83.8428 40.6804 84.0669 40.276 84.4553 40.1651Z" fill="#FF5B5B"/>
</g>
<g filter="url(#filter7_d)">
<path d="M14.1333 50.5823C13.7291 50.5889 13.3953 50.2665 13.3968 49.8622C13.3979 49.5836 13.4021 49.3051 13.4095 49.0266C13.4203 48.6224 13.7637 48.3103 14.1675 48.3291C14.5714 48.348 14.8827 48.6906 14.8723 49.0948C14.8659 49.3426 14.8622 49.5905 14.861 49.8384C14.8592 50.2427 14.5376 50.5758 14.1333 50.5823Z" fill="#FF5B5B"/>
</g>
<g filter="url(#filter8_d)">
<path d="M15.2047 41.2798C14.8125 41.1815 14.5735 40.7837 14.6796 40.3936C14.7527 40.1248 14.8289 39.8568 14.9082 39.5897C15.0231 39.2021 15.4357 38.9895 15.8209 39.1122C16.2061 39.235 16.4181 39.6465 16.3035 40.0342C16.2332 40.2719 16.1654 40.5104 16.1001 40.7496C15.9937 41.1396 15.5968 41.3781 15.2047 41.2798Z" fill="#FF5B5B"/>
</g>
<g filter="url(#filter9_d)">
<path d="M15.5447 59.8335C15.1564 59.9444 14.751 59.7196 14.6479 59.3291C14.5769 59.0601 14.509 58.7902 14.4441 58.5196C14.35 58.1269 14.6007 57.7369 14.9952 57.6507C15.3898 57.5645 15.7787 57.8146 15.8732 58.2073C15.9311 58.448 15.9915 58.6882 16.0545 58.9276C16.1573 59.3182 15.9331 59.7227 15.5447 59.8335Z" fill="#FF5B5B"/>
</g>
<defs>
<filter id="filter0_d" x="60.7676" y="9.14822" width="28.5175" height="32.6326" filterUnits="userSpaceOnUse" color-interpolation-filters="sRGB">
<feFlood flood-opacity="0" result="BackgroundImageFix"/>
<feColorMatrix in="SourceAlpha" type="matrix" values="0 0 0 0 0 0 0 0 0 0 0 0 0 0 0 0 0 0 127 0"/>
<feOffset/>
<feGaussianBlur stdDeviation="4"/>
<feColorMatrix type="matrix" values="0 0 0 0 0.862745 0 0 0 0 0.223529 0 0 0 0 0.223529 0 0 0 1 0"/>
<feBlend mode="normal" in2="BackgroundImageFix" result="effect1_dropShadow"/>
<feBlend mode="normal" in="SourceGraphic" in2="effect1_dropShadow" result="shape"/>
</filter>
<filter id="filter1_d" x="58.2188" y="60.769" width="32.6326" height="28.5175" filterUnits="userSpaceOnUse" color-interpolation-filters="sRGB">
<feFlood flood-opacity="0" result="BackgroundImageFix"/>
<feColorMatrix in="SourceAlpha" type="matrix" values="0 0 0 0 0 0 0 0 0 0 0 0 0 0 0 0 0 0 127 0"/>
<feOffset/>
<feGaussianBlur stdDeviation="4"/>
<feColorMatrix type="matrix" values="0 0 0 0 0.862745 0 0 0 0 0.223529 0 0 0 0 0.223529 0 0 0 1 0"/>
<feBlend mode="normal" in2="BackgroundImageFix" result="effect1_dropShadow"/>
<feBlend mode="normal" in="SourceGraphic" in2="effect1_dropShadow" result="shape"/>
</filter>
<filter id="filter2_d" x="10.7148" y="58.2192" width="28.5175" height="32.6326" filterUnits="userSpaceOnUse" color-interpolation-filters="sRGB">
<feFlood flood-opacity="0" result="BackgroundImageFix"/>
<feColorMatrix in="SourceAlpha" type="matrix" values="0 0 0 0 0 0 0 0 0 0 0 0 0 0 0 0 0 0 127 0"/>
<feOffset/>
<feGaussianBlur stdDeviation="4"/>
<feColorMatrix type="matrix" values="0 0 0 0 0.862745 0 0 0 0 0.223529 0 0 0 0 0.223529 0 0 0 1 0"/>
<feBlend mode="normal" in2="BackgroundImageFix" result="effect1_dropShadow"/>
<feBlend mode="normal" in="SourceGraphic" in2="effect1_dropShadow" result="shape"/>
</filter>
<filter id="filter3_d" x="9.14844" y="10.7136" width="32.6326" height="28.5175" filterUnits="userSpaceOnUse" color-interpolation-filters="sRGB">
<feFlood flood-opacity="0" result="BackgroundImageFix"/>
<feColorMatrix in="SourceAlpha" type="matrix" values="0 0 0 0 0 0 0 0 0 0 0 0 0 0 0 0 0 0 127 0"/>
<feOffset/>
<feGaussianBlur stdDeviation="4"/>
<feColorMatrix type="matrix" values="0 0 0 0 0.862745 0 0 0 0 0.223529 0 0 0 0 0.223529 0 0 0 1 0"/>
<feBlend mode="normal" in2="BackgroundImageFix" result="effect1_dropShadow"/>
<feBlend mode="normal" in="SourceGraphic" in2="effect1_dropShadow" result="shape"/>
</filter>
<filter id="filter4_d" x="76.7266" y="42.2136" width="18.2239" height="18.6103" filterUnits="userSpaceOnUse" color-interpolation-filters="sRGB">
<feFlood flood-opacity="0" result="BackgroundImageFix"/>
<feColorMatrix in="SourceAlpha" type="matrix" values="0 0 0 0 0 0 0 0 0 0 0 0 0 0 0 0 0 0 127 0"/>
<feOffset/>
<feGaussianBlur stdDeviation="4"/>
<feColorMatrix type="matrix" values="0 0 0 0 0.862745 0 0 0 0 0.223529 0 0 0 0 0.223529 0 0 0 1 0"/>
<feBlend mode="normal" in2="BackgroundImageFix" result="effect1_dropShadow"/>
<feBlend mode="normal" in="SourceGraphic" in2="effect1_dropShadow" result="shape"/>
</filter>
<filter id="filter5_d" x="75.2305" y="50.4281" width="18.5502" height="18.7602" filterUnits="userSpaceOnUse" color-interpolation-filters="sRGB">
<feFlood flood-opacity="0" result="BackgroundImageFix"/>
<feColorMatrix in="SourceAlpha" type="matrix" values="0 0 0 0 0 0 0 0 0 0 0 0 0 0 0 0 0 0 127 0"/>
<feOffset/>
<feGaussianBlur stdDeviation="4"/>
<feColorMatrix type="matrix" values="0 0 0 0 0.862745 0 0 0 0 0.223529 0 0 0 0 0.223529 0 0 0 1 0"/>
<feBlend mode="normal" in2="BackgroundImageFix" result="effect1_dropShadow"/>
<feBlend mode="normal" in="SourceGraphic" in2="effect1_dropShadow" result="shape"/>
</filter>
<filter id="filter6_d" x="75.9199" y="32.1368" width="17.6551" height="18.2281" filterUnits="userSpaceOnUse" color-interpolation-filters="sRGB">
<feFlood flood-opacity="0" result="BackgroundImageFix"/>
<feColorMatrix in="SourceAlpha" type="matrix" values="0 0 0 0 0 0 0 0 0 0 0 0 0 0 0 0 0 0 127 0"/>
<feOffset/>
<feGaussianBlur stdDeviation="4"/>
<feColorMatrix type="matrix" values="0 0 0 0 0.862745 0 0 0 0 0.223529 0 0 0 0 0.223529 0 0 0 1 0"/>
<feBlend mode="normal" in2="BackgroundImageFix" result="effect1_dropShadow"/>
<feBlend mode="normal" in="SourceGraphic" in2="effect1_dropShadow" result="shape"/>
</filter>
<filter id="filter7_d" x="5.04297" y="40.1648" width="18.1778" height="18.5834" filterUnits="userSpaceOnUse" color-interpolation-filters="sRGB">
<feFlood flood-opacity="0" result="BackgroundImageFix"/>
<feColorMatrix in="SourceAlpha" type="matrix" values="0 0 0 0 0 0 0 0 0 0 0 0 0 0 0 0 0 0 127 0"/>
<feOffset/>
<feGaussianBlur stdDeviation="4"/>
<feColorMatrix type="matrix" values="0 0 0 0 0.862745 0 0 0 0 0.223529 0 0 0 0 0.223529 0 0 0 1 0"/>
<feBlend mode="normal" in2="BackgroundImageFix" result="effect1_dropShadow"/>
<feBlend mode="normal" in="SourceGraphic" in2="effect1_dropShadow" result="shape"/>
</filter>
<filter id="filter8_d" x="6.21875" y="30.8117" width="18.5502" height="18.7602" filterUnits="userSpaceOnUse" color-interpolation-filters="sRGB">
<feFlood flood-opacity="0" result="BackgroundImageFix"/>
<feColorMatrix in="SourceAlpha" type="matrix" values="0 0 0 0 0 0 0 0 0 0 0 0 0 0 0 0 0 0 127 0"/>
<feOffset/>
<feGaussianBlur stdDeviation="4"/>
<feColorMatrix type="matrix" values="0 0 0 0 0.862745 0 0 0 0 0.223529 0 0 0 0 0.223529 0 0 0 1 0"/>
<feBlend mode="normal" in2="BackgroundImageFix" result="effect1_dropShadow"/>
<feBlend mode="normal" in="SourceGraphic" in2="effect1_dropShadow" result="shape"/>
</filter>
<filter id="filter9_d" x="6.42383" y="49.6337" width="17.6551" height="18.2281" filterUnits="userSpaceOnUse" color-interpolation-filters="sRGB">
<feFlood flood-opacity="0" result="BackgroundImageFix"/>
<feColorMatrix in="SourceAlpha" type="matrix" values="0 0 0 0 0 0 0 0 0 0 0 0 0 0 0 0 0 0 127 0"/>
<feOffset/>
<feGaussianBlur stdDeviation="4"/>
<feColorMatrix type="matrix" values="0 0 0 0 0.862745 0 0 0 0 0.223529 0 0 0 0 0.223529 0 0 0 1 0"/>
<feBlend mode="normal" in2="BackgroundImageFix" result="effect1_dropShadow"/>
<feBlend mode="normal" in="SourceGraphic" in2="effect1_dropShadow" result="shape"/>
</filter>
<linearGradient id="paint0_linear" x1="86.5625" y1="49.9993" x2="13.4386" y2="49.9993" gradientUnits="userSpaceOnUse">
<stop stop-color="#1C1822" stop-opacity="0"/>
<stop offset="0.479167" stop-color="white"/>
<stop offset="1" stop-color="#1C1822" stop-opacity="0"/>
</linearGradient>
</defs>
</svg>
