<svg width="54" height="54" viewBox="0 0 54 54" fill="none" xmlns="http://www.w3.org/2000/svg">
<g filter="url(#filter0_d)">
<path fill-rule="evenodd" clip-rule="evenodd" d="M37.691 21.9074H28.0926V12.3091C28.0927 11.9581 27.9518 11.6219 27.7016 11.3758C27.4514 11.1297 27.1128 10.9943 26.762 11.0002C20.4597 11.1243 15.3281 16.1042 15.015 22.3999C14.702 28.6956 19.3142 34.16 25.5731 34.9088C25.693 34.9088 25.8021 34.9088 25.9112 34.9088V34.996H27.0019C33.5356 34.9973 38.8691 29.7704 38.9998 23.2381C39.0057 22.8872 38.8704 22.5486 38.6243 22.2984C38.3782 22.0482 38.0419 21.9073 37.691 21.9074ZM25.6053 32.7164C20.7007 32.0278 17.0773 27.7935 17.155 22.8414C17.2326 17.8893 20.987 13.7707 25.9107 13.2362V22.78C25.9107 23.1271 26.0486 23.46 26.2941 23.7055C26.5395 23.9509 26.8724 24.0888 27.2196 24.0888H36.8179C36.5242 26.7418 35.1628 29.1607 33.0474 30.7884C30.932 32.4161 28.245 33.1122 25.6053 32.7164Z" fill="#00D3FF"/>
<path fill-rule="evenodd" clip-rule="evenodd" d="M30.4925 20.8167H37.1131C37.535 20.815 37.9303 20.61 38.1747 20.266C38.4191 19.9221 38.4828 19.4815 38.3456 19.0824C37.1427 15.5966 34.4037 12.8575 30.9178 11.6546C30.5188 11.5175 30.0781 11.5811 29.7342 11.8256C29.3903 12.07 29.1853 12.4652 29.1836 12.8871V19.5078C29.1836 20.2307 29.7696 20.8167 30.4925 20.8167ZM31.365 14.196C33.2856 15.1571 34.8432 16.7146 35.8043 18.6352H31.365V14.196Z" fill="#00D3FF"/>
</g>
<defs>
<filter id="filter0_d" x="0" y="1.52588e-05" width="54" height="53.996" filterUnits="userSpaceOnUse" color-interpolation-filters="sRGB">
<feFlood flood-opacity="0" result="BackgroundImageFix"/>
<feColorMatrix in="SourceAlpha" type="matrix" values="0 0 0 0 0 0 0 0 0 0 0 0 0 0 0 0 0 0 127 0"/>
<feOffset dy="4"/>
<feGaussianBlur stdDeviation="7.5"/>
<feColorMatrix type="matrix" values="0 0 0 0 0 0 0 0 0 0.827451 0 0 0 0 1 0 0 0 0.25 0"/>
<feBlend mode="normal" in2="BackgroundImageFix" result="effect1_dropShadow"/>
<feBlend mode="normal" in="SourceGraphic" in2="effect1_dropShadow" result="shape"/>
</filter>
</defs>
</svg>
