<svg width="74" height="74" viewBox="0 0 74 74" fill="none" xmlns="http://www.w3.org/2000/svg">
<circle cx="1.41421" cy="36.7696" r="1" transform="rotate(-45 1.41421 36.7696)" fill="#30314F"/>
<circle cx="8.48529" cy="29.6985" r="1" transform="rotate(-45 8.48529 29.6985)" fill="#30314F"/>
<circle cx="15.5563" cy="22.6274" r="1" transform="rotate(-45 15.5563 22.6274)" fill="url(#paint0_linear)"/>
<circle cx="22.6274" cy="15.5564" r="1" transform="rotate(-45 22.6274 15.5564)" fill="#30314F"/>
<circle cx="29.6985" cy="8.48529" r="1" transform="rotate(-45 29.6985 8.48529)" fill="#30314F"/>
<circle cx="36.7696" cy="1.41422" r="1" transform="rotate(-45 36.7696 1.41422)" fill="#30314F"/>
<circle cx="8.48529" cy="43.8406" r="1" transform="rotate(-45 8.48529 43.8406)" fill="#30314F"/>
<circle cx="15.5563" cy="36.7696" r="1" transform="rotate(-45 15.5563 36.7696)" fill="#30314F"/>
<circle cx="22.6274" cy="29.6985" r="1" transform="rotate(-45 22.6274 29.6985)" fill="#30314F"/>
<circle cx="29.6985" cy="22.6274" r="1" transform="rotate(-45 29.6985 22.6274)" fill="#30314F"/>
<circle cx="36.7696" cy="15.5564" r="1" transform="rotate(-45 36.7696 15.5564)" fill="url(#paint1_linear)"/>
<circle cx="43.8406" cy="8.48529" r="1" transform="rotate(-45 43.8406 8.48529)" fill="#30314F"/>
<circle cx="15.5563" cy="50.9117" r="1" transform="rotate(-45 15.5563 50.9117)" fill="url(#paint2_linear)"/>
<circle cx="22.6274" cy="43.8406" r="1" transform="rotate(-45 22.6274 43.8406)" fill="#30314F"/>
<circle cx="29.6985" cy="36.7696" r="1" transform="rotate(-45 29.6985 36.7696)" fill="#30314F"/>
<circle cx="36.7696" cy="29.6985" r="1" transform="rotate(-45 36.7696 29.6985)" fill="#30314F"/>
<circle cx="43.8406" cy="22.6274" r="1" transform="rotate(-45 43.8406 22.6274)" fill="#30314F"/>
<circle cx="50.9117" cy="15.5564" r="1" transform="rotate(-45 50.9117 15.5564)" fill="#30314F"/>
<circle cx="22.6274" cy="57.9828" r="1" transform="rotate(-45 22.6274 57.9828)" fill="#30314F"/>
<circle cx="29.6985" cy="50.9117" r="1" transform="rotate(-45 29.6985 50.9117)" fill="#30314F"/>
<circle cx="36.7696" cy="43.8406" r="1" transform="rotate(-45 36.7696 43.8406)" fill="#30314F"/>
<circle cx="43.8406" cy="36.7696" r="1" transform="rotate(-45 43.8406 36.7696)" fill="#30314F"/>
<circle cx="50.9117" cy="29.6985" r="1" transform="rotate(-45 50.9117 29.6985)" fill="url(#paint3_linear)"/>
<circle cx="57.9828" cy="22.6274" r="1" transform="rotate(-45 57.9828 22.6274)" fill="url(#paint4_linear)"/>
<circle cx="29.6985" cy="65.0538" r="1" transform="rotate(-45 29.6985 65.0538)" fill="#30314F"/>
<circle cx="36.7696" cy="57.9828" r="1" transform="rotate(-45 36.7696 57.9828)" fill="url(#paint5_linear)"/>
<circle cx="43.8406" cy="50.9117" r="1" transform="rotate(-45 43.8406 50.9117)" fill="#30314F"/>
<circle cx="50.9117" cy="43.8406" r="1" transform="rotate(-45 50.9117 43.8406)" fill="#30314F"/>
<circle cx="57.9828" cy="36.7696" r="1" transform="rotate(-45 57.9828 36.7696)" fill="#30314F"/>
<circle cx="65.0538" cy="29.6985" r="1" transform="rotate(-45 65.0538 29.6985)" fill="#30314F"/>
<circle cx="36.7696" cy="72.1249" r="1" transform="rotate(-45 36.7696 72.1249)" fill="#30314F"/>
<circle cx="43.8406" cy="65.0538" r="1" transform="rotate(-45 43.8406 65.0538)" fill="#30314F"/>
<circle cx="50.9117" cy="57.9828" r="1" transform="rotate(-45 50.9117 57.9828)" fill="#30314F"/>
<circle cx="57.9828" cy="50.9117" r="1" transform="rotate(-45 57.9828 50.9117)" fill="url(#paint6_linear)"/>
<circle cx="65.0538" cy="43.8406" r="1" transform="rotate(-45 65.0538 43.8406)" fill="#30314F"/>
<circle cx="72.1249" cy="36.7696" r="1" transform="rotate(-45 72.1249 36.7696)" fill="url(#paint7_linear)"/>
<defs>
<linearGradient id="paint0_linear" x1="14.8258" y1="22.4547" x2="16.3957" y2="22.5235" gradientUnits="userSpaceOnUse">
<stop stop-color="#833AE7"/>
<stop offset="1" stop-color="#504CFE"/>
</linearGradient>
<linearGradient id="paint1_linear" x1="36.039" y1="15.3836" x2="37.6089" y2="15.4524" gradientUnits="userSpaceOnUse">
<stop stop-color="#833AE7"/>
<stop offset="1" stop-color="#504CFE"/>
</linearGradient>
<linearGradient id="paint2_linear" x1="14.8258" y1="50.7389" x2="16.3957" y2="50.8077" gradientUnits="userSpaceOnUse">
<stop stop-color="#833AE7"/>
<stop offset="1" stop-color="#504CFE"/>
</linearGradient>
<linearGradient id="paint3_linear" x1="50.1811" y1="29.5257" x2="51.751" y2="29.5946" gradientUnits="userSpaceOnUse">
<stop stop-color="#833AE7"/>
<stop offset="1" stop-color="#504CFE"/>
</linearGradient>
<linearGradient id="paint4_linear" x1="57.2522" y1="22.4547" x2="58.8221" y2="22.5235" gradientUnits="userSpaceOnUse">
<stop stop-color="#833AE7"/>
<stop offset="1" stop-color="#504CFE"/>
</linearGradient>
<linearGradient id="paint5_linear" x1="36.039" y1="57.81" x2="37.6089" y2="57.8788" gradientUnits="userSpaceOnUse">
<stop stop-color="#833AE7"/>
<stop offset="1" stop-color="#504CFE"/>
</linearGradient>
<linearGradient id="paint6_linear" x1="57.2522" y1="50.7389" x2="58.8221" y2="50.8077" gradientUnits="userSpaceOnUse">
<stop stop-color="#833AE7"/>
<stop offset="1" stop-color="#504CFE"/>
</linearGradient>
<linearGradient id="paint7_linear" x1="71.3943" y1="36.5968" x2="72.9642" y2="36.6656" gradientUnits="userSpaceOnUse">
<stop stop-color="#833AE7"/>
<stop offset="1" stop-color="#504CFE"/>
</linearGradient>
</defs>
</svg>
