<svg width="9" height="18" viewBox="0 0 9 18" fill="none" xmlns="http://www.w3.org/2000/svg">
<path d="M7.95915 0.249756H6.03608C3.88223 0.249756 2.48223 1.92443 2.48223 4.51747V6.48026H0.574538C0.405307 6.48026 0.266846 6.64232 0.266846 6.8404V9.68555C0.266846 9.88363 0.405307 10.0457 0.574538 10.0457H2.49762V17.2306C2.49762 17.4287 2.63608 17.5907 2.80531 17.5907H5.32838C5.49762 17.5907 5.63608 17.4287 5.63608 17.2306V10.0277H7.89761C8.06685 10.0277 8.20531 9.86562 8.20531 9.66754V6.8224C8.20531 6.73236 8.17454 6.64232 8.113 6.57029C8.05146 6.49827 7.97454 6.46225 7.89761 6.46225H5.62069V4.80559C5.62069 4.01327 5.78992 3.5991 6.66685 3.5991H7.95915C8.12838 3.5991 8.26685 3.43704 8.26685 3.23896V0.609901C8.26685 0.411821 8.12838 0.249756 7.95915 0.249756Z" fill="url(#paint0_linear)"/>
<defs>
<linearGradient id="paint0_linear" x1="0.55256" y1="9.16797" x2="7.92399" y2="9.16797" gradientUnits="userSpaceOnUse">
<stop stop-color="#0085FF"/>
<stop offset="1" stop-color="#00D3FF"/>
</linearGradient>
</defs>
</svg>
