<svg width="26" height="12" viewBox="0 0 26 12" fill="none" xmlns="http://www.w3.org/2000/svg">
<path d="M23.8221 3.54707C23.822 4.05314 23.6271 4.53846 23.2802 4.89635C22.9333 5.25424 22.4629 5.45542 21.9722 5.45567C20.9504 5.45567 20.1334 4.60101 20.1334 3.54707C20.1334 3.04088 20.3283 2.55542 20.6753 2.19748C21.0224 1.83955 21.493 1.63847 21.9838 1.63847C22.4745 1.63847 22.9451 1.83955 23.2922 2.19748C23.6392 2.55542 23.8341 3.04088 23.8341 3.54707H23.8221V3.54707ZM21.9607 8.26687e-06C21.052 -0.00201616 20.1796 0.367844 19.5349 1.02845C18.8902 1.68905 18.5259 2.58645 18.5219 3.52377L16.3769 6.69653C16.2865 6.68464 16.1952 6.68464 16.1159 6.68464C15.6526 6.68651 15.1981 6.81588 14.7995 7.05942L5.08423 3.03199C4.95928 2.44161 4.64239 1.91303 4.18615 1.53396C3.72991 1.15488 3.16173 0.948088 2.57588 0.947889C1.89302 0.949398 1.23855 1.2299 0.755739 1.728C0.272925 2.2261 0.00109587 2.90122 -0.000244141 3.60557C0.00121722 4.30989 0.273085 4.98493 0.755873 5.483C1.23866 5.98107 1.89306 6.26162 2.57588 6.26325C3.03921 6.26138 3.49365 6.13201 3.8923 5.88848L13.6075 9.9159C13.7325 10.5063 14.0494 11.0349 14.5056 11.4139C14.9619 11.793 15.53 11.9998 16.1159 12C17.4438 12 18.5454 10.9465 18.6694 9.61199L21.9727 7.11839C22.4244 7.1187 22.8717 7.02717 23.289 6.84902C23.7064 6.67088 24.0856 6.40961 24.405 6.08018C24.7244 5.75074 24.9777 5.35959 25.1504 4.9291C25.3231 4.49861 25.4118 4.03722 25.4115 3.57133C25.4118 3.10543 25.3231 2.64405 25.1504 2.21355C24.9777 1.78306 24.7244 1.39192 24.405 1.06248C24.0856 0.73304 23.7064 0.471778 23.289 0.293632C22.8717 0.115486 22.4244 0.0239517 21.9727 0.0242644L21.9607 8.26687e-06V8.26687e-06ZM21.9607 1.17047C22.5717 1.17085 23.1575 1.42136 23.5895 1.86698C24.0215 2.3126 24.2644 2.91687 24.2648 3.54707C24.2644 4.17727 24.0215 4.78155 23.5895 5.22716C23.1575 5.67278 22.5717 5.92329 21.9607 5.92367C21.3498 5.92317 20.7641 5.6726 20.3322 5.22699C19.9002 4.78139 19.6574 4.17719 19.6571 3.54707C19.6574 2.91696 19.9002 2.31275 20.3322 1.86715C20.7641 1.42154 21.3498 1.17098 21.9607 1.17047V1.17047ZM2.56389 1.63894C3.29012 1.63894 3.91444 2.06033 4.23259 2.6691L3.29058 2.28291C2.53024 2.00183 1.69012 2.38802 1.39548 3.16088C1.0884 3.93374 1.44021 4.81171 2.17796 5.15081L2.97242 5.4785C2.83865 5.51152 2.70143 5.52733 2.56389 5.52559C2.31483 5.52609 2.06812 5.47586 1.83792 5.37778C1.60773 5.2797 1.39857 5.1357 1.22245 4.95404C1.04634 4.77238 0.90673 4.55664 0.811641 4.3192C0.716553 4.08175 0.667855 3.82728 0.668341 3.57038C0.667855 3.31347 0.716553 3.059 0.811641 2.82156C0.90673 2.58411 1.04634 2.36837 1.22245 2.18671C1.39857 2.00506 1.60773 1.86106 1.83792 1.76297C2.06812 1.66489 2.31483 1.61466 2.56389 1.61516V1.63894V1.63894ZM16.1044 7.37569C16.3534 7.37506 16.6001 7.42519 16.8304 7.5232C17.0606 7.62121 17.2698 7.76516 17.4459 7.94679C17.622 8.12843 17.7617 8.34416 17.8567 8.58161C17.9518 8.81905 18.0005 9.07353 17.9999 9.33043C18.0004 9.58731 17.9517 9.84176 17.8566 10.0792C17.7615 10.3166 17.6219 10.5323 17.4458 10.7139C17.2696 10.8955 17.0605 11.0395 16.8303 11.1375C16.6001 11.2356 16.3534 11.2857 16.1044 11.2852C15.7602 11.2868 15.4223 11.1904 15.1279 11.0066C14.8335 10.8228 14.5939 10.5588 14.4357 10.2436C14.7423 10.3725 15.06 10.5014 15.3671 10.6298C15.7377 10.7806 16.1509 10.7755 16.518 10.6156C16.885 10.4557 17.1767 10.1538 17.3304 9.77465C17.4036 9.5856 17.4399 9.38353 17.4373 9.18C17.4347 8.97646 17.3932 8.77545 17.3152 8.58847C17.2372 8.40148 17.1243 8.23219 16.9828 8.09028C16.8413 7.94836 16.6741 7.83661 16.4908 7.76141L15.7078 7.43419C15.8438 7.399 15.9799 7.38663 16.1163 7.38663L16.1044 7.37569V7.37569Z" fill="url(#paint0_linear)"/>
<defs>
<linearGradient id="paint0_linear" x1="0.907319" y1="6.17143" x2="24.3224" y2="6.17143" gradientUnits="userSpaceOnUse">
<stop stop-color="#0085FF"/>
<stop offset="1" stop-color="#00D3FF"/>
</linearGradient>
</defs>
</svg>
