<svg width="25" height="25" viewBox="0 0 25 25" fill="none" xmlns="http://www.w3.org/2000/svg">
<circle cx="12.5" cy="12.5" r="12.5" fill="url(#paint0_linear)"/>
<path fill-rule="evenodd" clip-rule="evenodd" d="M12.5885 15.6919C12.5885 15.6919 12.8051 15.6683 12.916 15.5513C13.0175 15.4442 13.014 15.242 13.014 15.242C13.014 15.242 13.0005 14.2977 13.4472 14.1583C13.8874 14.0212 14.4526 15.0714 15.0524 15.4753C15.5055 15.7806 15.8494 15.7138 15.8494 15.7138L17.4523 15.6919C17.4523 15.6919 18.2904 15.6412 17.8931 14.9942C17.8602 14.9412 17.6613 14.5155 16.7016 13.6409C15.6962 12.7255 15.8312 12.8735 17.0415 11.2898C17.7786 10.3254 18.0733 9.73657 17.9811 9.48481C17.8937 9.24399 17.3514 9.30794 17.3514 9.30794L15.5472 9.31888C15.5472 9.31888 15.4133 9.30102 15.3142 9.35921C15.2173 9.41625 15.1545 9.54933 15.1545 9.54933C15.1545 9.54933 14.8693 10.2954 14.4884 10.9303C13.6849 12.2692 13.3638 12.3401 13.2323 12.2571C12.9266 12.0629 13.0029 11.4782 13.0029 11.0628C13.0029 9.7648 13.2036 9.22382 12.6126 9.08383C12.4165 9.03716 12.2721 9.00663 11.7703 9.00144C11.1265 8.9951 10.5818 9.00375 10.2731 9.15181C10.0677 9.25032 9.90921 9.4704 10.006 9.48308C10.1252 9.49863 10.3952 9.55452 10.5384 9.74579C10.7233 9.99294 10.7168 10.5472 10.7168 10.5472C10.7168 10.5472 10.823 12.075 10.4685 12.2646C10.2256 12.3948 9.89219 12.1292 9.17556 10.9142C8.80873 10.2919 8.5317 9.60406 8.5317 9.60406C8.5317 9.60406 8.47829 9.47559 8.38263 9.40645C8.267 9.32292 8.1056 9.29699 8.1056 9.29699L6.3912 9.30794C6.3912 9.30794 6.13355 9.31485 6.03905 9.42489C5.95512 9.52225 6.0326 9.72447 6.0326 9.72447C6.0326 9.72447 7.37488 12.8073 8.89501 14.3611C10.2889 15.7852 11.8713 15.6919 11.8713 15.6919H12.5885Z" fill="white"/>
<defs>
<linearGradient id="paint0_linear" x1="5.03374e-08" y1="12.7778" x2="26.0625" y2="12.7778" gradientUnits="userSpaceOnUse">
<stop stop-color="#647AE8"/>
</linearGradient>
</defs>
</svg>
