<?xml version="1.0"?>
<svg version="1.1" xmlns="http://www.w3.org/2000/svg" width="529" height="56" style=""><path fill="#02a9ba" d="M33.0810546875,28.0673828125q-3.9306640625,0-6.0869140625,2.95361328125t-2.15625,8.23193359375q0,10.9833984375,8.2431640625,10.9833984375q3.458984375,0,8.3779296875-1.7294921875l0,5.83984375q-4.04296875,1.6845703125-9.029296875,1.6845703125q-7.1650390625,0-10.9609375-4.34619140625t-3.7958984375-12.47705078125q0-5.12109375,1.8642578125-8.97314453125t5.35693359375-5.9072265625t8.18701171875-2.05517578125q4.7841796875,0,9.61328125,2.3134765625l-2.24609375,5.66015625q-1.841796875-0.8759765625-3.7060546875-1.52734375t-3.6611328125-0.6513671875z M70.989951171875,46.462890625q0,4.447265625-3.20068359375,7.0078125t-8.90576171875,2.560546875q-5.255859375,0-9.298828125-1.9765625l0-6.46875q3.32421875,1.482421875,5.62646484375,2.0888671875t4.21142578125,0.6064453125q2.291015625,0,3.51513671875-0.8759765625t1.22412109375-2.60546875q0-0.9658203125-0.5390625-1.71826171875t-1.58349609375-1.44873046875t-4.25634765625-2.2236328125q-3.009765625-1.4150390625-4.5146484375-2.7177734375t-2.4033203125-3.0322265625t-0.8984375-4.04296875q0-4.357421875,2.95361328125-6.8505859375t8.16455078125-2.4931640625q2.560546875,0,4.88525390625,0.6064453125t4.86279296875,1.70703125l-2.24609375,5.4130859375q-2.6279296875-1.078125-4.34619140625-1.5048828125t-3.38037109375-0.4267578125q-1.9765625,0-3.0322265625,0.9208984375t-1.0556640625,2.4033203125q0,0.9208984375,0.4267578125,1.60595703125t1.35888671875,1.3251953125t4.41357421875,2.30224609375q4.6044921875,2.201171875,6.3115234375,4.41357421875t1.70703125,5.42431640625z M78.59904296875,52.3701171875q0-1.88671875,1.0107421875-2.8525390625t2.9423828125-0.9658203125q1.8642578125,0,2.88623046875,0.98828125t1.02197265625,2.830078125q0,1.7744140625-1.033203125,2.79638671875t-2.875,1.02197265625q-1.88671875,0-2.919921875-0.99951171875t-1.033203125-2.81884765625z M78.59904296875,33.8173828125q0-1.88671875,1.0107421875-2.8525390625t2.9423828125-0.9658203125q1.8642578125,0,2.88623046875,0.98828125t1.02197265625,2.830078125q0,1.8193359375-1.04443359375,2.81884765625t-2.86376953125,0.99951171875q-1.88671875,0-2.919921875-0.98828125t-1.033203125-2.830078125z M115.76672851563,46.462890625q0,4.447265625-3.20068359375,7.0078125t-8.90576171875,2.560546875q-5.255859375,0-9.298828125-1.9765625l0-6.46875q3.32421875,1.482421875,5.62646484375,2.0888671875t4.21142578125,0.6064453125q2.291015625,0,3.51513671875-0.8759765625t1.22412109375-2.60546875q0-0.9658203125-0.5390625-1.71826171875t-1.58349609375-1.44873046875t-4.25634765625-2.2236328125q-3.009765625-1.4150390625-4.5146484375-2.7177734375t-2.4033203125-3.0322265625t-0.8984375-4.04296875q0-4.357421875,2.95361328125-6.8505859375t8.16455078125-2.4931640625q2.560546875,0,4.88525390625,0.6064453125t4.86279296875,1.70703125l-2.24609375,5.4130859375q-2.6279296875-1.078125-4.34619140625-1.5048828125t-3.38037109375-0.4267578125q-1.9765625,0-3.0322265625,0.9208984375t-1.0556640625,2.4033203125q0,0.9208984375,0.4267578125,1.60595703125t1.35888671875,1.3251953125t4.41357421875,2.30224609375q4.6044921875,2.201171875,6.3115234375,4.41357421875t1.70703125,5.42431640625z M124.880703125,55.58203125l0-32.837890625l6.962890625,0l0,32.837890625l-6.962890625,0z M155.93901367187,55.58203125l-6.962890625,0l0-27.04296875l-8.9169921875,0l0-5.794921875l24.796875,0l0,5.794921875l-8.9169921875,0l0,27.04296875z M191.98365234375,55.58203125l-18.912109375,0l0-32.837890625l18.912109375,0l0,5.705078125l-11.94921875,0l0,7.2099609375l11.1181640625,0l0,5.705078125l-11.1181640625,0l0,8.4677734375l11.94921875,0l0,5.75z M200.49118164062,52.3701171875q0-1.88671875,1.0107421875-2.8525390625t2.9423828125-0.9658203125q1.8642578125,0,2.88623046875,0.98828125t1.02197265625,2.830078125q0,1.7744140625-1.033203125,2.79638671875t-2.875,1.02197265625q-1.88671875,0-2.919921875-0.99951171875t-1.033203125-2.81884765625z M200.49118164062,33.8173828125q0-1.88671875,1.0107421875-2.8525390625t2.9423828125-0.9658203125q1.8642578125,0,2.88623046875,0.98828125t1.02197265625,2.830078125q0,1.8193359375-1.04443359375,2.81884765625t-2.86376953125,0.99951171875q-1.88671875,0-2.919921875-0.98828125t-1.033203125-2.830078125z M218.275078125,22.744140625l10.2197265625,0q6.9853515625,0,10.14111328125,1.98779296875t3.15576171875,6.32275390625q0,2.9423828125-1.38134765625,4.8291015625t-3.67236328125,2.2685546875l0,0.224609375q3.1220703125,0.6962890625,4.50341796875,2.60546875t1.38134765625,5.076171875q0,4.4921875-3.24560546875,7.0078125t-8.81591796875,2.515625l-12.2861328125,0l0-32.837890625z M225.23796875,35.7490234375l4.04296875,0q2.830078125,0,4.09912109375-0.8759765625t1.26904296875-2.8974609375q0-1.88671875-1.38134765625-2.70654296875t-4.36865234375-0.81982421875l-3.6611328125,0l0,7.2998046875z M225.23796875,41.2744140625l0,8.5576171875l4.537109375,0q2.875,0,4.2451171875-1.1005859375t1.3701171875-3.369140625q0-4.087890625-5.83984375-4.087890625l-4.3125,0z M262.56288085937,36.265625l6.8505859375-13.521484375l7.501953125,0l-10.8935546875,20.0576171875l0,12.7802734375l-6.91796875,0l0-12.5556640625l-10.8935546875-20.2822265625l7.546875,0z M282.70517578125,52.3701171875q0-1.88671875,1.0107421875-2.8525390625t2.9423828125-0.9658203125q1.8642578125,0,2.88623046875,0.98828125t1.02197265625,2.830078125q0,1.7744140625-1.033203125,2.79638671875t-2.875,1.02197265625q-1.88671875,0-2.919921875-0.99951171875t-1.033203125-2.81884765625z M282.70517578125,33.8173828125q0-1.88671875,1.0107421875-2.8525390625t2.9423828125-0.9658203125q1.8642578125,0,2.88623046875,0.98828125t1.02197265625,2.830078125q0,1.8193359375-1.04443359375,2.81884765625t-2.86376953125,0.99951171875q-1.88671875,0-2.919921875-0.98828125t-1.033203125-2.830078125z M314.39239257812,55.58203125l-7.90625-25.7626953125l-0.2021484375,0q0.4267578125,7.861328125,0.4267578125,10.4892578125l0,15.2734375l-6.2216796875,0l0-32.837890625l9.478515625,0l7.771484375,25.111328125l0.134765625,0l8.2431640625-25.111328125l9.478515625,0l0,32.837890625l-6.4912109375,0l0-15.54296875q0-1.1005859375,0.03369140625-2.5380859375t0.30322265625-7.63671875l-0.2021484375,0l-8.4677734375,25.7177734375l-6.37890625,0z M376.8286328125,39.1181640625q0,8.1533203125-4.04296875,12.533203125t-11.58984375,4.3798828125t-11.58984375-4.3798828125t-4.04296875-12.578125t4.05419921875-12.52197265625t11.62353515625-4.32373046875t11.57861328125,4.357421875t4.00927734375,12.533203125z M352.8628125,39.1181640625q0,5.5029296875,2.0888671875,8.2880859375t6.244140625,2.78515625q8.3330078125,0,8.3330078125-11.0732421875q0-11.095703125-8.2880859375-11.095703125q-4.1552734375,0-6.2666015625,2.79638671875t-2.111328125,8.29931640625z M416.60178710938,39.1181640625q0,8.1533203125-4.04296875,12.533203125t-11.58984375,4.3798828125t-11.58984375-4.3798828125t-4.04296875-12.578125t4.05419921875-12.52197265625t11.62353515625-4.32373046875t11.57861328125,4.357421875t4.00927734375,12.533203125z M392.63596679688,39.1181640625q0,5.5029296875,2.0888671875,8.2880859375t6.244140625,2.78515625q8.3330078125,0,8.3330078125-11.0732421875q0-11.095703125-8.2880859375-11.095703125q-4.1552734375,0-6.2666015625,2.79638671875t-2.111328125,8.29931640625z M458.55365234375,55.58203125l-7.9287109375,0l-4.447265625-17.25q-0.2470703125-0.9208984375-0.84228515625-3.80712890625t-0.68505859375-3.87451171875q-0.134765625,1.212890625-0.673828125,3.89697265625t-0.8310546875,3.82958984375l-4.4248046875,17.205078125l-7.90625,0l-8.3779296875-32.837890625l6.8505859375,0l4.2001953125,17.923828125q1.1005859375,4.9638671875,1.5947265625,8.6025390625q0.134765625-1.2802734375,0.61767578125-3.96435546875t0.90966796875-4.16650390625l4.7841796875-18.3955078125l6.5810546875,0l4.7841796875,18.3955078125q0.314453125,1.2353515625,0.7861328125,3.7734375t0.71875,4.357421875q0.224609375-1.751953125,0.71875-4.36865234375t0.8984375-4.23388671875l4.177734375-17.923828125l6.8505859375,0z M493.11586914063,55.58203125l-18.912109375,0l0-32.837890625l18.912109375,0l0,5.705078125l-11.94921875,0l0,7.2099609375l11.1181640625,0l0,5.705078125l-11.1181640625,0l0,8.4677734375l11.94921875,0l0,5.75z M503.12828125,22.744140625l10.2197265625,0q6.9853515625,0,10.14111328125,1.98779296875t3.15576171875,6.32275390625q0,2.9423828125-1.38134765625,4.8291015625t-3.67236328125,2.2685546875l0,0.224609375q3.1220703125,0.6962890625,4.50341796875,2.60546875t1.38134765625,5.076171875q0,4.4921875-3.24560546875,7.0078125t-8.81591796875,2.515625l-12.2861328125,0l0-32.837890625z M510.091171875,35.7490234375l4.04296875,0q2.830078125,0,4.09912109375-0.8759765625t1.26904296875-2.8974609375q0-1.88671875-1.38134765625-2.70654296875t-4.36865234375-0.81982421875l-3.6611328125,0l0,7.2998046875z M510.091171875,41.2744140625l0,8.5576171875l4.537109375,0q2.875,0,4.2451171875-1.1005859375t1.3701171875-3.369140625q0-4.087890625-5.83984375-4.087890625l-4.3125,0z"/><path fill="#" d=""/></svg>
