<svg width="559" height="168" viewBox="0 0 559 168" fill="none" xmlns="http://www.w3.org/2000/svg">
<path d="M56.0087 61.064C55.1807 60.848 54.4067 60.704 53.6867 60.632C52.9667 60.56 52.2647 60.56 51.5807 60.632C50.9327 60.704 50.2667 60.866 49.5827 61.118C48.8987 61.37 48.1967 61.73 47.4767 62.198C46.5047 62.81 45.7127 63.512 45.1007 64.304C44.5247 65.096 44.0747 65.96 43.7507 66.896C43.4627 67.796 43.3007 68.768 43.2647 69.812C43.2287 70.82 43.2827 71.846 43.4267 72.89C43.6427 74.474 44.1107 75.806 44.8307 76.886C45.5507 77.966 46.4327 78.812 47.4767 79.424C48.5567 80 49.7447 80.378 51.0407 80.558C52.3727 80.738 53.7227 80.72 55.0907 80.504C55.9907 80.396 56.9447 80.144 57.9527 79.748C58.9607 79.352 59.8967 78.92 60.7607 78.452C61.6607 77.984 62.4527 77.534 63.1367 77.102C63.8567 76.67 64.3787 76.346 64.7027 76.13C65.9627 76.382 67.1327 76.922 68.2127 77.75C69.2927 78.578 70.1567 79.586 70.8047 80.774C71.4887 81.962 71.9207 83.294 72.1007 84.77C72.3167 86.21 72.1547 87.668 71.6147 89.144C71.1107 90.62 70.2107 92.06 68.9147 93.464C67.6187 94.832 65.8187 96.056 63.5147 97.136C62.0747 97.82 60.4367 98.306 58.6007 98.594C56.7647 98.918 54.8747 99.08 52.9307 99.08C51.0227 99.116 49.1147 99.026 47.2067 98.81C45.2987 98.594 43.5707 98.288 42.0227 97.892C37.3067 96.668 33.4727 94.58 30.5207 91.628C27.5687 88.64 25.4267 84.842 24.0947 80.234C23.1947 77.03 22.7267 73.844 22.6907 70.676C22.6547 67.472 23.1767 64.268 24.2567 61.064C25.4807 57.464 27.2987 54.458 29.7107 52.046C32.1227 49.598 35.0207 47.528 38.4047 45.836C40.6727 44.756 43.0487 43.964 45.5327 43.46C48.0167 42.92 50.5907 42.722 53.2547 42.866C55.9187 43.01 58.6547 43.514 61.4627 44.378C64.2707 45.242 67.1327 46.502 70.0487 48.158C70.7327 50.75 70.7147 53.018 69.9947 54.962C69.2747 56.87 68.1767 58.4 66.7007 59.552C65.2247 60.704 63.5147 61.424 61.5707 61.712C59.6267 62 57.7727 61.784 56.0087 61.064ZM116.852 67.598C119.12 69.002 120.884 70.622 122.144 72.458C123.44 74.258 124.304 76.148 124.736 78.128C125.168 80.072 125.222 82.034 124.898 84.014C124.574 85.958 123.962 87.794 123.062 89.522C122.162 91.25 121.01 92.78 119.606 94.112C118.238 95.444 116.708 96.452 115.016 97.136C113.828 97.604 112.388 98.018 110.696 98.378C109.04 98.774 107.24 99.044 105.296 99.188C103.352 99.368 101.318 99.404 99.1939 99.296C97.0699 99.224 94.9639 98.972 92.8759 98.54C90.7879 98.108 88.7539 97.478 86.7739 96.65C84.8299 95.786 83.0479 94.688 81.4279 93.356C80.5639 92.276 79.9879 91.088 79.6999 89.792C79.4479 88.496 79.4299 87.236 79.6459 86.012C79.8619 84.788 80.2939 83.654 80.9419 82.61C81.6259 81.566 82.4719 80.738 83.4799 80.126C84.4879 79.478 85.6219 79.136 86.8819 79.1C88.1779 79.028 89.5639 79.352 91.0399 80.072C92.9479 81.008 94.6939 81.746 96.2779 82.286C97.8979 82.826 99.3199 83.15 100.544 83.258C101.768 83.33 102.758 83.204 103.514 82.88C104.27 82.52 104.756 81.926 104.972 81.098C105.116 80.558 105.206 80.108 105.242 79.748C105.278 79.388 105.188 79.1 104.972 78.884C104.756 78.632 104.36 78.452 103.784 78.344C103.244 78.2 102.47 78.092 101.462 78.02C99.2659 77.876 97.0699 77.444 94.8739 76.724C92.7139 76.004 90.7159 74.996 88.8799 73.7C87.0439 72.404 85.4779 70.82 84.1819 68.948C82.8859 67.04 82.0219 64.808 81.5899 62.252C81.4819 61.496 81.4459 60.596 81.4819 59.552C81.5539 58.472 81.7519 57.338 82.0759 56.15C82.3999 54.962 82.8859 53.756 83.5339 52.532C84.1819 51.308 85.0459 50.138 86.1259 49.022C87.2059 47.87 88.5199 46.826 90.0679 45.89C91.6519 44.954 93.5239 44.198 95.6839 43.622C97.4479 43.154 99.3559 42.848 101.408 42.704C103.46 42.56 105.458 42.578 107.402 42.758C109.382 42.938 111.236 43.28 112.964 43.784C114.728 44.288 116.186 44.918 117.338 45.674C118.922 46.718 120.11 47.834 120.902 49.022C121.73 50.174 122.252 51.344 122.468 52.532C122.684 53.684 122.63 54.818 122.306 55.934C122.018 57.05 121.55 58.058 120.902 58.958C120.254 59.858 119.462 60.632 118.526 61.28C117.626 61.892 116.654 62.324 115.61 62.576C114.962 61.784 114.098 61.1 113.018 60.524C111.974 59.948 110.84 59.498 109.616 59.174C108.428 58.85 107.222 58.67 105.998 58.634C104.774 58.562 103.658 58.634 102.65 58.85C101.678 59.066 100.868 59.426 100.22 59.93C99.6079 60.434 99.3019 61.082 99.3019 61.874C99.3019 62.486 99.5539 62.972 100.058 63.332C100.562 63.692 101.498 63.962 102.866 64.142C106.826 64.646 109.904 65.204 112.1 65.816C114.296 66.392 115.88 66.986 116.852 67.598ZM163.879 61.496C162.259 61.1 160.801 60.974 159.505 61.118C158.245 61.226 156.895 61.748 155.455 62.684C154.519 63.26 153.745 63.944 153.133 64.736C152.557 65.528 152.107 66.392 151.783 67.328C151.495 68.228 151.333 69.182 151.297 70.19C151.261 71.198 151.315 72.206 151.459 73.214C151.747 75.698 152.647 77.588 154.159 78.884C155.671 80.18 157.399 80.81 159.343 80.774C160.819 80.774 161.953 80.468 162.745 79.856C163.573 79.244 164.167 78.47 164.527 77.534C164.923 76.562 165.157 75.518 165.229 74.402C165.337 73.25 165.409 72.152 165.445 71.108C165.877 70.532 166.597 70.082 167.605 69.758C168.613 69.398 169.747 69.2 171.007 69.164C172.303 69.128 173.635 69.254 175.003 69.542C176.371 69.83 177.631 70.316 178.783 71C179.971 71.648 180.943 72.53 181.699 73.646C182.491 74.726 182.941 76.04 183.049 77.588C183.121 78.74 183.031 80.072 182.779 81.584C182.563 83.06 182.113 84.59 181.429 86.174C180.745 87.758 179.809 89.306 178.621 90.818C177.469 92.294 175.975 93.626 174.139 94.814C172.303 96.002 170.107 96.956 167.551 97.676C165.031 98.396 162.079 98.756 158.695 98.756C154.303 98.756 150.577 98.198 147.517 97.082C144.457 95.966 141.901 94.562 139.849 92.87C137.833 91.178 136.231 89.306 135.043 87.254C133.891 85.202 132.991 83.258 132.343 81.422C131.263 78.326 130.741 75.032 130.777 71.54C130.849 68.012 131.407 64.664 132.451 61.496C133.639 57.932 135.421 54.944 137.797 52.532C140.209 50.12 143.107 48.104 146.491 46.484C148.723 45.404 151.063 44.612 153.511 44.108C155.995 43.568 158.551 43.37 161.179 43.514C163.843 43.622 166.561 44.108 169.333 44.972C172.105 45.836 174.931 47.096 177.811 48.752C178.459 51.308 178.423 53.558 177.703 55.502C177.019 57.41 175.939 58.94 174.463 60.092C172.987 61.208 171.295 61.91 169.387 62.198C167.479 62.45 165.643 62.216 163.879 61.496ZM217.077 42.92C220.137 42.92 222.873 43.226 225.285 43.838C227.697 44.45 229.821 45.26 231.657 46.268C233.529 47.276 235.131 48.41 236.463 49.67C237.795 50.894 238.911 52.136 239.811 53.396C240.711 54.656 241.431 55.844 241.971 56.96C242.511 58.04 242.925 58.94 243.213 59.66C244.473 63.152 245.211 66.644 245.427 70.136C245.679 73.592 245.265 77.12 244.185 80.72C241.233 90.188 234.951 96.056 225.339 98.324C221.415 99.26 217.563 99.548 213.783 99.188C210.039 98.864 206.367 97.766 202.767 95.894C199.311 94.13 196.575 91.844 194.559 89.036C192.543 86.192 191.121 82.916 190.293 79.208C189.897 77.48 189.627 75.698 189.483 73.862C189.339 72.026 189.321 70.226 189.429 68.462C189.537 66.662 189.771 64.934 190.131 63.278C190.491 61.622 190.995 60.092 191.643 58.688C192.507 56.78 193.605 54.89 194.937 53.018C196.305 51.146 198.015 49.472 200.067 47.996C202.119 46.484 204.531 45.26 207.303 44.324C210.111 43.388 213.369 42.92 217.077 42.92ZM217.347 62.252C216.339 62.252 215.385 62.468 214.485 62.9C213.585 63.296 212.793 63.908 212.109 64.736C211.461 65.564 210.957 66.59 210.597 67.814C210.237 69.038 210.111 70.46 210.219 72.08C210.327 73.664 210.633 74.996 211.137 76.076C211.641 77.12 212.253 77.984 212.973 78.668C213.693 79.316 214.449 79.784 215.241 80.072C216.069 80.324 216.843 80.414 217.563 80.342C218.283 80.306 219.021 80.126 219.777 79.802C220.533 79.478 221.217 78.992 221.829 78.344C222.477 77.66 223.017 76.796 223.449 75.752C223.917 74.672 224.187 73.376 224.259 71.864C224.367 70.352 224.241 69.002 223.881 67.814C223.521 66.59 223.017 65.582 222.369 64.79C221.721 63.962 220.965 63.332 220.101 62.9C219.237 62.468 218.319 62.252 217.347 62.252ZM288.211 67.598C290.479 69.002 292.243 70.622 293.503 72.458C294.799 74.258 295.663 76.148 296.095 78.128C296.527 80.072 296.581 82.034 296.257 84.014C295.933 85.958 295.321 87.794 294.421 89.522C293.521 91.25 292.369 92.78 290.965 94.112C289.597 95.444 288.067 96.452 286.375 97.136C285.187 97.604 283.747 98.018 282.055 98.378C280.399 98.774 278.599 99.044 276.655 99.188C274.711 99.368 272.677 99.404 270.553 99.296C268.429 99.224 266.323 98.972 264.235 98.54C262.147 98.108 260.113 97.478 258.133 96.65C256.189 95.786 254.407 94.688 252.787 93.356C251.923 92.276 251.347 91.088 251.059 89.792C250.807 88.496 250.789 87.236 251.005 86.012C251.221 84.788 251.653 83.654 252.301 82.61C252.985 81.566 253.831 80.738 254.839 80.126C255.847 79.478 256.981 79.136 258.241 79.1C259.537 79.028 260.923 79.352 262.399 80.072C264.307 81.008 266.053 81.746 267.637 82.286C269.257 82.826 270.679 83.15 271.903 83.258C273.127 83.33 274.117 83.204 274.873 82.88C275.629 82.52 276.115 81.926 276.331 81.098C276.475 80.558 276.565 80.108 276.601 79.748C276.637 79.388 276.547 79.1 276.331 78.884C276.115 78.632 275.719 78.452 275.143 78.344C274.603 78.2 273.829 78.092 272.821 78.02C270.625 77.876 268.429 77.444 266.233 76.724C264.073 76.004 262.075 74.996 260.239 73.7C258.403 72.404 256.837 70.82 255.541 68.948C254.245 67.04 253.381 64.808 252.949 62.252C252.841 61.496 252.805 60.596 252.841 59.552C252.913 58.472 253.111 57.338 253.435 56.15C253.759 54.962 254.245 53.756 254.893 52.532C255.541 51.308 256.405 50.138 257.485 49.022C258.565 47.87 259.879 46.826 261.427 45.89C263.011 44.954 264.883 44.198 267.043 43.622C268.807 43.154 270.715 42.848 272.767 42.704C274.819 42.56 276.817 42.578 278.761 42.758C280.741 42.938 282.595 43.28 284.323 43.784C286.087 44.288 287.545 44.918 288.697 45.674C290.281 46.718 291.469 47.834 292.261 49.022C293.089 50.174 293.611 51.344 293.827 52.532C294.043 53.684 293.989 54.818 293.665 55.934C293.377 57.05 292.909 58.058 292.261 58.958C291.613 59.858 290.821 60.632 289.885 61.28C288.985 61.892 288.013 62.324 286.969 62.576C286.321 61.784 285.457 61.1 284.377 60.524C283.333 59.948 282.199 59.498 280.975 59.174C279.787 58.85 278.581 58.67 277.357 58.634C276.133 58.562 275.017 58.634 274.009 58.85C273.037 59.066 272.227 59.426 271.579 59.93C270.967 60.434 270.661 61.082 270.661 61.874C270.661 62.486 270.913 62.972 271.417 63.332C271.921 63.692 272.857 63.962 274.225 64.142C278.185 64.646 281.263 65.204 283.459 65.816C285.655 66.392 287.239 66.986 288.211 67.598ZM325.162 62.684H335.53C335.566 61.172 335.584 59.606 335.584 57.986C335.62 56.33 335.638 54.764 335.638 53.288C335.674 51.776 335.728 50.408 335.8 49.184C335.872 47.924 335.962 46.934 336.07 46.214C337.186 45.35 338.446 44.72 339.85 44.324C341.254 43.892 342.694 43.694 344.17 43.73C345.646 43.766 347.086 44.036 348.49 44.54C349.894 45.044 351.136 45.764 352.216 46.7C353.332 47.6 354.214 48.716 354.862 50.048C355.546 51.344 355.888 52.856 355.888 54.584C355.888 55.484 355.888 56.69 355.888 58.202C355.888 59.714 355.888 61.442 355.888 63.386C355.888 65.294 355.888 67.382 355.888 69.65C355.888 71.882 355.888 74.204 355.888 76.616C355.888 78.992 355.87 81.404 355.834 83.852C355.834 86.3 355.834 88.658 355.834 90.926C355.834 91.862 355.816 92.906 355.78 94.058C355.78 95.174 355.744 96.038 355.672 96.65C355.276 97.118 354.538 97.532 353.458 97.892C352.378 98.252 351.136 98.504 349.732 98.648C348.328 98.828 346.852 98.864 345.304 98.756C343.792 98.648 342.37 98.324 341.038 97.784C339.706 97.244 338.572 96.47 337.636 95.462C336.7 94.418 336.124 93.086 335.908 91.466C335.8 90.782 335.71 89.918 335.638 88.874C335.602 87.794 335.566 86.714 335.53 85.634C335.494 84.518 335.458 83.474 335.422 82.502C335.422 81.494 335.422 80.702 335.422 80.126H325.324V96.704C324.82 97.172 323.992 97.604 322.84 98C321.724 98.396 320.446 98.684 319.006 98.864C317.566 99.044 316.072 99.044 314.524 98.864C312.976 98.72 311.536 98.288 310.204 97.568C308.908 96.848 307.792 95.804 306.856 94.436C305.956 93.068 305.434 91.286 305.29 89.09C305.218 88.118 305.146 86.624 305.074 84.608C305.002 82.592 304.93 80.306 304.858 77.75C304.786 75.158 304.714 72.422 304.642 69.542C304.606 66.626 304.588 63.782 304.588 61.01C304.588 58.202 304.606 55.574 304.642 53.126C304.678 50.678 304.75 48.644 304.858 47.024C306.046 46.052 307.342 45.314 308.746 44.81C310.186 44.27 311.626 43.982 313.066 43.946C314.542 43.874 315.964 44.018 317.332 44.378C318.7 44.702 319.924 45.224 321.004 45.944C322.12 46.664 323.02 47.564 323.704 48.644C324.424 49.688 324.856 50.894 325 52.262C325.108 53.45 325.18 54.638 325.216 55.826C325.252 57.014 325.27 58.094 325.27 59.066C325.27 60.038 325.252 60.848 325.216 61.496C325.18 62.144 325.162 62.54 325.162 62.684ZM469.558 77.912C470.206 78.524 470.98 79.442 471.88 80.666C472.816 81.854 473.734 83.15 474.634 84.554C475.57 85.922 476.416 87.272 477.172 88.604C477.928 89.936 478.45 90.998 478.738 91.79C478.45 93.338 477.874 94.67 477.01 95.786C476.182 96.902 475.174 97.766 473.986 98.378C472.798 98.99 471.484 99.332 470.044 99.404C468.604 99.512 467.146 99.314 465.67 98.81C464.23 98.342 462.826 97.568 461.458 96.488C460.09 95.408 458.884 94.004 457.84 92.276C457.516 91.736 457.156 91.178 456.76 90.602C456.364 89.99 455.914 89.306 455.41 88.55C454.942 87.794 454.402 86.93 453.79 85.958C453.178 84.986 452.458 83.852 451.63 82.556C451.486 82.34 451.342 82.124 451.198 81.908C451.054 81.692 450.91 81.494 450.766 81.314C450.622 81.386 450.496 81.422 450.388 81.422C450.388 81.926 450.37 82.448 450.334 82.988C450.334 83.528 450.316 84.086 450.28 84.662C450.172 86.894 450.028 88.964 449.848 90.872C449.704 92.78 449.542 94.4 449.362 95.732C448.246 96.956 446.752 97.748 444.88 98.108C443.008 98.468 441.118 98.324 439.21 97.676C437.302 96.992 435.538 95.768 433.918 94.004C432.334 92.204 431.254 89.774 430.678 86.714C430.534 85.922 430.39 84.554 430.246 82.61C430.102 80.666 429.994 78.434 429.922 75.914C429.85 73.394 429.796 70.712 429.76 67.868C429.76 64.988 429.778 62.252 429.814 59.66C429.886 57.032 430.012 54.656 430.192 52.532C430.372 50.372 430.606 48.752 430.894 47.672C431.686 46.916 432.928 46.214 434.62 45.566C436.312 44.882 438.274 44.324 440.506 43.892C442.738 43.424 445.15 43.1 447.742 42.92C450.334 42.74 452.908 42.758 455.464 42.974C458.056 43.154 460.54 43.586 462.916 44.27C465.292 44.918 467.38 45.836 469.18 47.024C470.62 47.996 471.934 49.202 473.122 50.642C474.31 52.082 475.3 53.684 476.092 55.448C476.884 57.176 477.424 58.994 477.712 60.902C478.036 62.81 478.018 64.736 477.658 66.68C477.298 68.588 476.56 70.442 475.444 72.242C474.328 74.042 472.744 75.698 470.692 77.21C470.404 77.426 470.026 77.66 469.558 77.912ZM458.326 64.088C458.326 63.44 458.146 62.846 457.786 62.306C457.426 61.766 456.94 61.352 456.328 61.064C455.716 60.776 454.96 60.65 454.06 60.686C453.196 60.722 452.26 60.974 451.252 61.442C451.252 62.018 451.252 62.522 451.252 62.954C451.252 63.35 451.252 63.728 451.252 64.088C451.252 64.448 451.252 64.826 451.252 65.222C451.252 65.582 451.252 65.996 451.252 66.464C451.252 66.572 451.324 66.716 451.468 66.896C451.648 67.04 451.792 67.112 451.9 67.112C452.584 67.112 453.25 67.112 453.898 67.112C454.582 67.112 455.248 67.04 455.896 66.896C456.724 66.752 457.336 66.446 457.732 65.978C458.128 65.474 458.326 64.844 458.326 64.088ZM508.576 63.764C509.476 62.36 510.322 61.028 511.114 59.768C511.942 58.472 512.77 57.212 513.598 55.988C514.102 55.232 514.732 54.296 515.488 53.18C516.244 52.064 517.018 50.93 517.81 49.778C518.638 48.59 519.43 47.456 520.186 46.376C520.942 45.26 521.572 44.324 522.076 43.568C523.984 43.172 525.856 43.244 527.692 43.784C529.528 44.288 531.04 45.152 532.228 46.376C533.452 47.6 534.208 49.148 534.496 51.02C534.82 52.892 534.424 54.98 533.308 57.284C532.588 58.76 531.994 59.948 531.526 60.848C531.058 61.712 530.59 62.522 530.122 63.278C529.654 64.034 529.132 64.844 528.556 65.708C528.016 66.572 527.314 67.688 526.45 69.056C526.054 69.632 526.036 70.244 526.396 70.892C527.368 72.728 528.394 74.582 529.474 76.454C530.59 78.326 531.652 80.162 532.66 81.962C533.668 83.726 534.586 85.436 535.414 87.092C536.278 88.712 536.962 90.188 537.466 91.52C537.106 92.672 536.476 93.77 535.576 94.814C534.712 95.858 533.668 96.758 532.444 97.514C531.256 98.234 529.942 98.738 528.502 99.026C527.062 99.35 525.64 99.368 524.236 99.08C522.832 98.828 521.464 98.216 520.132 97.244C518.836 96.272 517.72 94.85 516.784 92.978C516.208 91.862 515.524 90.566 514.732 89.09C513.976 87.578 512.968 85.58 511.708 83.096C511.384 83.6 511.06 84.122 510.736 84.662C510.412 85.166 510.106 85.67 509.818 86.174C509.566 86.678 509.332 87.146 509.116 87.578C508.9 88.01 508.774 88.37 508.738 88.658C508.63 89.234 508.576 90.224 508.576 91.628C508.612 93.032 508.702 94.49 508.846 96.002C508.054 96.65 507.064 97.19 505.876 97.622C504.724 98.018 503.464 98.27 502.096 98.378C500.764 98.486 499.396 98.414 497.992 98.162C496.624 97.91 495.346 97.46 494.158 96.812C493.006 96.164 492.016 95.3 491.188 94.22C490.396 93.104 489.892 91.754 489.676 90.17C489.46 88.694 489.262 86.84 489.082 84.608C488.938 82.34 488.812 79.91 488.704 77.318C488.596 74.69 488.506 71.972 488.434 69.164C488.398 66.32 488.38 63.548 488.38 60.848C488.416 58.148 488.47 55.628 488.542 53.288C488.65 50.912 488.794 48.878 488.974 47.186C489.694 46.286 490.666 45.548 491.89 44.972C493.114 44.36 494.446 43.946 495.886 43.73C497.326 43.514 498.784 43.514 500.26 43.73C501.736 43.91 503.068 44.342 504.256 45.026C505.48 45.71 506.488 46.646 507.28 47.834C508.072 48.986 508.504 50.444 508.576 52.208C508.648 53.792 508.684 55.016 508.684 55.88C508.72 56.708 508.738 57.428 508.738 58.04C508.738 58.616 508.72 59.228 508.684 59.876C508.648 60.488 508.612 61.37 508.576 62.522C508.54 62.666 508.522 62.828 508.522 63.008C508.558 63.188 508.576 63.44 508.576 63.764Z" fill="#02A9BA"/>
<path d="M379.374 55.6653C384.748 49.5813 391.153 44.8293 398.412 41.5414C405.991 38.1083 414.307 36.3677 423.131 36.3677C424.334 36.3677 425.551 36.4009 426.748 36.4662L433 36.8076L428.409 41.0637C419.406 49.4084 417.822 59.6082 417.822 77.9542C417.822 85.435 421.139 97.1554 425.612 98.2455C423.946 99.1292 422.048 99.6321 420.034 99.6321C416.285 99.6321 412.935 97.8944 410.744 95.1835C408.552 97.8942 405.203 99.6321 401.453 99.6321C397.704 99.6321 394.354 97.8944 392.163 95.1835C389.971 97.8942 386.621 99.6321 382.872 99.6321C379.123 99.6321 375.773 97.8944 373.582 95.1835C371.39 97.8942 368.04 99.6321 364.291 99.6321C363.855 99.6321 363.424 99.607 363 99.5613C363.477 82.6476 369.246 67.1321 379.374 55.6653Z" fill="white"/>
</svg>
